<svg width="16" height="16" viewBox="0 0 16 16" fill="none" xmlns="http://www.w3.org/2000/svg">
<path fill-rule="evenodd" clip-rule="evenodd" d="M8.00065 1.33333C6.58616 1.33333 5.22961 1.89524 4.22941 2.89543C3.22922 3.89562 2.66732 5.25218 2.66732 6.66667C2.66732 8.73204 4.01114 10.7362 5.48462 12.2915C6.20773 13.0548 6.9331 13.6796 7.47844 14.1139C7.68139 14.2755 7.85867 14.4101 8.00065 14.5151C8.14263 14.4101 8.31991 14.2755 8.52287 14.1139C9.06821 13.6796 9.79358 13.0548 10.5167 12.2915C11.9902 10.7362 13.334 8.73204 13.334 6.66667C13.334 5.25218 12.7721 3.89562 11.7719 2.89543C10.7717 1.89524 9.41514 1.33333 8.00065 1.33333ZM8.00065 15.3333C7.63085 15.888 7.63068 15.8879 7.63049 15.8878L7.62858 15.8865L7.62414 15.8835L7.60886 15.8732C7.59588 15.8644 7.57737 15.8517 7.55369 15.8353C7.50634 15.8025 7.43829 15.7547 7.35251 15.6928C7.18102 15.5689 6.93822 15.3881 6.64787 15.1569C6.06821 14.6954 5.29358 14.0286 4.51668 13.2085C2.99016 11.5972 1.33398 9.26796 1.33398 6.66667C1.33398 4.89856 2.03636 3.20286 3.28661 1.95262C4.53685 0.702379 6.23254 0 8.00065 0C9.76876 0 11.4645 0.702379 12.7147 1.95262C13.9649 3.20286 14.6673 4.89856 14.6673 6.66667C14.6673 9.26796 13.0111 11.5972 11.4846 13.2085C10.7077 14.0286 9.9331 14.6954 9.35344 15.1569C9.06308 15.3881 8.82029 15.5689 8.64879 15.6928C8.56301 15.7547 8.49496 15.8025 8.44761 15.8353C8.42393 15.8517 8.40542 15.8644 8.39244 15.8732L8.37716 15.8835L8.37272 15.8865L8.37131 15.8875C8.37112 15.8876 8.37045 15.888 8.00065 15.3333ZM8.00065 15.3333L8.37045 15.888C8.14652 16.0373 7.85442 16.0371 7.63049 15.8878L8.00065 15.3333Z" fill="#233265"/>
<path fill-rule="evenodd" clip-rule="evenodd" d="M8.00065 5.33333C7.26427 5.33333 6.66732 5.93029 6.66732 6.66667C6.66732 7.40305 7.26427 8 8.00065 8C8.73703 8 9.33398 7.40305 9.33398 6.66667C9.33398 5.93029 8.73703 5.33333 8.00065 5.33333ZM5.33398 6.66667C5.33398 5.19391 6.52789 4 8.00065 4C9.47341 4 10.6673 5.19391 10.6673 6.66667C10.6673 8.13943 9.47341 9.33333 8.00065 9.33333C6.52789 9.33333 5.33398 8.13943 5.33398 6.66667Z" fill="#233265"/>
</svg>
