<svg width="18" height="11" viewBox="0 0 18 11" fill="none" xmlns="http://www.w3.org/2000/svg">
<path d="M6.61419 6.8007C6.61419 6.99182 6.45816 7.14947 6.26596 7.14947H5.91773C5.72661 7.14947 5.56896 6.9929 5.56896 6.8007V6.49943L0.173279 5.41641V9.06338C0.173279 9.82949 0.800093 10.4563 1.5662 10.4563H10.6175C11.3831 10.4563 12.0099 9.83003 12.0099 9.06338V5.41641L6.61365 6.49943L6.61419 6.8007Z" fill="white"/>
<path d="M10.6181 2.38707H8.42663C8.42771 2.36602 8.43257 2.34604 8.43257 2.32337V1.62691C8.43257 1.09835 8.00336 0.669678 7.47534 0.669678H4.70948C4.18092 0.669678 3.75225 1.09889 3.75225 1.62691V2.32283C3.75225 2.3455 3.75711 2.36548 3.75873 2.38653H1.56731C0.702939 2.38707 0 3.08947 0 3.95384V5.05468L5.57007 6.17334V5.75654C5.57007 5.56542 5.72717 5.40885 5.91884 5.40885H6.26707C6.45873 5.40885 6.6153 5.56542 6.6153 5.75654V6.17334L12.1843 5.05522V3.95438C12.1843 3.08893 11.4835 2.38707 10.6181 2.38707ZM7.91104 2.32283C7.91104 2.3455 7.90078 2.36548 7.89754 2.38653H4.28674C4.2835 2.36548 4.27432 2.3455 4.27432 2.32283V1.62691C4.27432 1.38719 4.46869 1.19175 4.71002 1.19175H7.47588C7.71668 1.19175 7.91212 1.38665 7.91212 1.62691V2.32283H7.91104Z" fill="white"/>
<path d="M15.5122 3.42151H12.6621V3.8734H15.5122V3.42151Z" fill="white"/>
<path d="M16.7561 4.62766H12.6621V5.08008H16.7561V4.62766Z" fill="white"/>
<path d="M18 5.83267H12.6621V6.28456H18V5.83267Z" fill="white"/>
</svg>
