<svg width="10" height="11" viewBox="0 0 10 11" fill="none" xmlns="http://www.w3.org/2000/svg">
<path d="M6.20652 0H0.302734V11H9.04893V2.8424L6.20652 0ZM7.58405 2.59138H6.45789V1.46516L7.58405 2.59138ZM1.16083 10.1419V0.858092H5.5998V3.02043C5.5998 3.25738 5.79184 3.44947 6.02884 3.44947H8.19083V10.1419H1.16083Z" fill="white"/>
<path d="M7.13589 8.52393H2.21582V9.09599H7.13589V8.52393Z" fill="white"/>
<path d="M5.13665 3.1521H2.21582V3.72416H5.13665V3.1521Z" fill="white"/>
<path d="M6.11195 4.97322H6.42899L5.20369 6.19846L4.2456 5.24037L2.12749 7.35865L2.53193 7.76322L4.2456 6.04943L5.20369 7.00747L6.83349 5.37766V5.69401H7.40556V4.40115H6.11195V4.97322Z" fill="white"/>
<path d="M5.13665 1.90399H2.21582V2.47605H5.13665V1.90399Z" fill="white"/>
</svg>
