<svg width="32" height="30" viewBox="0 0 32 30" fill="none" xmlns="http://www.w3.org/2000/svg">
<path d="M31.1652 16.9166L25.4424 14.1086V7.54777C25.4422 7.48203 25.4246 7.4175 25.3915 7.36071L25.3909 7.35952C25.3846 7.34902 25.3778 7.33915 25.3707 7.32927C25.3678 7.32527 25.3652 7.32109 25.3622 7.31721C25.3564 7.30971 25.3498 7.30284 25.3435 7.29577C25.3385 7.29027 25.3337 7.28465 25.3284 7.2794C25.3231 7.27415 25.3159 7.2684 25.3096 7.26302C25.3034 7.25765 25.2967 7.25177 25.2897 7.24659C25.2828 7.2414 25.2766 7.23765 25.2699 7.23334C25.2644 7.22977 25.2594 7.22571 25.2537 7.2224L21.0642 4.80309C21.06 4.80067 21.0559 4.79836 21.0517 4.79615L13.2212 0.275338C13.1642 0.242425 13.0995 0.225098 13.0337 0.225098C12.9679 0.225098 12.9032 0.242425 12.8462 0.275338L0.819313 7.21909C0.760456 7.25145 0.711372 7.29903 0.677191 7.35685C0.643009 7.41467 0.624984 7.48061 0.625 7.54777V21.4431C0.624958 21.509 0.642265 21.5737 0.67518 21.6307C0.708096 21.6878 0.755458 21.7352 0.8125 21.7681L12.8462 28.7155C12.9032 28.7484 12.9679 28.7658 13.0337 28.7658C13.0995 28.7658 13.1642 28.7484 13.2212 28.7155L19.2581 25.2301C19.6581 25.965 20.1929 26.5895 20.7608 26.9762L24.7721 29.7092C24.8343 29.7516 24.9078 29.7743 24.9832 29.7743C25.0585 29.7743 25.132 29.7516 25.1943 29.7092L29.2055 26.9763C30.4221 26.1476 31.375 24.3471 31.375 22.8771V17.2533C31.375 17.1831 31.3553 17.1144 31.3183 17.0549C31.2812 16.9954 31.2281 16.9475 31.1652 16.9166ZM24.3163 7.54715L13.0337 14.0612L9.59375 12.0751L20.8768 5.5609L24.3163 7.54715ZM6.15106 10.9535L8.44687 12.279V19.3232L7.51438 18.2639C7.4627 18.2053 7.39401 18.1643 7.31791 18.1465C7.2418 18.1288 7.16206 18.1353 7.08981 18.1651L6.15106 18.5526V10.9535ZM6.52606 10.3041L17.809 3.79009L20.1264 5.12803L8.84375 11.6421L6.52606 10.3041ZM13.0337 1.03315L17.059 3.35709L5.77631 9.87109L1.75131 7.54715L13.0337 1.03315ZM1.375 8.19602L5.40106 10.5205V19.1133C5.40106 19.175 5.41625 19.2357 5.44529 19.29C5.47433 19.3444 5.51632 19.3908 5.56755 19.425C5.61878 19.4593 5.67766 19.4804 5.739 19.4865C5.80033 19.4926 5.86222 19.4835 5.91919 19.46L7.1285 18.9605L8.54037 20.5645C8.59074 20.6216 8.65731 20.6621 8.73121 20.6804C8.80512 20.6988 8.88286 20.6942 8.9541 20.6673C9.02534 20.6404 9.08671 20.5924 9.13003 20.5298C9.17335 20.4672 9.19658 20.3929 9.19662 20.3167V12.7122L12.6584 14.7109V27.7412L1.375 21.2266V8.19602ZM13.4087 14.7107L24.6924 8.19602V14.0257L18.8015 16.908C18.7384 16.9388 18.6853 16.9867 18.6482 17.0463C18.611 17.1059 18.5913 17.1746 18.5913 17.2448V22.8771C18.6026 23.4509 18.7206 24.0176 18.9393 24.5481L13.4087 27.7412V14.7107ZM30.625 22.8771C30.625 24.0833 29.7816 25.6764 28.7833 26.3565L24.9832 28.9455L21.1833 26.3564C20.6359 25.9836 20.1179 25.3307 19.7622 24.5651C19.4909 23.9813 19.3415 23.3818 19.3415 22.8771V17.4788L24.9829 14.7185L30.625 17.4872V22.8771Z" fill="#EBEBEB" stroke="#EBEBEB" stroke-width="0.2"/>
<path d="M23.1459 21.437C23.1107 21.4023 23.069 21.3749 23.0232 21.3563C22.9774 21.3378 22.9283 21.3285 22.8789 21.329C22.8295 21.3295 22.7807 21.3397 22.7352 21.3591C22.6898 21.3785 22.6486 21.4067 22.6141 21.4421C22.5796 21.4775 22.5524 21.5193 22.5342 21.5653C22.5159 21.6112 22.5069 21.6602 22.5076 21.7097C22.5084 21.7591 22.5189 21.8078 22.5385 21.8532C22.5582 21.8985 22.5866 21.9395 22.6222 21.9738L24.1203 23.435C24.1903 23.5033 24.2843 23.5415 24.3821 23.5415C24.48 23.5415 24.5739 23.5033 24.6439 23.435L27.3432 20.8026C27.3788 20.7683 27.4072 20.7273 27.4269 20.6819C27.4465 20.6366 27.457 20.5878 27.4578 20.5384C27.4585 20.489 27.4495 20.4399 27.4312 20.394C27.4129 20.3481 27.3858 20.3062 27.3513 20.2709C27.3167 20.2355 27.2756 20.2073 27.2301 20.1879C27.1847 20.1685 27.1359 20.1582 27.0865 20.1577C27.037 20.1573 26.988 20.1665 26.9422 20.1851C26.8964 20.2036 26.8547 20.231 26.8195 20.2657L24.3824 22.6427L23.1459 21.437Z" fill="#EBEBEB" stroke="#EBEBEB" stroke-width="0.2"/>
</svg>
