<svg width="63" height="49" viewBox="0 0 63 49" fill="none" xmlns="http://www.w3.org/2000/svg">
<path d="M57.7396 29.1296C57.7396 31.2717 56.0155 33.0111 53.8895 33.0111C51.7631 33.0111 50.039 31.2731 50.039 29.1296C50.039 26.9847 51.7631 25.2467 53.8895 25.2467C56.016 25.2467 57.7396 26.9847 57.7396 29.1296ZM54.7143 19.6065H7.97541L15.6302 3.19009H15.6706C16.0101 2.34105 16.8632 1.73895 17.8649 1.73895C17.8837 1.73895 17.9026 1.74254 17.9214 1.74254V1.73805H44.7701V1.7412C44.789 1.7412 44.8074 1.7376 44.8267 1.7376C45.8284 1.7376 46.6828 2.34105 47.0222 3.18874H47.0613L54.7143 19.6065ZM9.16478 25.2467C11.2912 25.2467 13.0149 26.9847 13.0149 29.1296C13.0149 31.2717 11.2912 33.0111 9.16478 33.0111C7.03971 33.0111 5.31469 31.2731 5.31469 29.1296C5.31469 26.9847 7.03881 25.2467 9.16478 25.2467ZM62.9969 34.2948H63V23.9648H62.9969C62.9973 23.9437 63 23.9226 63 23.9006C63 21.7414 61.2674 19.9913 59.118 19.959V19.9545H57.5353L49.0701 1.80181H49.027C48.6525 0.865216 47.7186 0.19712 46.6182 0.179609V0.178711H16.3832V0.180507C15.2841 0.199364 14.3511 0.866114 13.9771 1.80271H13.9317L5.46645 19.9554H3.94572C1.76633 19.9554 0 21.7212 0 23.9015C0 23.9235 0.00314293 23.9446 0.00314293 23.9657H0V34.2956H0.00314293C0.00314293 34.3163 0 34.3374 0 34.3585C0 36.5384 1.76767 38.3047 3.94572 38.3047C4.17965 38.3047 4.40818 38.28 4.63133 38.2396H5.16473V44.4132C5.14542 44.5676 5.1342 44.7221 5.1342 44.8797C5.1342 47.0218 6.93869 48.7612 9.16523 48.7612C11.3913 48.7612 13.1967 47.0232 13.1967 44.8797C13.1967 44.7207 13.1841 44.5676 13.1648 44.4132V38.2396H49.8177V44.4132C49.7984 44.5676 49.7871 44.7221 49.7871 44.8797C49.7871 47.0218 51.5925 48.7617 53.8186 48.7617C56.0443 48.7617 57.8496 47.0236 57.8496 44.8797C57.8496 44.7207 57.838 44.5676 57.8191 44.4132V38.2396H58.3687C58.5914 38.28 58.8204 38.3051 59.0543 38.3051C61.2337 38.3051 62.9995 36.5384 62.9995 34.359C62.9995 34.337 62.9973 34.3159 62.9969 34.2948Z" fill="#60646B"/>
</svg>
