<svg width="16" height="16" viewBox="0 0 16 16" fill="none" xmlns="http://www.w3.org/2000/svg">
<path d="M13.3535 6.35378L8.35354 11.3538C8.3071 11.4003 8.25196 11.4372 8.19126 11.4623C8.13056 11.4875 8.0655 11.5004 7.99979 11.5004C7.93408 11.5004 7.86902 11.4875 7.80832 11.4623C7.74762 11.4372 7.69248 11.4003 7.64604 11.3538L2.64604 6.35378C2.55222 6.25996 2.49951 6.13272 2.49951 6.00003C2.49951 5.86735 2.55222 5.7401 2.64604 5.64628C2.73986 5.55246 2.86711 5.49976 2.99979 5.49976C3.13247 5.49976 3.25972 5.55246 3.35354 5.64628L7.99979 10.2932L12.646 5.64628C12.6925 5.59983 12.7476 5.56298 12.8083 5.53784C12.869 5.5127 12.9341 5.49976 12.9998 5.49976C13.0655 5.49976 13.1305 5.5127 13.1912 5.53784C13.2519 5.56298 13.3071 5.59983 13.3535 5.64628C13.4 5.69274 13.4368 5.74789 13.462 5.80859C13.4871 5.86928 13.5001 5.93434 13.5001 6.00003C13.5001 6.06573 13.4871 6.13079 13.462 6.19148C13.4368 6.25218 13.4 6.30733 13.3535 6.35378Z" fill="#0059A1"/>
</svg>
