<svg width="18" height="18" viewBox="0 0 18 18" fill="none" xmlns="http://www.w3.org/2000/svg">
<path fill-rule="evenodd" clip-rule="evenodd" d="M9 2.25C5.27208 2.25 2.25 5.27208 2.25 9C2.25 12.7279 5.27208 15.75 9 15.75C12.7279 15.75 15.75 12.7279 15.75 9C15.75 5.27208 12.7279 2.25 9 2.25ZM0.75 9C0.75 4.44365 4.44365 0.75 9 0.75C13.5563 0.75 17.25 4.44365 17.25 9C17.25 13.5563 13.5563 17.25 9 17.25C4.44365 17.25 0.75 13.5563 0.75 9Z" fill="#233265"/>
<path fill-rule="evenodd" clip-rule="evenodd" d="M12.7107 5.29C12.9115 5.49088 12.9817 5.788 12.8918 6.0575L11.3018 10.8275C11.2272 11.0515 11.0515 11.2272 10.8275 11.3018L6.0575 12.8918C5.788 12.9817 5.49088 12.9115 5.29 12.7107C5.08913 12.5098 5.01899 12.2127 5.10882 11.9432L6.69882 7.17316C6.77347 6.94921 6.94921 6.77347 7.17316 6.69882L11.9432 5.10882C12.2127 5.01899 12.5098 5.08913 12.7107 5.29ZM8.00326 8.00326L7.00619 10.9945L9.99741 9.99741L10.9945 7.00619L8.00326 8.00326Z" fill="#233265"/>
</svg>
