<svg width="22" height="24" viewBox="0 0 22 24" fill="none" xmlns="http://www.w3.org/2000/svg">
<path d="M20.2902 13.1613V12.3871C20.2902 11.2387 19.4513 10.2847 18.3547 10.0993V9.67742C18.3547 9.46384 18.1812 9.29032 17.9676 9.29032H15.8917C15.3942 7.19645 13.5884 5.6078 11.3869 5.43901V4.61038C12.4836 4.42534 13.3224 3.4714 13.3224 2.32258H12.5482C12.5482 3.17654 11.8538 3.87097 10.9998 3.87097C10.1459 3.87097 9.45146 3.17654 9.45146 2.32258C9.45146 1.46862 10.1459 0.774194 10.9998 0.774194V0C9.71891 0 8.67726 1.04165 8.67726 2.32258C8.67726 3.47102 9.5161 4.42496 10.6127 4.61038V5.43901C8.41132 5.6078 6.6055 7.19645 6.10802 9.29032H4.0321C3.81852 9.29032 3.645 9.46384 3.645 9.67742V10.0095C2.97911 9.83657 2.48371 9.23532 2.48371 8.51613V7.74194C3.33767 7.74194 4.0321 7.0475 4.0321 6.19355C4.0321 6.09091 3.99146 5.99225 3.91869 5.91986L3.1445 5.14567L2.59712 5.69304L3.24392 6.33984C3.1755 6.69708 2.86079 6.96774 2.48371 6.96774H1.70952C1.33244 6.96774 1.01774 6.69708 0.949313 6.33984L1.59611 5.69304L1.04873 5.14567L0.27454 5.91986C0.20177 5.99225 0.161133 6.09091 0.161133 6.19355C0.161133 7.0475 0.855563 7.74194 1.70952 7.74194V8.51613C1.70952 9.66457 2.54836 10.6185 3.645 10.8039V11.2258C3.645 11.4394 3.81852 11.6129 4.0321 11.6129H5.96758V17.0323H5.19339V16.2581H4.4192V17.1341C4.1629 17.2003 3.91869 17.2963 3.69226 17.4224L3.21689 16.4722L2.52435 16.8187L3.06001 17.89C2.91031 18.0329 2.77441 18.1898 2.65553 18.3597L1.92405 17.8718L1.49461 18.516L2.29489 19.0494C2.21229 19.27 2.15389 19.5015 2.12327 19.7423H1.32242V20.5165H2.12327C2.15351 20.7573 2.21229 20.9892 2.29489 21.2094L1.49461 21.7428L1.92405 22.387L2.65553 21.8993C2.77441 22.0692 2.91031 22.2259 3.06001 22.3688L2.52435 23.4403L3.21689 23.7868L3.69226 22.8364C3.91832 22.9621 4.16252 23.0582 4.4192 23.1247V24H5.19339V23.2258H5.96758V24H6.74178V23.2258H7.51597V24H8.29017V23.2258H9.06436V24H9.83855V23.2258H10.6127V24H11.3869V23.2258H12.1611V24H12.9353V23.2258H13.7095V24H14.4837V23.2258H15.2579V24H16.0321V23.2258H16.8063V24H17.5805V23.1239C17.8368 23.0578 18.081 22.9618 18.3074 22.8357L18.7828 23.7858L19.4753 23.4394L18.9397 22.3681C19.0894 22.2252 19.2253 22.0683 19.3442 21.8984L20.0756 22.3862L20.5051 21.7421L19.7048 21.2087C19.7874 20.9881 19.8458 20.7566 19.8764 20.5158H20.6773V19.7416H19.8764C19.8462 19.5008 19.7874 19.2688 19.7048 19.0486L20.5051 18.5152L20.0756 17.8711L19.3442 18.3587C19.2253 18.1888 19.0894 18.0321 18.9397 17.8892L19.4753 16.8177L18.7828 16.4713L18.3074 17.4216C18.0814 17.2959 17.8372 17.1999 17.5805 17.1334V16.2581H16.8063V17.0323H16.0321V11.6129H17.9676C18.1812 11.6129 18.3547 11.4394 18.3547 11.2258V10.8937C19.0206 11.0667 19.516 11.6679 19.516 12.3871V13.1613C18.662 13.1613 17.9676 13.8557 17.9676 14.7097C17.9676 14.8123 18.0082 14.911 18.081 14.9834L18.8552 15.7576L19.4026 15.2102L18.7558 14.5634C18.8242 14.2061 19.1389 13.9355 19.516 13.9355H20.2902C20.6672 13.9355 20.982 14.2061 21.0504 14.5634L20.4036 15.2102L20.951 15.7576L21.7251 14.9834C21.7979 14.911 21.8386 14.8123 21.8386 14.7097C21.8386 13.8557 21.1441 13.1613 20.2902 13.1613ZM4.4192 10.8387V10.0645H5.98724C5.97722 10.1927 5.96758 10.3208 5.96758 10.4516V10.8387H4.4192ZM19.1289 20.129C19.1289 21.41 18.0872 22.4516 16.8063 22.4516H5.19339C3.91246 22.4516 2.87081 21.41 2.87081 20.129C2.87081 18.8481 3.91246 17.8065 5.19339 17.8065H16.8063C18.0872 17.8065 19.1289 18.8481 19.1289 20.129ZM14.4837 17.0323V16.2581H13.7095V17.0323H12.9353V16.2581H12.1611V17.0323H11.3869V16.2581H10.6127V17.0323H9.83855V16.2581H9.06436V17.0323H8.29017V16.2581H7.51597V17.0323H6.74178V10.4516C6.74178 8.10389 8.65212 6.19355 10.9998 6.19355C13.3476 6.19355 15.2579 8.10389 15.2579 10.4516V17.0323H14.4837ZM17.5805 10.8387H16.0321V10.4516C16.0321 10.3208 16.0225 10.1927 16.0124 10.0645H17.5805V10.8387Z" fill="white"/>
</svg>
