<svg width="11" height="11" viewBox="0 0 11 11" fill="none" xmlns="http://www.w3.org/2000/svg">
<path d="M5.5001 0.916748C5.50005 0.916748 5.49999 0.916748 5.49995 0.916748C5.49993 0.916748 5.49993 0.916748 5.4999 0.916748C5.49988 0.916748 5.49986 0.916748 5.49984 0.916748C3.98154 0.916812 2.60706 1.53199 1.61194 2.52665C1.6116 2.527 1.61121 2.52727 1.61087 2.52762C1.61051 2.52798 1.61023 2.52837 1.60986 2.52874C0.616333 3.52286 0.00154685 4.8955 0.000236324 6.4118C0.000236324 6.41343 0 6.41502 0 6.41665C0 6.41822 0.00021484 6.41972 0.000236324 6.42127C0.00131052 7.71463 0.450584 8.94003 1.25737 9.9168C1.34445 10.0222 1.47402 10.0833 1.61074 10.0833H9.38898C9.5257 10.0833 9.65527 10.0222 9.74235 9.9168C10.5503 8.93864 11 7.71147 11 6.41665C11 3.3792 8.53755 0.916748 5.5001 0.916748ZM9.16679 9.1666H1.83293C1.33276 8.50109 1.02272 7.71298 0.93956 6.87497H2.29163C2.54476 6.87497 2.74995 6.66978 2.74995 6.41665C2.74995 6.16353 2.54476 5.95833 2.29163 5.95833H0.939581C1.03108 5.03656 1.39569 4.19523 1.95128 3.51623L2.25893 3.82388C2.43792 4.00286 2.72812 4.00286 2.90711 3.82388C3.08609 3.64489 3.08609 3.35469 2.90711 3.1757L2.59944 2.86803C3.27844 2.31237 4.11975 1.94772 5.04156 1.85618V3.2084C5.04156 3.46153 5.24676 3.66672 5.49988 3.66672C5.75301 3.66672 5.9582 3.46153 5.9582 3.2084V1.85614C6.87999 1.94764 7.72135 2.31228 8.40042 2.86795L8.09266 3.1757C7.91367 3.35469 7.91367 3.64489 8.09266 3.82388C8.27164 4.00286 8.56185 4.00286 8.74083 3.82388L9.04861 3.5161C9.60434 4.19514 9.96903 5.03654 10.0606 5.95833H8.70815C8.45503 5.95833 8.24983 6.16353 8.24983 6.41665C8.24983 6.66978 8.45503 6.87497 8.70815 6.87497H10.0606C9.97736 7.71278 9.66715 8.50092 9.16679 9.1666Z" fill="white"/>
<path d="M6.87469 4.74057L4.28241 6.03717L5.57856 7.33332L6.87469 4.74057Z" fill="white"/>
<path d="M6.8749 7.79163H4.12494C3.87182 7.79163 3.66663 7.99682 3.66663 8.24994C3.66663 8.50307 3.87182 8.70826 4.12494 8.70826H6.8749C7.12802 8.70826 7.33321 8.50307 7.33321 8.24994C7.33321 7.99682 7.12802 7.79163 6.8749 7.79163Z" fill="white"/>
</svg>
