<svg width="10" height="11" viewBox="0 0 10 11" fill="none" xmlns="http://www.w3.org/2000/svg">
<path d="M4.74023 6.35485C5.28954 6.35485 5.73646 5.90793 5.73646 5.35862C5.73646 4.80931 5.28954 4.3624 4.74023 4.3624C4.19092 4.3624 3.744 4.80931 3.744 5.35862C3.744 5.90793 4.19092 6.35485 4.74023 6.35485ZM4.74023 4.67699C5.11607 4.67699 5.42186 4.98278 5.42186 5.35862C5.42186 5.73446 5.11607 6.04025 4.74023 6.04025C4.36439 6.04025 4.0586 5.73446 4.0586 5.35862C4.0586 4.98278 4.36439 4.67699 4.74023 4.67699Z" fill="white"/>
<path d="M1.37403 4.18412C1.37403 3.81984 1.07766 3.52347 0.713375 3.52347C0.349091 3.52347 0.0527191 3.81984 0.0527191 4.18412C0.0527191 4.54841 0.349091 4.84478 0.713375 4.84478C1.07766 4.84478 1.37403 4.54841 1.37403 4.18412ZM0.367317 4.18412C0.367317 3.99331 0.522561 3.83807 0.713375 3.83807C0.904189 3.83807 1.05943 3.99331 1.05943 4.18412C1.05943 4.37494 0.904189 4.53018 0.713375 4.53018C0.522561 4.53018 0.367317 4.37494 0.367317 4.18412Z" fill="white"/>
<path d="M7.59259 3.16695C7.95687 3.16695 8.25324 2.87058 8.25324 2.5063C8.25324 2.14201 7.95687 1.84564 7.59259 1.84564C7.2283 1.84564 6.93193 2.14201 6.93193 2.5063C6.93193 2.87058 7.2283 3.16695 7.59259 3.16695ZM7.59259 2.16024C7.7834 2.16024 7.93864 2.31548 7.93864 2.5063C7.93864 2.69711 7.7834 2.85236 7.59259 2.85236C7.40177 2.85236 7.24653 2.69711 7.24653 2.5063C7.24653 2.31548 7.40177 2.16024 7.59259 2.16024Z" fill="white"/>
<path d="M4.39417 9.55329C4.39417 9.18901 4.0978 8.89264 3.73352 8.89264C3.36923 8.89264 3.07286 9.18901 3.07286 9.55329C3.07286 9.91758 3.36923 10.214 3.73352 10.214C4.0978 10.214 4.39417 9.91758 4.39417 9.55329ZM3.73352 9.89935C3.5427 9.89935 3.38746 9.74411 3.38746 9.55329C3.38746 9.36248 3.5427 9.20724 3.73352 9.20724C3.92433 9.20724 4.07957 9.36248 4.07957 9.55329C4.07957 9.74411 3.92433 9.89935 3.73352 9.89935Z" fill="white"/>
<path d="M6.14176 8.22549C6.05713 8.20598 5.97267 8.25877 5.95315 8.34346C5.66045 9.61364 5.19568 10.4027 4.74023 10.4027C4.63343 10.4027 4.52401 10.3581 4.415 10.2701C4.34738 10.2155 4.24836 10.2261 4.19379 10.2937C4.13922 10.3612 4.14977 10.4603 4.21737 10.5149C4.38377 10.6492 4.55967 10.7173 4.74023 10.7173C5.07423 10.7173 5.38186 10.4917 5.6546 10.0468C5.89453 9.65538 6.10378 9.0908 6.25971 8.4141C6.27922 8.32945 6.22641 8.24501 6.14176 8.22549Z" fill="white"/>
<path d="M9.36245 7.12873C9.22858 6.80819 8.98393 6.45018 8.63529 6.06463C8.42438 5.83139 8.18137 5.59475 7.91192 5.35878C8.35513 4.97119 8.71981 4.58749 8.98823 4.22415C9.45998 3.58556 9.59578 3.05137 9.38097 2.67933C9.2466 2.44654 8.99137 2.30078 8.62243 2.24602C8.53638 2.23335 8.45649 2.2926 8.44374 2.37853C8.43099 2.46445 8.49032 2.54447 8.57625 2.55722C8.84546 2.59717 9.02455 2.69118 9.10853 2.83662C9.33171 3.22316 8.88829 4.09835 7.66996 5.15297C7.32736 4.86968 6.94852 4.58908 6.54229 4.31823C6.51087 3.83138 6.45733 3.36332 6.3834 2.92528C6.48709 2.88948 6.5898 2.85571 6.69116 2.82431C6.77415 2.79862 6.82061 2.71051 6.79491 2.62754C6.76922 2.54455 6.68107 2.49814 6.59814 2.52379C6.50844 2.55156 6.41758 2.58144 6.32614 2.61257C6.25647 2.26095 6.173 1.93192 6.07639 1.63245C5.91681 1.13773 5.72908 0.746855 5.51844 0.470659C5.28023 0.158348 5.0184 0 4.74023 0C4.41429 0 4.11309 0.215248 3.84501 0.639766C3.60957 1.01259 3.4021 1.55233 3.24501 2.20061C3.22454 2.28503 3.27641 2.37008 3.36085 2.39052C3.44522 2.41099 3.53031 2.35913 3.55076 2.27469C3.84371 1.06567 4.2995 0.314598 4.74023 0.314598C5.1037 0.314598 5.49126 0.843353 5.77696 1.72903C5.87415 2.03029 5.95771 2.36278 6.02673 2.71928C5.60859 2.87488 5.17654 3.06248 4.74053 3.27794C3.8335 2.82949 2.94862 2.50321 2.18134 2.33843C1.67311 2.22928 1.24075 2.19642 0.896225 2.24073C0.506669 2.29086 0.238631 2.43841 0.0995371 2.67933C-0.0126485 2.87362 -0.0300981 3.11221 0.0476704 3.38843C0.0712024 3.47205 0.158052 3.52073 0.241714 3.49722C0.325335 3.47366 0.374034 3.38679 0.350502 3.30317C0.29658 3.11169 0.303816 2.95472 0.371979 2.83665C0.553712 2.52188 1.20541 2.45061 2.11527 2.64604C2.79862 2.79279 3.5806 3.07308 4.38923 3.45716C4.20028 3.55651 4.01116 3.66056 3.82266 3.76939C3.70902 3.83499 3.59501 3.90265 3.48379 3.97046C3.40961 4.01567 3.38614 4.11247 3.43136 4.18665C3.46099 4.23524 3.51276 4.26209 3.56582 4.26209C3.59371 4.26209 3.62198 4.25466 3.64755 4.23908C3.75665 4.17257 3.86848 4.10619 3.97996 4.04183C4.23319 3.89562 4.4874 3.75821 4.74059 3.62985C4.99306 3.75796 5.24707 3.89552 5.50051 4.04183C5.75408 4.18822 6.00032 4.3395 6.23759 4.49416C6.2529 4.77698 6.26079 5.06589 6.26079 5.35867C6.26079 6.04961 6.21742 6.71992 6.13189 7.35098C6.12023 7.43705 6.18055 7.51631 6.26664 7.52797C6.27381 7.52894 6.28092 7.52942 6.28797 7.52942C6.36545 7.52942 6.43296 7.47214 6.44365 7.39322C6.53107 6.74821 6.57541 6.06369 6.57541 5.35867C6.57541 5.14087 6.57113 4.92503 6.56274 4.71205C6.86964 4.92371 7.15853 5.1404 7.42516 5.35863C7.24168 5.50842 7.04328 5.66125 6.8292 5.81639C6.75886 5.86738 6.74317 5.96572 6.79416 6.03606C6.82493 6.07851 6.87293 6.10106 6.92165 6.10106C6.95364 6.10106 6.98594 6.09133 7.01383 6.07111C7.24582 5.90297 7.46482 5.73367 7.66964 5.56454C7.94372 5.80246 8.18976 6.04097 8.40196 6.27564C9.02613 6.96591 9.29026 7.56593 9.10853 7.88068C8.9268 8.19542 8.2751 8.26667 7.36524 8.07128C6.68197 7.92453 5.90005 7.64429 5.09151 7.26027C5.28015 7.16105 5.4692 7.05685 5.65783 6.94794C5.72111 6.9114 5.78526 6.8738 5.84854 6.83613C5.92318 6.79169 5.9477 6.69517 5.90326 6.6205C5.85884 6.54586 5.76232 6.52134 5.68763 6.56578C5.62555 6.60274 5.56259 6.63965 5.50053 6.67547C5.24697 6.82187 4.99283 6.95949 4.74025 7.08764C4.48767 6.95949 4.23354 6.82187 3.97998 6.67547C3.72643 6.52908 3.48029 6.37774 3.24279 6.22289C3.22752 5.94024 3.2197 5.65156 3.2197 5.35863C3.2197 4.66769 3.26307 3.99739 3.3486 3.36632C3.36026 3.28025 3.29994 3.20099 3.21385 3.18933C3.12775 3.17765 3.04851 3.23801 3.03685 3.32408C2.94944 3.96909 2.9051 4.65362 2.9051 5.35863C2.9051 5.5765 2.90938 5.79217 2.9177 6.00494C2.61177 5.79384 2.32318 5.57734 2.05577 5.35834C2.23914 5.20865 2.43742 5.05592 2.6513 4.90091C2.72165 4.84993 2.73734 4.75158 2.68635 4.68124C2.63538 4.61091 2.53704 4.59518 2.46668 4.64619C2.23492 4.81417 2.01613 4.98329 1.81147 5.15225C1.70103 5.05634 1.59432 4.96018 1.49274 4.86393C1.42968 4.80416 1.33012 4.80685 1.27037 4.86991C1.21061 4.93298 1.21328 5.03254 1.27634 5.09229C1.37005 5.18109 1.46787 5.26979 1.56886 5.35825C1.12552 5.74592 0.760738 6.12971 0.49226 6.49313C0.0205102 7.13172 -0.115291 7.66591 0.0994952 8.03798C0.238568 8.27887 0.506627 8.42644 0.896183 8.47657C0.99526 8.48932 1.10162 8.49567 1.21493 8.49567C1.49566 8.49567 1.81923 8.45662 2.18129 8.37887C2.48893 8.31281 2.81557 8.22059 3.15485 8.10513C3.18753 8.26969 3.22301 8.43013 3.26183 8.58506C3.27974 8.6565 3.34384 8.70417 3.41429 8.70417C3.42695 8.70417 3.43981 8.70262 3.45265 8.69941C3.53692 8.67829 3.58809 8.59286 3.56699 8.50859C3.52584 8.34435 3.4883 8.17395 3.45426 7.99844C3.87066 7.84343 4.30282 7.65574 4.74023 7.43951C5.64718 7.88789 6.53195 8.21413 7.29915 8.3789C7.66125 8.45666 7.98476 8.4957 8.26551 8.4957C8.37881 8.4957 8.48521 8.48932 8.58426 8.47659C8.97382 8.42646 9.24186 8.2789 9.38095 8.038C9.52004 7.79708 9.51381 7.49116 9.36245 7.12873ZM5.65781 3.76937C5.46937 3.66056 5.2805 3.55645 5.09206 3.45733C5.42761 3.29808 5.75947 3.15626 6.08283 3.03413C6.13845 3.37396 6.18162 3.73226 6.21146 4.10364C6.03122 3.98988 5.84644 3.87826 5.65781 3.76937ZM2.11525 8.07128C1.20539 8.26669 0.553691 8.19542 0.371958 7.88068C0.148782 7.49414 0.592239 6.61889 1.81068 5.56421C2.15451 5.84865 2.53306 6.129 2.93824 6.39913C2.96955 6.88535 3.02301 7.35289 3.09745 7.79255C2.7543 7.91098 2.42465 8.00484 2.11525 8.07128ZM3.39822 7.68372C3.34218 7.34257 3.29877 6.98456 3.26894 6.61358C3.44927 6.72738 3.634 6.83902 3.82266 6.94794C4.01129 7.05685 4.20034 7.16105 4.38897 7.26027C4.05235 7.42015 3.72041 7.56195 3.39822 7.68372Z" fill="white"/>
<path d="M4.74023 5.34817C4.74602 5.34817 4.75072 5.35287 4.75072 5.35865C4.75072 5.44552 4.82115 5.51595 4.90802 5.51595C4.99489 5.51595 5.06531 5.44552 5.06531 5.35865C5.06531 5.1794 4.91949 5.03357 4.74023 5.03357C4.65336 5.03357 4.58293 5.104 4.58293 5.19087C4.58293 5.27774 4.65336 5.34817 4.74023 5.34817Z" fill="white"/>
</svg>
