<svg width="13" height="12" viewBox="0 0 13 12" fill="none" xmlns="http://www.w3.org/2000/svg">
<path opacity="0.9" d="M7.42548 0C4.34571 0 1.85714 2.49476 1.85714 5.57143H0L2.41119 7.98262L2.45452 8.07238L4.95238 5.57143H3.09524C3.09524 3.17881 5.03595 1.2381 7.42857 1.2381C9.82119 1.2381 11.7619 3.17881 11.7619 5.57143C11.7619 7.96405 9.82119 9.90476 7.42857 9.90476C6.23071 9.90476 5.15048 9.41571 4.36738 8.63262L3.49143 9.50857C4.49738 10.5176 5.88714 11.1429 7.42548 11.1429C10.5052 11.1429 13 8.6481 13 5.57143C13 2.49476 10.5052 0 7.42548 0ZM6.80952 3.09524V6.19048L9.45905 7.76286L9.90476 7.01071L7.7381 5.72619V3.09524H6.80952Z" fill="white"/>
</svg>
