<svg width="45" height="58" viewBox="0 0 45 58" fill="none" xmlns="http://www.w3.org/2000/svg">
<path d="M42.4097 55.3915V8.84832L39.8194 6.23986V0H5.18059V6.23986L2.59029 8.84832V55.3915H0V58H45V55.3915H42.4097ZM32.8104 1.68783C33.8262 1.68783 34.6388 2.50617 34.6388 3.5291C34.6388 4.55203 33.8262 5.37037 32.8104 5.37037C31.7946 5.37037 30.9819 4.55203 30.9819 3.5291C30.9819 2.50617 31.8454 1.68783 32.8104 1.68783ZM27.6806 1.68783C28.6964 1.68783 29.509 2.50617 29.509 3.5291C29.509 4.55203 28.6964 5.37037 27.6806 5.37037C26.6648 5.37037 25.8521 4.55203 25.8521 3.5291C25.8521 2.50617 26.6648 1.68783 27.6806 1.68783ZM22.5 1.68783C23.5158 1.68783 24.3284 2.50617 24.3284 3.5291C24.3284 4.55203 23.5158 5.31922 22.5 5.31922C21.4842 5.31922 20.6716 4.50088 20.6716 3.47795C20.6716 2.45503 21.535 1.68783 22.5 1.68783ZM17.3194 1.68783C18.3352 1.68783 19.1479 2.50617 19.1479 3.5291C19.1479 4.55203 18.3352 5.37037 17.3194 5.37037C16.3036 5.37037 15.491 4.55203 15.491 3.5291C15.491 2.50617 16.3544 1.68783 17.3194 1.68783ZM12.1896 1.68783C13.2054 1.68783 14.0181 2.50617 14.0181 3.5291C14.0181 4.55203 13.2054 5.37037 12.1896 5.37037C11.1738 5.37037 10.3612 4.55203 10.3612 3.5291C10.3612 2.50617 11.1738 1.68783 12.1896 1.68783ZM30.2709 23.9365V29.1534H25.0903V23.9365H30.2709ZM25.0903 19.8448V14.6279H30.2709V19.8448H25.0903ZM25.1919 33.194H30.3725V38.4109H25.1919V33.194ZM39.8194 19.4356V24.6526H34.6896V19.4356H39.8194ZM34.6896 16.6226V11.4568H39.8702V16.6737H34.6896V16.6226ZM39.8194 27.2099V32.4268H34.6896V27.2099H39.8194ZM39.8194 34.7795V39.9965H34.6896V34.7795H39.8194ZM39.8194 42.6049V47.8219H34.6896V42.6049H39.8194ZM14.7799 29.1023V23.9365H19.9605V29.1534L14.7799 29.1023ZM19.7065 33.194V38.4109H14.5767V33.194H19.7065ZM14.7799 19.8448V14.6279H19.9605V19.8448H14.7799ZM5.18059 11.4568H10.3104V16.6737H5.18059V11.4568ZM5.18059 19.4356H10.3104V24.6526H5.18059V19.4356ZM5.18059 27.2099H10.3104V32.4268H5.18059V27.2099ZM5.18059 34.6261H10.3104V39.843H5.18059V34.6261ZM5.18059 42.4515H10.3104V47.6684H5.18059V42.4515ZM17.3702 44.6508H27.6806V55.3915H17.3702V44.6508Z" fill="#60646B"/>
</svg>
