<!-- Generated by IcoMoon.io -->
<svg version="1.1" xmlns="http://www.w3.org/2000/svg" width="32" height="32" viewBox="0 0 32 32">
<title>mail</title>
<path d="M29.188 4.75h-26.375c-1.554 0-2.813 1.266-2.813 2.813v16.875c0 1.555 1.268 2.812 2.813 2.812h26.375c1.541 0 2.812-1.252 2.812-2.812v-16.875c0-1.543-1.254-2.813-2.812-2.813zM28.794 6.625c-0.575 0.572-10.463 10.408-10.805 10.748-0.531 0.531-1.238 0.824-1.989 0.824s-1.457-0.292-1.99-0.825c-0.23-0.228-10.009-9.957-10.803-10.746h25.587zM1.875 24.056v-16.111l8.102 8.060-8.102 8.051zM3.208 25.375l8.099-8.048 1.379 1.371c0.885 0.885 2.063 1.373 3.315 1.373s2.429-0.488 3.313-1.371l1.38-1.373 8.099 8.048h-25.585zM30.125 24.056l-8.102-8.051 8.102-8.060v16.111z"></path>
</svg>
