<svg width="69" height="58" viewBox="0 0 69 58" fill="none" xmlns="http://www.w3.org/2000/svg">
<path d="M11.4315 37.9517C10.4479 38.9617 9.56048 40.0611 8.78071 41.2356C8.62655 41.4634 8.5679 41.7426 8.61733 42.0132C8.66676 42.2838 8.82035 42.5242 9.04509 42.6827C9.21791 42.7928 9.41773 42.8529 9.62256 42.8567C9.79484 42.8574 9.96457 42.8151 10.1164 42.7337C10.2683 42.6523 10.3974 42.5344 10.4922 42.3905C11.2025 41.3247 12.0083 40.3257 12.8995 39.4058C13.082 39.2055 13.1794 38.9421 13.1712 38.6713C13.163 38.4005 13.0498 38.1435 12.8555 37.9546C12.6612 37.7657 12.4011 37.6598 12.1302 37.6593C11.8592 37.6588 11.5987 37.7636 11.4037 37.9517H11.4315Z" fill="#60646B"/>
<path d="M47.1231 25.9638C46.0099 26.1795 44.7575 26.4021 43.1782 26.6595C42.9014 26.6817 42.6448 26.8129 42.4647 27.0242C42.2846 27.2356 42.1959 27.5099 42.2181 27.7866C42.2402 28.0634 42.3714 28.3201 42.5828 28.5001C42.7941 28.6802 43.0684 28.7689 43.3452 28.7468H43.5121C45.1124 28.4893 46.3856 28.2597 47.5266 28.051C47.8034 27.9975 48.0476 27.8362 48.2054 27.6027C48.3633 27.3691 48.422 27.0824 48.3684 26.8056C48.3149 26.5289 48.1537 26.2847 47.9201 26.1268C47.6866 25.9689 47.3998 25.9103 47.1231 25.9638Z" fill="#60646B"/>
<path d="M28.5259 29.3105C27.0996 29.6584 25.8056 30.0062 24.5671 30.4167C24.3292 30.4921 24.1261 30.6502 23.9948 30.8624C23.8634 31.0747 23.8125 31.3269 23.8512 31.5735C23.8899 31.8201 24.0157 32.0446 24.2058 32.2064C24.3958 32.3682 24.6376 32.4564 24.8872 32.4553C24.9935 32.4561 25.0992 32.4396 25.2003 32.4066C26.3969 32.0239 27.6423 31.7108 29.0199 31.3421C29.2893 31.2766 29.5217 31.1067 29.6658 30.8699C29.81 30.6331 29.8542 30.3487 29.7887 30.0793C29.7232 29.8099 29.5534 29.5775 29.3165 29.4334C29.0797 29.2892 28.7953 29.245 28.5259 29.3105Z" fill="#60646B"/>
<path d="M12.5237 44.088C12.4272 43.9904 12.3124 43.9129 12.1858 43.8601C12.0592 43.8072 11.9234 43.7799 11.7862 43.7799C11.649 43.7799 11.5131 43.8072 11.3865 43.8601C11.2599 43.9129 11.1451 43.9904 11.0487 44.088L8.71794 46.4188L8.4953 46.1961L6.40807 44.1089C6.21524 43.905 5.94931 43.7861 5.66878 43.7782C5.38826 43.7704 5.11611 43.8743 4.91221 44.0672C4.70831 44.26 4.58937 44.5259 4.58154 44.8065C4.57371 45.087 4.67764 45.3591 4.87047 45.563L7.20122 47.8938L4.87047 50.2245C4.77265 50.3215 4.69501 50.437 4.64203 50.5641C4.58905 50.6913 4.56177 50.8277 4.56177 50.9655C4.56177 51.1033 4.58905 51.2397 4.64203 51.3668C4.69501 51.494 4.77265 51.6094 4.87047 51.7065C4.9674 51.8028 5.08253 51.8788 5.20914 51.9302C5.33576 51.9815 5.47133 52.0072 5.60796 52.0056C5.88337 52.0057 6.14795 51.8984 6.34545 51.7065L8.6762 49.3688L8.82926 49.5288L11.0069 51.7065C11.1039 51.8028 11.219 51.8788 11.3456 51.9302C11.4722 51.9815 11.6078 52.0072 11.7444 52.0056C11.8879 52.0121 12.0312 51.9888 12.1653 51.9373C12.2993 51.8859 12.4214 51.8073 12.5237 51.7065C12.7179 51.5087 12.8267 51.2426 12.8267 50.9655C12.8267 50.6883 12.7179 50.4223 12.5237 50.2245L10.1581 47.8938L12.5237 45.563C12.7174 45.3665 12.826 45.1015 12.826 44.8255C12.826 44.5495 12.7174 44.2846 12.5237 44.088Z" fill="#60646B"/>
<path d="M68.239 12.4803C68.7424 11.4591 69.002 10.335 68.9974 9.19642C68.99 7.00655 68.1169 4.90845 66.5684 3.35997C65.0199 1.81148 62.9218 0.938306 60.7319 0.930969C58.5427 0.936471 56.4446 1.80811 54.8959 3.35549C53.3472 4.90286 52.4738 7.00023 52.4665 9.18946C52.463 10.03 52.6018 10.8651 52.877 11.6594L51.4298 11.388H51.2489H51.1237H51.0541L34.5302 14.4423L18.0132 11.388C17.9298 11.3811 17.846 11.3811 17.7627 11.388H17.5609L0.86305 14.4771C0.620421 14.5184 0.400397 14.6447 0.242336 14.8333C0.0842748 15.022 -0.00151055 15.2607 0.000325549 15.5068V56.4445C-0.00360601 56.6029 0.0281157 56.7602 0.0931459 56.9047C0.158176 57.0492 0.254852 57.1772 0.376028 57.2794C0.57221 57.4389 0.819037 57.5228 1.07177 57.5159C1.1342 57.5228 1.1972 57.5228 1.25962 57.5159L17.8184 54.4547L34.3701 57.5159C34.4947 57.5345 34.6213 57.5345 34.7458 57.5159L51.2698 54.4616L67.7868 57.5159C67.8515 57.5231 67.9169 57.5231 67.9816 57.5159C68.234 57.5204 68.48 57.4367 68.6773 57.2794C68.7884 57.172 68.8746 57.0417 68.9299 56.8974C68.9852 56.7532 69.0082 56.5986 68.9974 56.4445V15.5068C68.9981 15.2621 68.9128 15.0249 68.7564 14.8367C68.6 14.6484 68.3824 14.5212 68.1416 14.4771L67.2441 14.3102L68.1834 12.703C68.2115 12.6315 68.2302 12.5567 68.239 12.4803ZM60.725 21.6155L55.2286 11.875C55.2108 11.8228 55.1899 11.7717 55.166 11.722C54.7586 10.9503 54.5483 10.0899 54.5537 9.2173C54.5537 7.57873 55.2046 6.00728 56.3633 4.84864C57.5219 3.68999 59.0934 3.03908 60.7319 3.03908C62.3705 3.03908 63.9419 3.68999 65.1006 4.84864C66.2592 6.00728 66.9101 7.57873 66.9101 9.2173C66.9116 10.0872 66.7015 10.9444 66.2979 11.715C66.271 11.7634 66.25 11.8148 66.2353 11.8681L60.725 21.6155ZM2.08756 55.22V16.3696L16.6982 13.6701V33.8467C16.3782 34.0345 16.0651 34.2293 15.759 34.4241C15.5694 34.5466 15.4247 34.7271 15.3464 34.9388C15.2681 35.1504 15.2605 35.3817 15.3248 35.598C15.3891 35.8143 15.5217 36.004 15.7028 36.1385C15.884 36.2731 16.1038 36.3453 16.3295 36.3444C16.4562 36.3431 16.5814 36.3171 16.6982 36.2679V52.5205L2.08756 55.22ZM18.8689 35.0434C19.3351 34.7929 19.8082 34.5424 20.3091 34.3059C20.4342 34.2485 20.5466 34.1665 20.6395 34.065C20.7324 33.9634 20.804 33.8442 20.8501 33.7145C20.8961 33.5847 20.9157 33.4471 20.9076 33.3097C20.8996 33.1722 20.864 33.0378 20.8031 32.9144C20.7449 32.7899 20.6626 32.6782 20.5611 32.5856C20.4595 32.493 20.3407 32.4214 20.2114 32.3749C20.0821 32.3283 19.9449 32.3078 19.8077 32.3144C19.6704 32.321 19.5358 32.3547 19.4116 32.4134L18.862 32.6848V13.6701L33.4726 16.3696V28.3225C33.297 28.4346 33.1584 28.5961 33.0742 28.7867C32.99 28.9773 32.9641 29.1886 32.9995 29.3939C33.0254 29.5365 33.0808 29.6721 33.1623 29.7919C33.2438 29.9118 33.3495 30.0132 33.4726 30.0897V55.22L18.862 52.5205L18.8689 35.0434ZM35.5668 30.027C36.4435 29.874 37.3201 29.7209 38.1828 29.5818C38.4596 29.5375 38.7075 29.385 38.8719 29.158C39.0363 28.931 39.1037 28.6479 39.0595 28.3712C39.0152 28.0944 38.8628 27.8465 38.6357 27.6821C38.4087 27.5177 38.1257 27.4502 37.8489 27.4945C37.0975 27.6128 36.3321 27.7519 35.5668 27.8772V16.3696L50.1775 13.6701V52.5205L35.5668 55.22V30.027ZM66.8754 16.3904V55.22L52.2647 52.5205V26.7222C52.3533 26.7463 52.4443 26.7603 52.536 26.764C52.6401 26.7654 52.7437 26.7489 52.8422 26.7153C54.2017 26.3142 55.5202 25.7854 56.7801 25.1359C57.0204 25.0072 57.2009 24.7896 57.2828 24.5295C57.3647 24.2695 57.3416 23.9877 57.2184 23.7445C57.0884 23.5054 56.8707 23.3261 56.6112 23.2444C56.3516 23.1626 56.0705 23.1848 55.8269 23.3061C54.6982 23.8761 53.5198 24.3419 52.3064 24.6976V13.6701L54.0597 13.9971L59.8344 24.2523C59.9254 24.413 60.0574 24.5466 60.2169 24.6395C60.3764 24.7324 60.5578 24.7814 60.7424 24.7814C60.927 24.7814 61.1083 24.7324 61.2678 24.6395C61.4273 24.5466 61.5593 24.413 61.6503 24.2523L66.1727 16.2304L66.8754 16.3904Z" fill="#60646B"/>
<path d="M60.725 12.5083C61.4818 12.5083 62.2216 12.2839 62.8509 11.8634C63.4802 11.4429 63.9707 10.8453 64.2603 10.1461C64.5499 9.44686 64.6257 8.67746 64.478 7.93517C64.3304 7.19288 63.966 6.51105 63.4308 5.97589C62.8956 5.44073 62.2138 5.07628 61.4715 4.92863C60.7292 4.78098 59.9598 4.85676 59.2606 5.14639C58.5614 5.43601 57.9637 5.92648 57.5433 6.55576C57.1228 7.18504 56.8984 7.92487 56.8984 8.6817C56.8984 9.69658 57.3015 10.6699 58.0192 11.3875C58.7368 12.1051 59.7101 12.5083 60.725 12.5083ZM60.725 6.94234C61.069 6.94234 61.4053 7.04435 61.6913 7.23548C61.9773 7.4266 62.2003 7.69825 62.3319 8.01608C62.4636 8.3339 62.498 8.68363 62.4309 9.02104C62.3638 9.35844 62.1981 9.66836 61.9549 9.91162C61.7116 10.1549 61.4017 10.3205 61.0643 10.3876C60.7269 10.4548 60.3772 10.4203 60.0593 10.2887C59.7415 10.157 59.4699 9.93408 59.2787 9.64804C59.0876 9.362 58.9856 9.02572 58.9856 8.6817C58.9856 8.45329 59.0306 8.22711 59.118 8.01608C59.2054 7.80505 59.3335 7.6133 59.4951 7.45179C59.6566 7.29027 59.8483 7.16215 60.0593 7.07474C60.2704 6.98733 60.4966 6.94234 60.725 6.94234Z" fill="#60646B"/>
</svg>
