<svg width="7" height="11" viewBox="0 0 7 11" fill="none" xmlns="http://www.w3.org/2000/svg">
<path d="M6.72461 5.76953C6.72461 5.62305 6.66602 5.48828 6.55469 5.38281L1.91406 0.835938C1.80859 0.736328 1.67969 0.683594 1.52734 0.683594C1.22852 0.683594 0.994141 0.912109 0.994141 1.2168C0.994141 1.36328 1.05273 1.49805 1.14648 1.59766L5.41211 5.76953L1.14648 9.94141C1.05273 10.041 0.994141 10.1699 0.994141 10.3223C0.994141 10.627 1.22852 10.8555 1.52734 10.8555C1.67969 10.8555 1.80859 10.8027 1.91406 10.6973L6.55469 6.15625C6.66602 6.04492 6.72461 5.91602 6.72461 5.76953Z" fill="#698096"/>
</svg>
