<svg width="7" height="11" viewBox="0 0 7 11" fill="none" xmlns="http://www.w3.org/2000/svg">
<path d="M6.97266 5.4362C6.97266 5.14323 6.86719 4.903 6.62695 4.67448L2.19727 0.332685C2.02148 0.156904 1.80469 0.0690136 1.54688 0.0690136C1.03125 0.0690136 0.609375 0.490889 0.609375 1.00065C0.609375 1.25847 0.714844 1.4987 0.908203 1.6862L4.76953 5.43034L0.908203 9.18034C0.714844 9.3737 0.609375 9.60808 0.609375 9.87175C0.609375 10.3874 1.03125 10.8034 1.54688 10.8034C1.80469 10.8034 2.02148 10.7155 2.19727 10.5397L6.62695 6.19792C6.87305 5.96354 6.97266 5.72331 6.97266 5.4362Z" fill="#00264D"/>
</svg>
