<svg width="16" height="17" viewBox="0 0 16 17" fill="none" xmlns="http://www.w3.org/2000/svg">
<path d="M15.1285 9.60558L13.8618 5.04824C13.4905 3.71313 12.6836 2.54043 11.5693 1.71656C10.4551 0.892678 9.09739 0.4649 7.71209 0.50122C6.3268 0.53754 4.99339 1.03587 3.92383 1.91701C2.85426 2.79814 2.10992 4.01151 1.80912 5.36424L0.828451 9.77424C0.720128 10.2615 0.722633 10.7669 0.83578 11.2531C0.948927 11.7393 1.16983 12.1939 1.48217 12.5833C1.79452 12.9727 2.19033 13.2869 2.64039 13.5029C3.09045 13.7188 3.58327 13.8309 4.08245 13.8309H4.82512C4.97813 14.5844 5.38694 15.2619 5.98228 15.7485C6.57762 16.2351 7.32288 16.5009 8.09178 16.5009C8.86069 16.5009 9.60595 16.2351 10.2013 15.7485C10.7966 15.2619 11.2054 14.5844 11.3585 13.8309H11.9171C12.431 13.8309 12.9379 13.7122 13.3983 13.4839C13.8587 13.2556 14.26 12.9239 14.571 12.5148C14.882 12.1057 15.0942 11.6303 15.191 11.1256C15.2878 10.6209 15.2666 10.1007 15.1291 9.60558H15.1285ZM8.09178 15.1642C7.67961 15.1625 7.27803 15.0335 6.94199 14.7948C6.60594 14.5562 6.35184 14.2195 6.21445 13.8309H9.96912C9.83173 14.2195 9.57763 14.5562 9.24158 14.7948C8.90554 15.0335 8.50396 15.1625 8.09178 15.1642ZM13.5091 11.7076C13.3233 11.954 13.0827 12.1537 12.8062 12.2909C12.5297 12.428 12.2251 12.4988 11.9164 12.4976H4.08245C3.78297 12.4975 3.48733 12.4302 3.21735 12.3006C2.94736 12.171 2.70992 11.9825 2.52256 11.7488C2.3352 11.5152 2.20269 11.2425 2.13483 10.9508C2.06696 10.6591 2.06546 10.3559 2.13045 10.0636L3.11045 5.65291C3.34669 4.59038 3.93132 3.63731 4.77142 2.94521C5.61152 2.25311 6.65887 1.86169 7.74697 1.83319C8.83507 1.80468 9.90147 2.14072 10.7767 2.78789C11.6518 3.43506 12.2856 4.35621 12.5771 5.40491L13.8438 9.96224C13.9275 10.2592 13.9408 10.5715 13.8827 10.8745C13.8246 11.1774 13.6967 11.4627 13.5091 11.7076Z" fill="#00264D"/>
</svg>
