<svg width="16" height="17" viewBox="0 0 16 17" fill="none" xmlns="http://www.w3.org/2000/svg">
<g clip-path="url(#clip0_2_64)">
<path d="M9.9999 9.16674C9.63125 9.16674 9.33328 9.46544 9.33328 9.83336V12.5001C9.33328 12.8674 9.03457 13.1667 8.66654 13.1667H6.66656V3.1668C6.66656 2.59747 6.30389 2.08881 5.75861 1.89948L5.56122 1.83344H8.66654C9.03457 1.83344 9.33328 2.13276 9.33328 2.50018V4.50016C9.33328 4.86808 9.63125 5.16678 9.9999 5.16678C10.3685 5.16678 10.6665 4.86808 10.6665 4.50016V2.50018C10.6665 1.39754 9.76918 0.500206 8.66654 0.500206H1.49998C1.47459 0.500206 1.45335 0.511558 1.4287 0.514854C1.39659 0.512168 1.36595 0.500206 1.33336 0.500206C0.598016 0.500206 0 1.0981 0 1.83344V13.8333C0 14.4026 0.362667 14.9113 0.907949 15.1006L4.91999 16.438C5.05598 16.48 5.19123 16.5 5.33332 16.5C6.06866 16.5 6.66656 15.902 6.66656 15.1667V14.5001H8.66654C9.76918 14.5001 10.6665 13.6027 10.6665 12.5001V9.83336C10.6665 9.46544 10.3685 9.16674 9.9999 9.16674V9.16674Z" fill="white" fill-opacity="0.85"/>
<path d="M15.8045 6.69545L13.1378 4.02885C12.9473 3.83818 12.6605 3.78081 12.4112 3.88408C12.1626 3.98747 11.9999 4.23076 11.9999 4.50016V6.50014H9.33328C8.96524 6.50014 8.66654 6.79872 8.66654 7.16676C8.66654 7.5348 8.96524 7.83338 9.33328 7.83338H11.9999V9.83336C11.9999 10.1028 12.1626 10.346 12.4112 10.4494C12.6605 10.5527 12.9473 10.4953 13.1378 10.3048L15.8045 7.63807C16.0651 7.37745 16.0651 6.95607 15.8045 6.69545V6.69545Z" fill="white"/>
</g>
<defs>
<clipPath id="clip0_2_64">
<rect width="16" height="16" fill="white" transform="translate(0 0.5)"/>
</clipPath>
</defs>
</svg>
