<svg width="31" height="35" viewBox="0 0 31 35" fill="none" xmlns="http://www.w3.org/2000/svg">
<path d="M29.5443 6.02807L18.8593 0.242123C17.8457 -0.306908 16.452 0.115423 15.9029 1.12902L9.65244 12.7431H2.05047C1.07911 12.7431 0.318909 13.5033 0.318909 14.4747V17.5155V33.2685C0.318909 34.2398 1.07911 35 2.05047 35H26.3345C27.3059 35 28.0661 34.2398 28.0661 33.2685V28.8762H28.7841C29.1642 28.8762 29.4598 28.5806 29.4598 28.2005V23.1747C29.4598 22.7946 29.1642 22.499 28.7841 22.499H28.0661V17.5577C28.0661 16.7553 27.4748 16.0373 26.7146 15.8684L30.4312 8.98439C30.9802 7.92856 30.6001 6.61933 29.5443 6.02807ZM21.9423 3.45184L15.2695 15.8262H13.369L20.5064 2.69165L21.9423 3.45184ZM17.1277 1.76252C17.3389 1.38242 17.8457 1.21349 18.2258 1.42465L19.2816 2.01592L11.8486 15.8262H9.52574L17.1277 1.76252ZM1.62814 14.4325C1.62814 14.3058 1.79707 14.0946 2.00824 14.0946H8.89224L7.96311 15.7839H2.00824C1.88154 15.7839 1.75484 15.7839 1.62814 15.8262V14.4325ZM26.6724 33.2685C26.6724 33.4796 26.5035 33.6486 26.2923 33.6486H2.00824C1.79707 33.6486 1.62814 33.4796 1.62814 33.2685V17.5577C1.62814 17.3466 1.79707 17.1776 2.00824 17.1776H8.38544H11.0884H16.0296H25.5321H26.2501C26.4612 17.1776 26.6302 17.3466 26.6302 17.5577V22.499H24.0539C22.9137 22.499 22.0268 23.4281 22.0268 24.5262V26.849C22.0268 27.9893 22.9559 28.8762 24.0539 28.8762H26.6724V33.2685ZM28.0239 23.8505H28.0661V27.5247H28.0239H24.0539C23.6738 27.5247 23.3782 27.2291 23.3782 26.849V24.5262C23.3782 24.1461 23.6738 23.8505 24.0539 23.8505H28.0239ZM29.2064 8.30866L25.152 15.8262H16.7898L23.1248 4.12757L28.8685 7.25283C29.2909 7.42176 29.4176 7.92856 29.2064 8.30866Z" fill="white"/>
</svg>
