<svg width="64" height="64" viewBox="0 0 64 64" fill="none" xmlns="http://www.w3.org/2000/svg">
<path d="M49.5678 26.6841C49.4992 26.4966 49.3393 26.3572 49.144 26.3148C48.9501 26.2723 48.7456 26.3325 48.6048 26.474L36.5687 38.5066C36.3564 38.7217 36.3387 39.0606 36.529 39.292L49.2459 54.8414C50.5592 56.1355 51.7918 56.7929 52.9105 56.7929C54.4212 56.7929 55.6333 55.578 56.4364 54.7755C58.6866 52.5176 58.2705 50.9206 57.6931 48.7136L49.5678 26.6841Z" fill="#60646B"/>
<path d="M24.7193 27.4207C24.8283 27.5099 24.9599 27.5537 25.0908 27.5537C25.2408 27.5537 25.3915 27.4957 25.5047 27.3825L37.5006 15.3838C37.6414 15.2437 37.7001 15.04 37.6583 14.8454C37.6152 14.6508 37.4772 14.4909 37.2911 14.4208L15.2998 6.22902C14.4111 5.99339 13.5705 5.77191 12.7476 5.77191C11.9161 5.77191 10.7677 5.9665 9.25488 7.48499C7.35216 9.38983 5.91504 11.3746 9.2294 14.735L24.7193 27.4207Z" fill="#60646B"/>
<path d="M62.763 1.27084C61.7143 0.220769 60.3947 0 59.4755 0C57.8127 0 56.113 0.707593 54.9299 1.89352L25.8359 30.9565C25.7863 30.989 25.7234 31.0343 25.6922 31.0647L15.1654 41.5703C14.8215 41.9107 14.324 42.0487 13.8507 41.9333L3.58067 39.3641C3.18937 39.2643 2.93534 39.2233 2.70608 39.2233C2.26525 39.2233 1.91429 39.3839 1.57818 39.7575C1.53785 39.8042 1.40765 39.9386 1.24066 40.1C0.221726 41.0878 0.0441206 41.5144 0.00520303 41.8003C-0.025931 42.0345 0.0844534 42.2631 0.28824 42.3848L13.3893 50.0933C13.5903 50.2129 13.7601 50.3834 13.8811 50.5851L21.5967 63.6939C21.7042 63.8758 21.8988 63.9812 22.1012 63.9812C22.1663 63.9812 22.2321 63.9699 22.2958 63.948C22.5491 63.8581 23.026 63.6076 24.2473 62.4472C24.4539 62.2363 24.5424 62.0997 24.5756 62.0452C24.6443 61.9419 24.679 61.8167 24.6719 61.6893C24.6676 61.6157 24.5912 61.2251 24.512 60.8508L22.075 50.1011C21.9696 49.6369 22.1076 49.1579 22.4437 48.8189L33.1276 38.0954C33.1495 38.0685 33.1906 37.9942 33.2069 37.9637L62.0795 9.04586C64.0777 7.0455 64.8483 3.35894 62.763 1.27084Z" fill="#60646B"/>
</svg>
