<svg width="8" height="13" viewBox="0 0 8 13" fill="none" xmlns="http://www.w3.org/2000/svg">
<path d="M0.696289 6.13672C0.696289 5.96582 0.764648 5.80859 0.894531 5.68555L6.30859 0.380859C6.43164 0.264648 6.58203 0.203125 6.75977 0.203125C7.1084 0.203125 7.38184 0.469727 7.38184 0.825195C7.38184 0.996094 7.31348 1.15332 7.2041 1.26953L2.22754 6.13672L7.2041 11.0039C7.31348 11.1201 7.38184 11.2705 7.38184 11.4482C7.38184 11.8037 7.1084 12.0703 6.75977 12.0703C6.58203 12.0703 6.43164 12.0088 6.30859 11.8857L0.894531 6.58789C0.764648 6.45801 0.696289 6.30762 0.696289 6.13672Z" fill="#00264D"/>
</svg>
