<?xml version="1.0" encoding="utf-8"?>
<!-- Generator: Adobe Illustrator 16.0.0, SVG Export Plug-In . SVG Version: 6.00 Build 0)  -->
<!DOCTYPE svg PUBLIC "-//W3C//DTD SVG 1.1//EN" "http://www.w3.org/Graphics/SVG/1.1/DTD/svg11.dtd">
<svg version="1.1" id="Layer_1" xmlns="http://www.w3.org/2000/svg" xmlns:xlink="http://www.w3.org/1999/xlink" x="0px" y="0px"
	 width="24px" height="24px" viewBox="0 0 24 24" enable-background="new 0 0 24 24" xml:space="preserve">
<g>
	<path d="M24,8.636c0-1.524-1.356-2.761-3.029-2.761h-3.585h-5.411l0.014,5.64h2.974l3.188,5.107l0.779,1.445
		c0.511,0.957,1.782,1.354,2.834,0.887c0.872-0.393,1.316-1.256,1.152-2.086l0.011-0.004l-0.032-0.092
		c-0.023-0.086-0.052-0.17-0.089-0.254l-1.889-5.004h0.067C22.658,11.516,24,10.16,24,8.636z"/>
	<g>
		<line x1="0.009" y1="19.275" x2="8.963" y2="19.275"/>
	</g>
</g>
<g>
	<rect y="4.896" width="8.997" height="1.96"/>
	<rect y="7.907" width="8.997" height="1.969"/>
	<rect y="10.907" width="8.997" height="1.988"/>
	<rect y="13.891" width="8.997" height="0.984"/>
	<rect y="15.891" width="8.997" height="1.984"/>
	<rect y="18.875" width="8.997" height="1"/>
</g>
</svg>
