<svg width="18" height="18" viewBox="0 0 18 18" fill="none" xmlns="http://www.w3.org/2000/svg">
<path d="M6.1875 7.31247H2.8125C2.66332 7.31247 2.52024 7.25321 2.41475 7.14772C2.30926 7.04223 2.25 6.89915 2.25 6.74997V3.37497C2.25 3.22578 2.30926 3.08271 2.41475 2.97722C2.52024 2.87173 2.66332 2.81247 2.8125 2.81247C2.96168 2.81247 3.10476 2.87173 3.21025 2.97722C3.31574 3.08271 3.375 3.22578 3.375 3.37497V5.39223L4.40367 4.36356C5.6582 3.10272 7.362 2.39156 9.14062 2.38637H9.17789C10.9414 2.38183 12.6357 3.07223 13.8938 4.30802C13.9965 4.41311 14.054 4.55422 14.054 4.70118C14.054 4.84813 13.9965 4.98926 13.8938 5.09436C13.7911 5.19946 13.6513 5.26019 13.5044 5.26356C13.3575 5.26693 13.2151 5.21267 13.1077 5.11239C12.059 4.08307 10.6473 3.50793 9.17789 3.51137H9.14625C7.66419 3.51594 6.24451 4.10844 5.19891 5.1588L4.17023 6.18747H6.1875C6.33668 6.18747 6.47976 6.24673 6.58525 6.35222C6.69074 6.45771 6.75 6.60078 6.75 6.74997C6.75 6.89915 6.69074 7.04223 6.58525 7.14772C6.47976 7.25321 6.33668 7.31247 6.1875 7.31247ZM15.1875 10.6875H11.8125C11.6633 10.6875 11.5202 10.7467 11.4148 10.8522C11.3093 10.9577 11.25 11.1008 11.25 11.25C11.25 11.3992 11.3093 11.5422 11.4148 11.6477C11.5202 11.7532 11.6633 11.8125 11.8125 11.8125H13.8298L12.8011 12.8411C11.7557 13.8913 10.3363 14.4838 8.85445 14.4886H8.82281C7.3534 14.492 5.9417 13.9169 4.89305 12.8875C4.84065 12.8339 4.77808 12.7914 4.709 12.7623C4.63991 12.7332 4.56572 12.7182 4.49077 12.7182C4.41581 12.7182 4.34162 12.7332 4.27254 12.7623C4.20346 12.7914 4.14089 12.834 4.0885 12.8876C4.03612 12.9412 3.99497 13.0047 3.96749 13.0745C3.94 13.1442 3.92673 13.2187 3.92844 13.2936C3.93016 13.3686 3.94684 13.4424 3.97749 13.5108C4.00815 13.5792 4.05216 13.6408 4.10695 13.6919C5.36503 14.9277 7.05932 15.6181 8.82281 15.6136H8.85938C10.6378 15.6082 12.3413 14.897 13.5956 13.6364L14.625 12.6077V14.625C14.625 14.7742 14.6843 14.9172 14.7898 15.0227C14.8952 15.1282 15.0383 15.1875 15.1875 15.1875C15.3367 15.1875 15.4798 15.1282 15.5852 15.0227C15.6907 14.9172 15.75 14.7742 15.75 14.625V11.25C15.75 11.1008 15.6907 10.9577 15.5852 10.8522C15.4798 10.7467 15.3367 10.6875 15.1875 10.6875Z" fill="#0059A1"/>
</svg>
