<svg width="16" height="16" viewBox="0 0 16 16" fill="none" xmlns="http://www.w3.org/2000/svg">
<g clip-path="url(#clip0)">
<path d="M7 14C3.14 14 0 10.86 0 7C0 3.14 3.14 0 7 0C10.86 0 14 3.14 14 7C14 10.86 10.86 14 7 14ZM7 2C4.243 2 2 4.243 2 7C2 9.757 4.243 12 7 12C9.757 12 12 9.757 12 7C12 4.243 9.757 2 7 2Z" fill="#BDBDBD"/>
<path d="M15.707 14.2929L13.314 11.8999C12.9035 12.4284 12.4285 12.9034 11.9 13.3139L14.293 15.7069C14.3857 15.8001 14.4958 15.874 14.6172 15.9245C14.7385 15.975 14.8686 16.0009 15 16.0009C15.1314 16.0009 15.2615 15.975 15.3829 15.9245C15.5042 15.874 15.6144 15.8001 15.707 15.7069C15.8 15.6141 15.8737 15.5039 15.924 15.3826C15.9743 15.2613 16.0002 15.1312 16.0002 14.9999C16.0002 14.8686 15.9743 14.7385 15.924 14.6172C15.8737 14.4959 15.8 14.3857 15.707 14.2929Z" fill="#BDBDBD"/>
</g>
<defs>
<clipPath id="clip0">
<rect width="16" height="16" fill="white"/>
</clipPath>
</defs>
</svg>
