<svg width="21" height="21" viewBox="0 0 21 21" fill="none" xmlns="http://www.w3.org/2000/svg">
<path d="M20.7652 0.15121C20.6704 0.0695909 20.5535 0.018018 20.4294 0.00305896C20.3052 -0.0119001 20.1794 0.0104315 20.068 0.06721L0.479188 9.75241C0.33752 9.81987 0.217579 9.92566 0.132954 10.0578C0.0483303 10.1899 0.00240677 10.3431 0.000387622 10.5C-0.0164609 10.6627 0.0114007 10.8269 0.0809706 10.9749C0.15054 11.1229 0.259181 11.2492 0.395188 11.34L5.95599 14.4564C5.90614 14.5278 5.87973 14.6129 5.88039 14.7V20.58C5.87913 20.6675 5.90523 20.7532 5.95505 20.8251C6.00486 20.8971 6.0759 20.9517 6.15824 20.9813C6.24058 21.0109 6.33011 21.014 6.41433 20.9903C6.49854 20.9665 6.57324 20.9171 6.62799 20.8488L10.0804 16.716L14.2804 19.0512C14.3892 19.1237 14.5135 19.1699 14.6432 19.1859C14.773 19.202 14.9048 19.1875 15.028 19.1436C15.1573 19.0993 15.2739 19.0242 15.3676 18.9246C15.4612 18.8251 15.5292 18.7042 15.5656 18.5724L21.0004 0.84001C21.0326 0.714768 21.0274 0.582857 20.9856 0.460487C20.9439 0.338118 20.8672 0.230622 20.7652 0.15121ZM0.621988 10.92L0.840388 10.5084L19.0012 1.53721L6.59439 13.818L0.840388 10.584L0.621988 10.92ZM6.72039 19.4124V14.868L9.29079 16.3044L6.72039 19.4124ZM14.65 18.3288L7.35879 14.28L19.7404 1.98241L14.65 18.3288Z" fill="white"/>
</svg>
