<svg width="20" height="16" viewBox="0 0 20 16" fill="none" xmlns="http://www.w3.org/2000/svg">
<path d="M12.8701 0V0.842105C12.6074 0.926316 12.3505 1.01055 12.1333 1.17897L11.5017 0.505243L10.8962 1.09468L11.5278 1.7684C11.3863 1.93682 11.292 2.27368 11.2381 2.52632H10.3438V3.36842H11.2381C11.292 3.62105 11.3863 3.87362 11.5278 4.04204L10.8962 4.71577L11.5017 5.3052L12.1333 4.71577C12.3505 4.79998 12.6074 4.88423 12.8701 4.96844V5.89474H13.7122V4.96844C13.975 4.88423 14.2318 4.79998 14.4491 4.71577L15.0806 5.3052L15.6861 4.71577L15.0545 4.04204C15.196 3.87362 15.2903 3.62105 15.3442 3.36842H16.2385V2.52632H15.3442C15.2903 2.27368 15.196 1.93682 15.0545 1.7684L15.6861 1.09468L15.0806 0.505243L14.4491 1.17897C14.2318 1.01055 13.975 0.926316 13.7122 0.842105V0H12.8701ZM13.2912 1.68421C13.9884 1.68421 14.5543 2.18947 14.5543 2.94737C14.5543 3.62105 13.9884 4.21053 13.2912 4.21053C12.5939 4.21053 12.028 3.62105 12.028 2.94737C12.028 2.18947 12.5939 1.68421 13.2912 1.68421Z" fill="#7F8C8D"/>
<path d="M15.3964 4.12634V5.05264C15.1691 5.05264 14.9467 5.13681 14.7387 5.22102L14.2916 4.4631L13.5539 4.88416L14.0019 5.64207C13.8133 5.81049 13.6491 5.97889 13.5017 6.14731L12.7387 5.64207L12.3177 6.39999L13.0806 6.82104C12.9998 7.07367 12.9282 7.32634 12.8962 7.49476H12.028V8.33687H12.8962C12.9282 8.5895 12.9998 8.84207 13.0806 9.01049L12.3177 9.43154L12.7387 10.1895L13.5017 9.76841C13.6491 9.93683 13.8133 10.1052 14.0019 10.2736L13.5539 11.0316L14.2916 11.4526L14.7387 10.6947C14.9467 10.7789 15.1691 10.8632 15.3964 10.8632V11.7053H16.2385V10.8632C16.4659 10.8632 16.6882 10.7789 16.8962 10.6947L17.3434 11.4526L18.0811 11.0316L17.6331 10.2736C17.8217 10.1052 17.9859 9.93683 18.1333 9.76841L18.8962 10.1895L19.3173 9.43154L18.5543 9.01049C18.6352 8.84207 18.7067 8.5895 18.7387 8.33687H19.607V7.49476H18.7387C18.7067 7.32634 18.6352 7.07367 18.5543 6.82104L19.3173 6.39999L18.8962 5.64207L18.1333 6.14731C17.9859 5.97889 17.8217 5.81049 17.6331 5.64207L18.0811 4.88416L17.3434 4.4631L16.8962 5.22102C16.6882 5.13681 16.4659 5.05264 16.2385 5.05264V4.12634H15.3964ZM15.8175 5.81055C16.9804 5.81055 17.9227 6.82108 17.9227 7.91582C17.9227 9.09476 16.9804 10.0211 15.8175 10.0211C14.6545 10.0211 13.7122 9.09476 13.7122 7.91582C13.7122 6.82108 14.6545 5.81055 15.8175 5.81055Z" fill="#95A5A6"/>
<path d="M7.81748 2.44214L6.10699 2.52633V4.29473C5.80367 4.29473 5.50742 4.3789 5.21217 4.46311L4.31752 2.94738L2.87011 3.78949L3.73849 5.30521C3.49504 5.55785 3.27803 5.72631 3.08064 5.97894L1.55432 5.13683L0.712216 6.56837L2.23853 7.49477C2.12544 7.7474 2.02893 8.08422 1.97537 8.42107H0.212173L0.212216 10.1053H2.00169C2.05449 10.4421 2.12784 10.6947 2.23849 11.0316L0.712174 11.8737L1.55428 13.3052L3.08059 12.4631C3.28093 12.7157 3.50232 12.8842 3.73845 13.1368L2.84379 14.6527L4.31748 15.4948L5.18586 13.9789C5.48893 14.0631 5.81415 14.1474 6.13323 14.2316V16H7.81744V14.2316C8.12059 14.1474 8.41702 14.0631 8.71175 13.9789L9.60691 15.4948L11.0545 14.6527L10.1854 13.1368C10.4296 12.8842 10.6461 12.7157 10.844 12.4631L12.3699 13.3052L13.2389 11.8737L11.6861 11.0316C11.7989 10.6947 11.8958 10.3579 11.9488 10.1053H13.7122V8.33687H11.9227C11.8696 8.08424 11.7964 7.7474 11.6861 7.49477L13.212 6.56837L12.3699 5.13683L10.844 5.97894C10.6435 5.81052 10.4221 5.55793 10.1854 5.38951L11.0806 3.78949L9.60691 2.94738L8.7387 4.46311C8.43554 4.3789 8.11049 4.29473 7.79116 4.29473L7.81744 2.44214H7.81748ZM6.97537 6.73685C8.37074 6.73685 9.50169 7.83159 9.50169 9.26317C9.50169 10.6105 8.37074 11.7895 6.97537 11.7895C5.58009 11.7895 4.44906 10.6105 4.44906 9.26317C4.44906 7.83159 5.58009 6.73685 6.97537 6.73685Z" fill="#BDC3C7"/>
</svg>
