<!-- Generated by IcoMoon.io -->
<svg version="1.1" xmlns="http://www.w3.org/2000/svg" width="32" height="32" viewBox="0 0 32 32">
<title>smartphone</title>
<path d="M6.364 29.509v-27.025c0-1.366 1.111-2.484 2.484-2.484h14.304c1.366 0 2.484 1.111 2.484 2.484v27.032c0 1.366-1.111 2.484-2.484 2.484h-14.304c-1.366-0.007-2.484-1.118-2.484-2.491zM24.034 5.759h-16.062v18.187h16.062v-18.187zM23.152 1.602h-14.304c-0.484 0-0.883 0.392-0.883 0.883v1.674h16.069v-1.674c0-0.49-0.399-0.883-0.882-0.883zM24.034 29.509v-3.968h-16.062v3.968c0 0.484 0.392 0.883 0.883 0.883h14.297c0.484 0 0.882-0.392 0.882-0.883z"></path>
<path d="M14.379 27.234h3.249c0.445 0 0.804 0.36 0.804 0.804s-0.36 0.804-0.804 0.804h-3.249c-0.445 0-0.804-0.36-0.804-0.804s0.36-0.804 0.804-0.804z"></path>
</svg>
