<!-- Generated by IcoMoon.io -->
<svg version="1.1" xmlns="http://www.w3.org/2000/svg" width="39" height="32" viewBox="0 0 39 32">
<title>twiter</title>
<path d="M39.385 3.815c-1.472 0.615-2.945 1.108-4.662 1.231 1.718-0.985 2.945-2.585 3.558-4.431-1.595 0.985-3.313 1.6-5.153 1.969-1.472-1.6-3.558-2.585-5.889-2.585-4.417 0-8.098 3.569-8.098 8.123 0 0.615 0.123 1.231 0.245 1.846-6.748-0.369-12.637-3.569-16.564-8.492-0.736 1.231-1.104 2.585-1.104 4.062 0 2.831 1.472 5.292 3.558 6.769-1.35 0-2.577-0.369-3.681-0.985v0.123c0 3.938 2.822 7.138 6.503 7.877-0.736 0.123-1.35 0.246-2.086 0.246-0.491 0-0.982 0-1.472-0.123 0.982 3.2 4.049 5.538 7.484 5.662-2.699 2.215-6.257 3.446-10.061 3.446-0.613 0-1.35 0-1.963-0.123 3.558 2.338 7.852 3.569 12.392 3.569 14.846 0 22.944-12.308 22.944-23.015 0-0.369 0-0.738 0-0.985 1.595-1.231 2.945-2.585 4.049-4.185z"></path>
</svg>
