<svg width="19" height="18" viewBox="0 0 19 18" fill="none" xmlns="http://www.w3.org/2000/svg">
<path fill-rule="evenodd" clip-rule="evenodd" d="M3.23251 5.24703C3.23251 3.09476 4.9773 1.34998 7.12957 1.34998H12.0619V2.26372L13.5848 1.34998H16.7678V3.4588C16.7678 4.42902 16.4132 5.31644 15.8266 5.99854V7.46762H15.8825C16.8913 7.46762 17.709 8.28535 17.709 9.29409C17.709 10.3028 16.8913 11.1206 15.8825 11.1206H15.8266V11.4117C15.8266 14.8895 13.0073 17.7088 9.52957 17.7088C6.05181 17.7088 3.23251 14.8895 3.23251 11.4117V11.1206H3.17663C2.16789 11.1206 1.35016 10.3028 1.35016 9.29409C1.35016 8.28535 2.16789 7.46762 3.17663 7.46762H3.23251V5.24703ZM4.53251 7.35586V11.4117C4.53251 14.1715 6.76978 16.4088 9.52957 16.4088C12.2894 16.4088 14.5266 14.1715 14.5266 11.4117V6.98758C14.0241 7.22382 13.4628 7.35586 12.8707 7.35586H4.53251ZM4.53251 6.05586H12.8707C14.305 6.05586 15.4678 4.8931 15.4678 3.4588V2.64998H13.9449L10.7619 4.55976V2.64998H7.12957C5.69527 2.64998 4.53251 3.81273 4.53251 5.24703V6.05586ZM3.23251 8.76762H3.17663C2.88586 8.76762 2.65016 9.00332 2.65016 9.29409C2.65016 9.58487 2.88586 9.82056 3.17663 9.82056H3.23251V8.76762ZM15.8266 9.82056H15.8825C16.1733 9.82056 16.409 9.58487 16.409 9.29409C16.409 9.00332 16.1733 8.76762 15.8825 8.76762H15.8266V9.82056Z" fill="#698096"/>
</svg>
