<svg width="19" height="18" viewBox="0 0 19 18" fill="none" xmlns="http://www.w3.org/2000/svg">
<g clip-path="url(#clip0_2287_51251)">
<path fill-rule="evenodd" clip-rule="evenodd" d="M6.47695 2.90037C6.47695 1.23079 7.83042 -0.122681 9.5 -0.122681C11.1696 -0.122681 12.523 1.2308 12.523 2.90037C12.523 3.02827 12.5151 3.15449 12.4995 3.27852C14.7531 4.3489 16.3488 6.5863 16.5013 9.20535C17.1412 9.5978 17.568 10.3037 17.568 11.1094C17.568 12.34 16.5721 13.338 15.3423 13.3414C14.7958 16.0683 12.3878 18.1226 9.5 18.1226C6.61217 18.1226 4.20421 16.0683 3.6577 13.3414C2.42791 13.338 1.43204 12.34 1.43204 11.1094C1.43204 10.3037 1.85885 9.5978 2.4987 9.20535C2.65122 6.58631 4.24693 4.34891 6.50045 3.27852C6.48493 3.15449 6.47695 3.02827 6.47695 2.90037ZM7.77889 2.81798C8.32974 2.67854 8.90637 2.60444 9.5 2.60444C10.0936 2.60444 10.6703 2.67854 11.2211 2.81798C11.1781 1.90463 10.424 1.17732 9.5 1.17732C8.57601 1.17732 7.82188 1.90463 7.77889 2.81798ZM3.54141 10.1853C3.08463 10.2454 2.73204 10.6362 2.73204 11.1094C2.73204 11.5825 3.08463 11.9734 3.54141 12.0334L3.54141 10.1853ZM4.84141 10.1148V12.1641C4.84141 14.7369 6.9271 16.8226 9.5 16.8226C12.0729 16.8226 14.1586 14.7369 14.1586 12.1641V10.1148C13.8331 10.069 13.3971 9.98972 12.8935 9.85281C11.9229 9.58899 10.6843 9.10661 9.50001 8.22332C8.3157 9.10661 7.07712 9.58899 6.10654 9.85281C5.60287 9.98972 5.16695 10.069 4.84141 10.1148ZM15.4586 10.1853V12.0334C15.9154 11.9734 16.268 11.5825 16.268 11.1094C16.268 10.6362 15.9154 10.2454 15.4586 10.1853ZM15.1655 8.87734C14.8013 6.07591 12.3989 3.90444 9.5 3.90444C6.6011 3.90444 4.19876 6.07591 3.8345 8.87734H4.1772L4.18896 8.87675C4.20574 8.87584 4.23277 8.87417 4.26926 8.87131C4.34226 8.86559 4.45289 8.85512 4.59475 8.83641C4.87883 8.79893 5.28594 8.7287 5.76554 8.59833C6.72779 8.33677 7.96119 7.83888 9.08176 6.89695L9.5 6.54538L9.91825 6.89695C11.0388 7.83888 12.2722 8.33677 13.2345 8.59833C13.7141 8.7287 14.1212 8.79893 14.4053 8.83641C14.5471 8.85512 14.6578 8.86559 14.7308 8.87131C14.7672 8.87417 14.7943 8.87584 14.811 8.87675L14.8228 8.87734H15.1655Z" fill="#698096"/>
</g>
<defs>
<clipPath id="clip0_2287_51251">
<rect width="18" height="18" fill="white" transform="translate(0.5)"/>
</clipPath>
</defs>
</svg>
