<svg width="16" height="17" viewBox="0 0 16 17" fill="none" xmlns="http://www.w3.org/2000/svg">
<g clip-path="url(#clip0_213_1486)">
<path d="M8 8.89588C8.79113 8.89588 9.56448 8.66128 10.2223 8.22175C10.8801 7.78223 11.3928 7.15751 11.6955 6.42661C11.9983 5.69571 12.0775 4.89144 11.9231 4.11551C11.7688 3.33959 11.3878 2.62686 10.8284 2.06745C10.269 1.50804 9.55629 1.12708 8.78036 0.972735C8.00444 0.818394 7.20017 0.897607 6.46927 1.20036C5.73836 1.50311 5.11365 2.0158 4.67412 2.67359C4.2346 3.33139 4 4.10475 4 4.89588C4.00106 5.95642 4.42283 6.97322 5.17274 7.72313C5.92266 8.47305 6.93946 8.89482 8 8.89588ZM8 2.22921C8.52742 2.22921 9.04299 2.38561 9.48152 2.67862C9.92005 2.97164 10.2618 3.38812 10.4637 3.87539C10.6655 4.36266 10.7183 4.89883 10.6154 5.41612C10.5125 5.9334 10.2586 6.40855 9.88562 6.78149C9.51268 7.15443 9.03752 7.40841 8.52024 7.5113C8.00296 7.6142 7.46678 7.56139 6.97951 7.35956C6.49224 7.15772 6.07577 6.81593 5.78275 6.3774C5.48973 5.93887 5.33333 5.42329 5.33333 4.89588C5.33333 4.18863 5.61428 3.51035 6.11438 3.01026C6.61448 2.51016 7.29276 2.22921 8 2.22921Z" fill="#00264D"/>
<path d="M8 10.2292C6.40924 10.231 4.88414 10.8637 3.75931 11.9885C2.63447 13.1134 2.00176 14.6385 2 16.2292C2 16.406 2.07024 16.5756 2.19526 16.7006C2.32029 16.8256 2.48986 16.8959 2.66667 16.8959C2.84348 16.8959 3.01305 16.8256 3.13807 16.7006C3.2631 16.5756 3.33333 16.406 3.33333 16.2292C3.33333 14.9915 3.825 13.8046 4.70017 12.9294C5.57534 12.0542 6.76232 11.5626 8 11.5626C9.23768 11.5626 10.4247 12.0542 11.2998 12.9294C12.175 13.8046 12.6667 14.9915 12.6667 16.2292C12.6667 16.406 12.7369 16.5756 12.8619 16.7006C12.987 16.8256 13.1565 16.8959 13.3333 16.8959C13.5101 16.8959 13.6797 16.8256 13.8047 16.7006C13.9298 16.5756 14 16.406 14 16.2292C13.9982 14.6385 13.3655 13.1134 12.2407 11.9885C11.1159 10.8637 9.59076 10.231 8 10.2292Z" fill="#00264D"/>
</g>
<defs>
<clipPath id="clip0_213_1486">
<rect width="16" height="16" fill="white" transform="translate(0 0.895874)"/>
</clipPath>
</defs>
</svg>
