<svg width="19" height="18" viewBox="0 0 19 18" fill="none" xmlns="http://www.w3.org/2000/svg">
<g clip-path="url(#clip0_2287_51225)">
<path fill-rule="evenodd" clip-rule="evenodd" d="M7.38698 0.999939C7.38698 1.71923 7.97007 2.30232 8.68932 2.30232L9.02311 2.30234C12.1932 2.30234 14.8833 4.35135 15.8438 7.19609C16.2828 7.29728 16.6752 7.52064 16.9824 7.82755C17.4092 8.2548 17.6751 8.8472 17.6751 9.5C17.6751 10.6224 16.8932 11.5622 15.8438 11.8039C14.8833 14.6487 12.1932 16.6977 9.02311 16.6977C5.85303 16.6977 3.16291 14.6487 2.20243 11.8039C1.15305 11.5622 0.371155 10.6224 0.371155 9.5C0.371155 8.8472 0.636533 8.25529 1.06332 7.82805C1.37056 7.52114 1.76338 7.29728 2.20241 7.19609C2.74774 5.58092 3.85066 4.22227 5.28244 3.34952C4.40591 2.93085 3.80035 2.03612 3.80035 0.999975H5.10035C5.10035 1.71923 5.68342 2.30232 6.4027 2.30232L6.43581 2.30232C6.21397 1.91927 6.08698 1.47444 6.08698 0.999939H7.38698ZM9.02311 3.60234C6.30099 3.60234 4.00803 5.44725 3.32969 7.95573L3.20231 8.42679L2.71442 8.43594C2.42906 8.44129 2.17185 8.55833 1.9828 8.74705C1.7895 8.94068 1.67115 9.20598 1.67115 9.5C1.67115 10.0809 2.13643 10.5531 2.7145 10.5641L3.20233 10.5733L3.32969 11.0443C4.00803 13.5528 6.30099 15.3977 9.02311 15.3977C11.7452 15.3977 14.0382 13.5528 14.7165 11.0443L14.8439 10.5733L15.3317 10.5641C15.9098 10.5531 16.3751 10.0809 16.3751 9.5C16.3751 9.20597 16.2567 8.94068 16.0634 8.74705C15.8744 8.55832 15.6172 8.44129 15.3318 8.43594L14.8439 8.42679L14.7165 7.95573C14.2753 6.32424 13.1512 4.97345 11.6701 4.22836C11.757 4.49762 11.804 4.78482 11.804 5.08299C11.804 6.61874 10.559 7.86367 9.02324 7.86367C7.4875 7.86367 6.24257 6.61873 6.24257 5.08299H7.54257C7.54257 5.90076 8.20548 6.56367 9.02324 6.56367C9.84102 6.56367 10.504 5.90075 10.504 5.08299C10.504 4.26531 9.84095 3.60234 9.02311 3.60234Z" fill="#698096"/>
</g>
<defs>
<clipPath id="clip0_2287_51225">
<rect width="18" height="18" fill="white" transform="translate(0.0211792)"/>
</clipPath>
</defs>
</svg>
