<svg width="15" height="15" viewBox="0 0 15 15" fill="none" xmlns="http://www.w3.org/2000/svg">
<path fill-rule="evenodd" clip-rule="evenodd" d="M14.7908 0.209229C15.0042 0.422681 15.0604 0.747272 14.9312 1.02008L8.50267 14.5915C8.37351 14.8641 8.08698 15.0262 7.78676 14.9965C7.48653 14.9668 7.23736 14.7516 7.16418 14.4589L5.83956 9.16044L0.541062 7.83582C0.248375 7.76264 0.0332223 7.51347 0.00349397 7.21324C-0.0262343 6.91302 0.135873 6.62649 0.408527 6.49733L13.9799 0.0687788C14.2527 -0.060446 14.5773 -0.00422232 14.7908 0.209229ZM2.82383 6.93397L6.60181 7.87847C6.85773 7.94245 7.05755 8.14227 7.12153 8.39819L8.06602 12.1762L12.784 2.216L2.82383 6.93397Z" fill="#233265"/>
</svg>
