<svg width="18" height="18" viewBox="0 0 18 18" fill="none" xmlns="http://www.w3.org/2000/svg">
<path d="M13.8765 11.95C13.7919 11.7596 13.6031 11.6368 13.3946 11.6368H11.5364C11.5261 11.5973 11.5153 11.5581 11.5036 11.5193L13.2716 11.0949C13.4553 11.0508 13.6014 10.9118 13.6546 10.7306L14.428 8.09386C14.51 7.8144 14.3499 7.52137 14.0704 7.43939C13.7912 7.35747 13.4979 7.5175 13.416 7.79696L12.7285 10.1406L11.0097 10.5531C10.9648 10.4949 10.9181 10.4383 10.8691 10.3841L12.1327 9.41925C12.2345 9.34145 12.3046 9.22923 12.3297 9.10354L12.7516 6.99417C12.8087 6.70856 12.6235 6.43075 12.3379 6.37366C12.0522 6.31646 11.7745 6.50173 11.7174 6.78734L11.3345 8.70171L10.5536 9.29799C10.7406 8.321 9.98948 7.41808 9.00012 7.41808C8.0111 7.41808 7.2596 8.32061 7.4466 9.29799L6.66574 8.70171L6.28285 6.78731C6.22573 6.50177 5.94799 6.3165 5.66235 6.37362C5.37674 6.43075 5.19153 6.70856 5.24863 6.99413L5.6705 9.10351C5.69564 9.22919 5.76571 9.34144 5.86755 9.41921L7.13114 10.3841C7.0822 10.4383 7.03551 10.4949 6.99055 10.5531L5.27173 10.1406L4.58425 7.79693C4.50226 7.51747 4.2092 7.35744 3.92981 7.43935C3.65032 7.52134 3.49022 7.81436 3.5722 8.09382L4.34564 10.7305C4.39883 10.9118 4.5449 11.0508 4.7286 11.0949L6.49664 11.5192C6.48497 11.5581 6.4741 11.5973 6.46387 11.6368H4.60558C4.39718 11.6368 4.20832 11.7595 4.1237 11.95L3.42057 13.532C3.30231 13.7981 3.42216 14.1098 3.68829 14.2281C3.95512 14.3466 4.26636 14.2258 4.38435 13.9603L4.94829 12.6915H6.37479C6.38171 12.7755 6.39212 12.8584 6.40544 12.9403L5.31708 13.8732C5.17687 13.9933 5.10976 14.1781 5.1401 14.3602L5.31588 15.4149C5.36369 15.7018 5.63489 15.8963 5.92275 15.8484C6.21005 15.8005 6.40411 15.5288 6.35623 15.2415L6.22938 14.4803L6.78735 14.002C7.831 15.771 10.1715 15.7673 11.213 14.002L11.7709 14.4803L11.6441 15.2415C11.5906 15.5625 11.838 15.8556 12.1648 15.8556C12.418 15.8556 12.6414 15.6728 12.6844 15.4149L12.8602 14.3602C12.8905 14.1781 12.8234 13.9933 12.6832 13.8732L11.5948 12.9403C11.6081 12.8584 11.6186 12.7755 11.6255 12.6915H13.052L13.6159 13.9604C13.7342 14.2265 14.0458 14.3464 14.312 14.2281C14.5781 14.1098 14.698 13.7982 14.5797 13.532L13.8765 11.95ZM9.00012 8.47277C9.29089 8.47277 9.52746 8.70934 9.52746 9.00011C9.52746 9.29089 9.29089 9.52746 9.00012 9.52746C8.70934 9.52746 8.47277 9.29089 8.47277 9.00011C8.47277 8.70934 8.70934 8.47277 9.00012 8.47277ZM9.00012 14.2736C8.12778 14.2736 7.41808 13.4456 7.41808 12.4278C7.41808 11.4101 8.12778 10.5821 9.00012 10.5821C9.87245 10.5821 10.5821 11.4101 10.5821 12.4278C10.5821 13.4456 9.87245 14.2736 9.00012 14.2736Z" fill="white"/>
<path d="M16.418 0.0351562H1.58203C0.709699 0.0351562 0 0.744855 0 1.61719V16.3828C0 17.2551 0.709699 17.9648 1.58203 17.9648H16.418C17.2903 17.9648 18 17.2551 18 16.3828V1.61719C18 0.744855 17.2903 0.0351562 16.418 0.0351562ZM1.58203 1.08984H16.418C16.7087 1.08984 16.9453 1.32641 16.9453 1.61719V4.25391H1.05469V1.61719C1.05469 1.32641 1.29125 1.08984 1.58203 1.08984ZM16.418 16.9102H1.58203C1.29125 16.9102 1.05469 16.6736 1.05469 16.3828V5.30859H16.9453V16.3828C16.9453 16.6736 16.7087 16.9102 16.418 16.9102Z" fill="white"/>
<path d="M2.67188 3.19922C2.96312 3.19922 3.19922 2.96312 3.19922 2.67188C3.19922 2.38063 2.96312 2.14453 2.67188 2.14453C2.38063 2.14453 2.14453 2.38063 2.14453 2.67188C2.14453 2.96312 2.38063 3.19922 2.67188 3.19922Z" fill="white"/>
<path d="M4.78125 3.19922C5.07249 3.19922 5.30859 2.96312 5.30859 2.67188C5.30859 2.38063 5.07249 2.14453 4.78125 2.14453C4.49001 2.14453 4.25391 2.38063 4.25391 2.67188C4.25391 2.96312 4.49001 3.19922 4.78125 3.19922Z" fill="white"/>
<path d="M6.89062 3.19922C7.18187 3.19922 7.41797 2.96312 7.41797 2.67188C7.41797 2.38063 7.18187 2.14453 6.89062 2.14453C6.59938 2.14453 6.36328 2.38063 6.36328 2.67188C6.36328 2.96312 6.59938 3.19922 6.89062 3.19922Z" fill="white"/>
<path d="M12.1641 3.19922H15.3281C15.6194 3.19922 15.8555 2.96311 15.8555 2.67188C15.8555 2.38064 15.6194 2.14453 15.3281 2.14453H12.1641C11.8728 2.14453 11.6367 2.38064 11.6367 2.67188C11.6367 2.96311 11.8728 3.19922 12.1641 3.19922Z" fill="white"/>
</svg>
