<svg width="17" height="17" viewBox="0 0 17 17" fill="none" xmlns="http://www.w3.org/2000/svg">
<g clip-path="url(#clip0_3993_457)">
<path d="M5.86 5.26158L7.7 3.53442V10.7434C7.7 11.194 8.02 11.4944 8.5 11.4944C8.98 11.4944 9.3 11.194 9.3 10.7434V3.53442L11.14 5.26158C11.46 5.56195 11.94 5.56195 12.26 5.26158C12.58 4.9612 12.58 4.51064 12.26 4.21026L9.06 1.20651C8.98 1.13141 8.9 1.05632 8.82 1.05632C8.66 0.981227 8.42 0.981227 8.18 1.05632C8.1 1.05632 8.02 1.13141 7.94 1.20651L4.74 4.21026C4.42 4.51064 4.42 4.9612 4.74 5.26158C5.06 5.56195 5.54 5.56195 5.86 5.26158ZM15.7 9.99249C15.22 9.99249 14.9 10.2929 14.9 10.7434V13.7472C14.9 14.1977 14.58 14.4981 14.1 14.4981H2.9C2.42 14.4981 2.1 14.1977 2.1 13.7472V10.7434C2.1 10.2929 1.78 9.99249 1.3 9.99249C0.82 9.99249 0.5 10.2929 0.5 10.7434V13.7472C0.5 15.0238 1.54 16 2.9 16H14.1C15.46 16 16.5 15.0238 16.5 13.7472V10.7434C16.5 10.2929 16.18 9.99249 15.7 9.99249Z" fill="white"/>
</g>
<defs>
<clipPath id="clip0_3993_457">
<rect width="16" height="16" fill="white" transform="translate(0.5 0.5)"/>
</clipPath>
</defs>
</svg>
