<svg width="24" height="24" viewBox="0 0 24 24" fill="none" xmlns="http://www.w3.org/2000/svg">
<g clip-path="url(#clip0_4178_2872)">
<path d="M23.684 8.25819C23.4545 8.00638 23.1295 7.86273 22.7887 7.86273H1.21125C0.870534 7.86273 0.545439 8.00638 0.31591 8.25819C0.086381 8.51001 -0.0263849 8.84698 0.00522834 9.18624L1.15651 21.5528C1.21452 22.1756 1.73705 22.6518 2.36253 22.6518H21.6374C22.2629 22.6518 22.7854 22.1755 22.8434 21.5528L23.9947 9.18624C24.0263 8.84698 23.9135 8.51001 23.684 8.25819ZM16.0399 20.1153C16.0391 20.1152 16.0383 20.1152 16.0375 20.1153H7.96255C7.29359 20.1153 6.75132 19.5729 6.75132 18.9041C6.75132 17.2592 8.08949 15.9211 9.73435 15.9211H10.6036C9.70964 15.4271 9.10257 14.4749 9.10257 13.3833C9.10257 11.7857 10.4023 10.4858 12.0001 10.4858C13.5978 10.4858 14.8976 11.7856 14.8976 13.3833C14.8976 14.4749 14.2905 15.4271 13.3965 15.9211H14.2658C15.8771 15.9211 17.1941 17.2053 17.2471 18.804C17.2498 18.837 17.2513 18.8704 17.2513 18.9041C17.2511 19.5731 16.7089 20.1153 16.0399 20.1153ZM21.6697 5.60777C21.6697 6.10959 21.263 6.5162 20.7613 6.5162H3.23874C2.73705 6.5162 2.33031 6.10959 2.33031 5.60777C2.33031 5.10596 2.73705 4.69935 3.23874 4.69935H20.7613C21.263 4.69935 21.6697 5.10596 21.6697 5.60777ZM19.2715 2.25665C19.2715 2.75846 18.8648 3.16508 18.3631 3.16508H5.63698C5.13529 3.16508 4.72856 2.75846 4.72856 2.25665C4.72856 1.75484 5.13529 1.34822 5.63698 1.34822H18.3629C18.8648 1.34822 19.2715 1.75484 19.2715 2.25665Z" fill="white" fill-opacity="0.85"/>
</g>
<defs>
<clipPath id="clip0_4178_2872">
<rect width="24" height="24" fill="white"/>
</clipPath>
</defs>
</svg>
