<svg width="24" height="24" viewBox="0 0 24 24" fill="none" xmlns="http://www.w3.org/2000/svg">
<g clip-path="url(#clip0_4178_2952)">
<path d="M23.13 18.09L21.52 19.7C21.32 19.9 21.07 19.99 20.81 19.99C20.55 19.99 20.3 19.89 20.1 19.7C19.71 19.31 19.71 18.68 20.1 18.29L21.39 17H13.99C13.44 17 12.99 16.55 12.99 16C12.99 15.45 13.44 15 13.99 15H21.39L20.1 13.71C19.71 13.32 19.71 12.69 20.1 12.3C20.49 11.91 21.12 11.91 21.51 12.3L23.12 13.91C24.27 15.06 24.27 16.94 23.12 18.1L23.13 18.09ZM13 8H19.54C19.19 7.09 18.66 6.25 17.95 5.54L14.47 2.05C13.76 1.34 12.92 0.81 12.01 0.46V7C12.01 7.55 12.46 8 13.01 8H13ZM17.81 19H14C12.35 19 11 17.65 11 16C11 14.35 12.35 13 14 13H17.81C17.81 12.23 18.1 11.46 18.69 10.88C19.06 10.51 19.51 10.25 19.98 10.12V10H13C11.35 10 10 8.65 10 7V0.02C9.84 0.01 9.68 0 9.51 0H5C2.24 0 0 2.24 0 5V19C0 21.76 2.24 24 5 24H15C16.81 24 18.4 23.03 19.28 21.58C19.07 21.45 18.87 21.3 18.69 21.12C18.11 20.54 17.81 19.77 17.81 19Z" fill="#DBDEE2"/>
</g>
<defs>
<clipPath id="clip0_4178_2952">
<rect width="24" height="24" fill="white"/>
</clipPath>
</defs>
</svg>
