<svg width="24" height="24" viewBox="0 0 24 24" fill="none" xmlns="http://www.w3.org/2000/svg">
<g clip-path="url(#clip0_4178_2884)">
<path d="M24 12C24 18.2036 18.8089 23.25 12.4275 23.25C7.70588 23.25 3.50009 20.505 1.71214 16.2573C1.53938 15.8459 1.7419 15.3766 2.16429 15.2087C2.58586 15.0415 3.06943 15.2384 3.24219 15.6482C4.77472 19.29 8.37957 21.6429 12.4266 21.6429C17.8963 21.6429 22.346 17.3172 22.346 12C22.346 6.68277 17.8963 2.35714 12.4266 2.35714C8.37213 2.35714 4.78134 4.72045 3.2579 8.31241L3.66294 7.95161C3.99937 7.65187 4.52261 7.67437 4.83093 8.00143C5.13926 8.32848 5.11694 8.83714 4.77968 9.13687L2.58256 11.0952C2.42881 11.2318 2.22877 11.3065 2.02377 11.3065C1.975 11.3065 1.92706 11.3025 1.87829 11.2937C1.62452 11.2495 1.40629 11.0936 1.28891 10.871L0.0919843 8.61134C-0.117148 8.21679 0.0423877 7.73223 0.448253 7.52893C0.854945 7.32241 1.35256 7.47991 1.5617 7.87527L1.62038 7.98616C3.32733 3.63723 7.59181 0.75 12.4275 0.75C18.8089 0.75 24 5.79643 24 12ZM4.97063 11.9349C4.97063 7.94036 8.30104 4.70277 12.4101 4.70277C16.5192 4.70277 19.8496 7.94036 19.8496 11.9349C19.8496 15.9295 16.5192 19.1671 12.4101 19.1671C8.30104 19.1671 4.97063 15.9295 4.97063 11.9349ZM11.5835 11.9349C11.5835 12.1872 11.7058 12.4259 11.9141 12.5778L15.2206 14.9885C15.3694 15.097 15.5438 15.1492 15.7157 15.1492C15.967 15.1492 16.215 15.0383 16.3778 14.8278C16.6523 14.4734 16.5779 13.9696 16.2125 13.7036L13.2367 11.5339V7.91786C13.2367 7.47348 12.8664 7.11429 12.4101 7.11429C11.9538 7.11429 11.5835 7.47348 11.5835 7.91786V11.9349Z" fill="#DBDEE2"/>
</g>
<defs>
<clipPath id="clip0_4178_2884">
<rect width="24" height="24" fill="white"/>
</clipPath>
</defs>
</svg>
