<svg width="24" height="24" viewBox="0 0 24 24" fill="none" xmlns="http://www.w3.org/2000/svg">
<path fill-rule="evenodd" clip-rule="evenodd" d="M22.0315 14.1113C21.2781 13.6773 20.8101 12.8686 20.8101 12.0001C20.8101 11.1319 21.278 10.3232 22.0293 9.8896C22.8004 9.4463 23.1211 8.52521 22.7916 7.69965C22.3786 6.65682 21.8162 5.6828 21.1243 4.80427C20.5729 4.1048 19.6151 3.92162 18.844 4.36777C18.0928 4.80427 17.1569 4.80558 16.4034 4.37105C15.6521 3.93652 15.1864 3.12657 15.1886 2.25643C15.1886 1.36627 14.5516 0.627521 13.6707 0.500115C12.5635 0.339756 11.4388 0.340646 10.3272 0.503396C9.44846 0.631693 8.81143 1.37002 8.81358 2.2584C8.81358 3.12746 8.34783 3.93694 7.59657 4.37105C6.84305 4.80512 5.90944 4.80422 5.15597 4.36819C4.38493 3.92204 3.42713 4.10611 2.87574 4.80558C2.53304 5.24143 2.21668 5.70736 1.93772 6.1913C1.65872 6.6744 1.41488 7.18074 1.2084 7.69543C0.876661 8.5223 1.19743 9.44471 1.96847 9.88913C2.72199 10.3228 3.1899 11.1318 3.1899 12C3.1899 12.8682 2.72199 13.6766 1.97068 14.1109C1.19963 14.5542 0.878911 15.4748 1.2084 16.3002C1.62141 17.3437 2.18377 18.3177 2.87574 19.1957C3.42713 19.8952 4.38493 20.0784 5.15597 19.6322C5.90729 19.1957 6.8431 19.1948 7.59657 19.629C8.34783 20.0635 8.81358 20.8734 8.81358 21.7436C8.81138 22.6335 9.45061 23.3723 10.3293 23.4999C10.8807 23.5797 11.4343 23.6194 11.9879 23.6194C12.5503 23.6194 13.1126 23.5786 13.6728 23.4966C14.5515 23.3681 15.1885 22.6304 15.1885 21.742C15.1863 20.8726 15.652 20.063 16.4033 19.629C17.1568 19.1949 18.0905 19.1958 18.8439 19.6318C19.615 20.078 20.5728 19.8943 21.1242 19.1944C21.4669 18.7583 21.7832 18.2924 22.0622 17.8091C22.339 17.3261 22.5872 16.8197 22.7915 16.3046C23.1233 15.4777 22.8026 14.5551 22.0315 14.1113ZM14.9887 13.726C14.5296 14.5244 13.7849 15.0957 12.893 15.3343C12.0033 15.5729 11.0719 15.4505 10.2744 14.9892C8.62688 14.0375 8.06011 11.9227 9.0113 10.274C9.64838 9.16815 10.8127 8.54912 12.0055 8.54912C12.592 8.54912 13.183 8.69761 13.7256 9.01088C15.3731 9.9623 15.9399 12.0778 14.9887 13.726Z" fill="#DBDEE2"/>
</svg>
