<svg width="24" height="24" viewBox="0 0 24 24" fill="none" xmlns="http://www.w3.org/2000/svg">
<g clip-path="url(#clip0_4178_2896)">
<path fill-rule="evenodd" clip-rule="evenodd" d="M22.8838 4.18605V19.814C22.8838 22.1257 21.0095 24 18.6977 24H5.30238C2.99054 24 1.11633 22.1257 1.11633 19.814V4.18605C1.11633 1.87421 2.99054 0 5.30238 0H18.6977C21.0095 0 22.8838 1.87421 22.8838 4.18605ZM17.5814 8.93023H6.41866C5.95652 8.93023 5.58145 9.3053 5.58145 9.76744C5.58145 10.2296 5.95652 10.6047 6.41866 10.6047H17.5814C18.0436 10.6047 18.4187 10.2296 18.4187 9.76744C18.4187 9.3053 18.0436 8.93023 17.5814 8.93023ZM17.5814 13.3953H6.41866C5.95652 13.3953 5.58145 13.7704 5.58145 14.2326C5.58145 14.6947 5.95652 15.0698 6.41866 15.0698H17.5814C18.0436 15.0698 18.4187 14.6947 18.4187 14.2326C18.4187 13.7704 18.0436 13.3953 17.5814 13.3953ZM12.0001 4.46512H6.41866C5.95652 4.46512 5.58145 4.84019 5.58145 5.30233C5.58145 5.76447 5.95652 6.13953 6.41866 6.13953H12.0001C12.4622 6.13953 12.8373 5.76447 12.8373 5.30233C12.8373 4.84019 12.4622 4.46512 12.0001 4.46512ZM17.5814 17.8605H6.41866C5.95652 17.8605 5.58145 18.2355 5.58145 18.6977C5.58145 19.1598 5.95652 19.5349 6.41866 19.5349H17.5814C18.0436 19.5349 18.4187 19.1598 18.4187 18.6977C18.4187 18.2355 18.0436 17.8605 17.5814 17.8605Z" fill="#DBDEE2"/>
</g>
<defs>
<clipPath id="clip0_4178_2896">
<rect width="24" height="24" fill="white"/>
</clipPath>
</defs>
</svg>
