<svg width="24" height="24" viewBox="0 0 24 24" fill="none" xmlns="http://www.w3.org/2000/svg">
<g clip-path="url(#clip0_4178_2914)">
<path d="M8.0175 0.75H3.2325C1.86145 0.75 0.75 1.86145 0.75 3.2325V8.0175C0.75 9.38855 1.86145 10.5 3.2325 10.5H8.0175C9.38855 10.5 10.5 9.38855 10.5 8.0175V3.2325C10.5 1.86145 9.38855 0.75 8.0175 0.75Z" fill="#DBDEE2"/>
<path d="M20.7675 0.75H15.9825C14.6115 0.75 13.5 1.86145 13.5 3.2325V8.0175C13.5 9.38855 14.6115 10.5 15.9825 10.5H20.7675C22.1385 10.5 23.25 9.38855 23.25 8.0175V3.2325C23.25 1.86145 22.1385 0.75 20.7675 0.75Z" fill="#DBDEE2"/>
<path d="M8.0175 13.5H3.2325C1.86145 13.5 0.75 14.6115 0.75 15.9825V20.7675C0.75 22.1385 1.86145 23.25 3.2325 23.25H8.0175C9.38855 23.25 10.5 22.1385 10.5 20.7675V15.9825C10.5 14.6115 9.38855 13.5 8.0175 13.5Z" fill="#DBDEE2"/>
<path d="M18.375 23.25C21.0674 23.25 23.25 21.0674 23.25 18.375C23.25 15.6826 21.0674 13.5 18.375 13.5C15.6826 13.5 13.5 15.6826 13.5 18.375C13.5 21.0674 15.6826 23.25 18.375 23.25Z" fill="#DBDEE2"/>
</g>
<defs>
<clipPath id="clip0_4178_2914">
<rect width="24" height="24" fill="white"/>
</clipPath>
</defs>
</svg>
