<svg width="24" height="24" viewBox="0 0 24 24" fill="none" xmlns="http://www.w3.org/2000/svg">
<path d="M18.3188 0H4.18125C2.70218 0 1.5 1.233 1.5 2.75V21.25C1.5 22.767 2.70218 24 4.18125 24H18.3188C19.7978 24 21 22.767 21 21.25V2.75C21 1.233 19.7978 0 18.3188 0ZM9.0855 18.72C9.37117 19.013 9.37117 19.488 9.0855 19.781C8.94315 19.927 8.75595 20 8.56875 20C8.38155 20 8.19435 19.927 8.052 19.78L7.35 19.061L6.648 19.781C6.50565 19.927 6.31845 20 6.13125 20C5.94405 20 5.75685 19.927 5.6145 19.78C5.32882 19.487 5.32882 19.012 5.6145 18.719L6.31553 18L5.61352 17.28C5.32785 16.987 5.32785 16.512 5.61352 16.219C5.8992 15.926 6.36233 15.926 6.648 16.219L7.35 16.939L8.052 16.219C8.33768 15.926 8.8008 15.926 9.08648 16.219C9.37215 16.512 9.37215 16.987 9.08648 17.28L8.38448 18L9.0855 18.72ZM8.56875 12.75H8.08125V13.25C8.08125 13.664 7.75365 14 7.35 14C6.94635 14 6.61875 13.664 6.61875 13.25V12.75H6.13125C5.7276 12.75 5.4 12.414 5.4 12C5.4 11.586 5.7276 11.25 6.13125 11.25H6.61875V10.75C6.61875 10.336 6.94635 10 7.35 10C7.75365 10 8.08125 10.336 8.08125 10.75V11.25H8.56875C8.9724 11.25 9.3 11.586 9.3 12C9.3 12.414 8.9724 12.75 8.56875 12.75ZM16.3688 20H13.9313C13.5276 20 13.2 19.664 13.2 19.25C13.2 18.836 13.5276 18.5 13.9313 18.5H16.3688C16.7724 18.5 17.1 18.836 17.1 19.25C17.1 19.664 16.7724 20 16.3688 20ZM16.3688 17.5H13.9313C13.5276 17.5 13.2 17.164 13.2 16.75C13.2 16.336 13.5276 16 13.9313 16H16.3688C16.7724 16 17.1 16.336 17.1 16.75C17.1 17.164 16.7724 17.5 16.3688 17.5ZM16.3688 13H13.9313C13.5276 13 13.2 12.664 13.2 12.25C13.2 11.836 13.5276 11.5 13.9313 11.5H16.3688C16.7724 11.5 17.1 11.836 17.1 12.25C17.1 12.664 16.7724 13 16.3688 13ZM18.075 6.25C18.075 7.215 17.3096 8 16.3688 8H6.13125C5.19038 8 4.425 7.215 4.425 6.25V4.75C4.425 3.785 5.19038 3 6.13125 3H16.3688C17.3096 3 18.075 3.785 18.075 4.75V6.25Z" fill="#DBDEE2"/>
</svg>
