<svg width="24" height="24" viewBox="0 0 24 24" fill="none" xmlns="http://www.w3.org/2000/svg">
<g clip-path="url(#clip0_4178_2938)">
<path d="M22.4233 3H18.165C18.0415 3 17.9219 3.04702 17.8276 3.13268L16.4893 4.34825C16.2153 4.59711 15.8135 4.59593 15.5408 4.34537L14.2207 3.13268C14.1179 3.04414 14.0044 3 13.8809 3H1.58691C0.710693 3 0 3.76227 0 4.70267V8.61659C0 9.25785 0.391846 9.81082 1 10.0319C1.63867 10.253 2.06104 10.8832 2.06104 11.6019C2.06104 12.3206 1.63867 12.9508 1 13.1719C0.391846 13.393 0 13.946 0 14.5872V19.2972C0 20.2376 0.710693 21 1.58716 21H13.8809C14.0078 21 14.1301 20.9511 14.2261 20.8623L15.5376 19.6494C15.8115 19.3961 16.2168 19.3954 16.4912 19.6478L17.8171 20.8672C17.9204 20.9557 18.0337 21 18.1572 21H22.4131C23.2896 21 24 20.2377 24 19.2973V14.5872C24 13.946 23.6086 13.393 23.0005 13.1719C22.3618 12.9508 21.9392 12.3206 21.9392 11.6019C21.9392 10.8832 22.3618 10.253 23.0005 10.0319C23.6086 9.81082 24 9.25785 24 8.61659V4.69167C24 3.76123 23.2905 3 22.4233 3ZM10.9609 12.2993L10.3589 12.9285L10.4902 13.8641C10.5666 14.4089 10.1834 14.8907 9.68018 14.8907C9.54883 14.8907 9.41772 14.8575 9.29443 14.7913L8.55347 14.369L7.76636 14.7913C7.48877 14.9487 7.15698 14.9238 6.90234 14.725C6.64746 14.5264 6.52417 14.1952 6.57056 13.8641L6.71704 12.9699L6.09961 12.2993C5.87598 12.0593 5.79883 11.7199 5.89136 11.3969C5.9917 11.0741 6.24658 10.8422 6.55518 10.8009L7.38843 10.6684L7.79736 9.8323C7.93628 9.52595 8.21387 9.34377 8.53027 9.33551C8.84668 9.33551 9.12451 9.52595 9.26343 9.8323L9.6416 10.6353L10.5056 10.8009C10.8145 10.8422 11.0691 11.0741 11.1692 11.3969C11.262 11.7199 11.1846 12.0593 10.9609 12.2993ZM16.9404 12.8691C16.9404 13.4616 16.4932 13.942 15.9404 13.942C15.3877 13.942 14.9404 13.4616 14.9404 12.8691V11.1308C14.9404 10.5383 15.3877 10.0578 15.9404 10.0578C16.4932 10.0578 16.9404 10.5383 16.9404 11.1308V12.8691Z" fill="#DBDEE2"/>
</g>
<defs>
<clipPath id="clip0_4178_2938">
<rect width="24" height="24" fill="white"/>
</clipPath>
</defs>
</svg>
