<svg width="24" height="24" viewBox="0 0 24 24" fill="none" xmlns="http://www.w3.org/2000/svg">
<path d="M15.2288 5.41125H8.77882C8.16607 5.41125 7.66882 4.914 7.66882 4.30125V2.61C7.66882 1.99725 8.16607 1.5 8.77882 1.5H15.2288C15.8416 1.5 16.3388 1.99725 16.3388 2.61V4.30125C16.3388 4.91475 15.8416 5.41125 15.2288 5.41125Z" fill="#DBDEE2"/>
<path d="M18.4051 3.45752H17.4638V4.30127C17.4638 5.53352 16.4611 6.53627 15.2288 6.53627H8.7788C7.5458 6.53627 6.5438 5.53352 6.5438 4.30127V3.45752H5.61005C4.12505 3.45752 2.92505 4.65752 2.92505 6.14252V19.815C2.92505 21.3 4.12505 22.5 5.61005 22.5H18.3901C19.8751 22.5 21.0751 21.3 21.0751 19.815V6.14252C21.0751 4.65002 19.8901 3.45752 18.4051 3.45752ZM10.836 14.5823H7.58255C7.2098 14.5823 6.90755 14.28 6.90755 13.9073C6.90755 13.5345 7.2098 13.2323 7.58255 13.2323H10.836C11.2088 13.2323 11.511 13.5345 11.511 13.9073C11.511 14.28 11.2088 14.5823 10.836 14.5823ZM14.8201 10.7513H7.58255C7.2098 10.7513 6.90755 10.449 6.90755 10.0763C6.90755 9.70352 7.2098 9.40127 7.58255 9.40127H14.8193C15.1921 9.40127 15.4943 9.70352 15.4943 10.0763C15.4943 10.449 15.1928 10.7513 14.8201 10.7513Z" fill="#DBDEE2"/>
</svg>
