<svg width="24" height="24" viewBox="0 0 24 24" fill="none" xmlns="http://www.w3.org/2000/svg">
<g clip-path="url(#clip0_4178_2960)">
<path d="M14.9998 13C14.4469 13 13.9999 13.448 13.9999 13.9999V18C13.9999 18.551 13.5519 18.9999 12.9998 18.9999H9.99984V4.00008C9.99984 3.14609 9.45583 2.38309 8.63791 2.0991L8.34183 2.00004H12.9998C13.5519 2.00004 13.9999 2.44901 13.9999 3.00015V6.00012C13.9999 6.55199 14.4469 7.00005 14.9998 7.00005C15.5528 7.00005 15.9998 6.55199 15.9998 6.00012V3.00015C15.9998 1.34618 14.6538 0.000183105 12.9998 0.000183105H2.24998C2.21189 0.000183105 2.18003 0.0172118 2.14304 0.0221555C2.09489 0.0181273 2.04893 0.000183105 2.00004 0.000183105C0.897024 0.000183105 0 0.897024 0 2.00004V19.9999C0 20.8538 0.544001 21.6168 1.36192 21.9008L7.37999 23.9069C7.58397 23.9699 7.78685 23.9999 7.99998 23.9999C9.10299 23.9999 9.99984 23.1029 9.99984 21.9999V21H12.9998C14.6538 21 15.9998 19.654 15.9998 18V13.9999C15.9998 13.448 15.5528 13 14.9998 13Z" fill="white" fill-opacity="0.85"/>
<path d="M23.7067 9.29317L19.7067 5.29327C19.4208 5.00726 18.9907 4.9212 18.6168 5.07611C18.2438 5.2312 17.9998 5.59612 17.9998 6.00023V9.0002H13.9999C13.4478 9.0002 12.9998 9.44807 12.9998 10.0001C12.9998 10.5522 13.4478 11.0001 13.9999 11.0001H17.9998V14C17.9998 14.4041 18.2438 14.7691 18.6168 14.9241C18.9907 15.0791 19.4208 14.993 19.7067 14.7072L23.7067 10.7071C24.0977 10.3162 24.0977 9.68409 23.7067 9.29317Z" fill="white"/>
</g>
<defs>
<clipPath id="clip0_4178_2960">
<rect width="24" height="24" fill="white"/>
</clipPath>
</defs>
</svg>
