<svg width="14" height="14" viewBox="0 0 14 14" fill="none" xmlns="http://www.w3.org/2000/svg">
<path d="M12.8333 1.16667H1.16659C0.708252 1.16667 0.333252 1.54167 0.333252 2.00001C0.333252 2.45834 0.708252 2.83334 1.16659 2.83334H12.8333C13.2916 2.83334 13.6666 2.45834 13.6666 2.00001C13.6666 1.54167 13.2916 1.16667 12.8333 1.16667Z" fill="white"/>
<path d="M12.8333 5.33334H1.16659C0.708252 5.33334 0.333252 5.70834 0.333252 6.16668C0.333252 6.62501 0.708252 7.00001 1.16659 7.00001H12.8333C13.2916 7.00001 13.6666 6.62501 13.6666 6.16668C13.6666 5.70834 13.2916 5.33334 12.8333 5.33334Z" fill="white"/>
<path d="M6.99992 9.5H1.16659C0.708252 9.5 0.333252 9.875 0.333252 10.3333C0.333252 10.7917 0.708252 11.1667 1.16659 11.1667H6.99992C7.45825 11.1667 7.83325 10.7917 7.83325 10.3333C7.83325 9.875 7.45825 9.5 6.99992 9.5Z" fill="white"/>
<path d="M12.8332 9.50001H11.9998V8.66668C11.9998 8.20834 11.6248 7.83334 11.1665 7.83334C10.7082 7.83334 10.3332 8.20834 10.3332 8.66668V9.50001H9.49984C9.0415 9.50001 8.6665 9.87501 8.6665 10.3333C8.6665 10.7917 9.0415 11.1667 9.49984 11.1667H10.3332V12C10.3332 12.4583 10.7082 12.8333 11.1665 12.8333C11.6248 12.8333 11.9998 12.4583 11.9998 12V11.1667H12.8332C13.2915 11.1667 13.6665 10.7917 13.6665 10.3333C13.6665 9.87501 13.2915 9.50001 12.8332 9.50001Z" fill="white"/>
</svg>
