<svg width="20" height="20" viewBox="0 0 20 20" fill="none" xmlns="http://www.w3.org/2000/svg">
<path d="M15.8333 1.875H4.16659C3.78049 1.87719 3.41082 2.03154 3.13781 2.30456C2.86479 2.57757 2.71044 2.94724 2.70825 3.33334V4.69167C2.70846 5.03984 2.83252 5.37658 3.05825 5.64167L7.70825 11.0667V16.15C7.70726 16.3989 7.77038 16.6439 7.89152 16.8614C8.01266 17.0789 8.18774 17.2615 8.39992 17.3917C8.62929 17.5362 8.8955 17.6114 9.16659 17.6083C9.39183 17.6083 9.61412 17.557 9.81659 17.4583L11.4833 16.625C11.7318 16.5082 11.9421 16.3233 12.0896 16.0916C12.2371 15.86 12.3158 15.5913 12.3166 15.3167V11.0667L16.9666 5.64167C17.1923 5.37658 17.3164 5.03984 17.3166 4.69167V3.33334C17.3155 3.14002 17.2762 2.94883 17.201 2.77076C17.1257 2.59268 17.016 2.43124 16.8782 2.29571C16.7403 2.16018 16.577 2.05324 16.3977 1.98104C16.2184 1.90884 16.0266 1.8728 15.8333 1.875ZM16.0416 4.69167C16.0427 4.74089 16.0248 4.78863 15.9916 4.825L11.1916 10.425C11.0936 10.5384 11.0403 10.6835 11.0416 10.8333V15.3167C11.0425 15.3564 11.0319 15.3956 11.0113 15.4296C10.9906 15.4635 10.9606 15.4909 10.9249 15.5083L9.25825 16.3417C9.22815 16.3601 9.19354 16.3698 9.15825 16.3698C9.12296 16.3698 9.08836 16.3601 9.05825 16.3417C9.02631 16.3255 8.99982 16.3002 8.98205 16.2691C8.96427 16.238 8.956 16.2024 8.95825 16.1667V10.8333C8.95951 10.6835 8.90619 10.5384 8.80825 10.425L4.00825 4.825C3.97508 4.78863 3.95718 4.74089 3.95825 4.69167V3.33334C3.95825 3.27808 3.9802 3.22509 4.01927 3.18602C4.05834 3.14695 4.11133 3.125 4.16659 3.125H15.8333C15.8885 3.125 15.9415 3.14695 15.9806 3.18602C16.0196 3.22509 16.0416 3.27808 16.0416 3.33334V4.69167Z" fill="#00264D"/>
</svg>
