<svg width="17" height="17" viewBox="0 0 17 17" fill="none" xmlns="http://www.w3.org/2000/svg">
<g clip-path="url(#clip0_4046_32823)">
<path d="M13.1666 3.16667C13.1666 2.45942 12.8857 1.78115 12.3856 1.28105C11.8855 0.780952 11.2072 0.5 10.5 0.5L6.49998 0.5C5.79274 0.5 5.11446 0.780952 4.61436 1.28105C4.11426 1.78115 3.83331 2.45942 3.83331 3.16667V3.83333H13.1666V3.16667Z" fill="#698096"/>
<path d="M11.1666 10.5H5.83331C4.72874 10.5 3.83331 11.3954 3.83331 12.5V14.5C3.83331 15.6046 4.72874 16.5 5.83331 16.5H11.1666C12.2712 16.5 13.1666 15.6046 13.1666 14.5V12.5C13.1666 11.3954 12.2712 10.5 11.1666 10.5Z" fill="#698096"/>
<path d="M13.1667 5.16666H3.83333C2.9496 5.16772 2.10237 5.51925 1.47748 6.14414C0.852588 6.76904 0.501059 7.61627 0.5 8.5L0.5 11.1667C0.500852 11.8145 0.69047 12.4481 1.04567 12.9899C1.40086 13.5316 1.90624 13.9582 2.5 14.2173V12.5C2.50106 11.6163 2.85259 10.769 3.47748 10.1441C4.10237 9.51925 4.9496 9.16772 5.83333 9.16666H11.1667C12.0504 9.16772 12.8976 9.51925 13.5225 10.1441C14.1474 10.769 14.4989 11.6163 14.5 12.5V14.2173C15.0938 13.9582 15.5991 13.5316 15.9543 12.9899C16.3095 12.4481 16.4991 11.8145 16.5 11.1667V8.5C16.4989 7.61627 16.1474 6.76904 15.5225 6.14414C14.8976 5.51925 14.0504 5.16772 13.1667 5.16666ZM12.5 7.83333H11.1667C10.9899 7.83333 10.8203 7.76309 10.6953 7.63807C10.5702 7.51304 10.5 7.34348 10.5 7.16666C10.5 6.98985 10.5702 6.82028 10.6953 6.69526C10.8203 6.57024 10.9899 6.5 11.1667 6.5H12.5C12.6768 6.5 12.8464 6.57024 12.9714 6.69526C13.0964 6.82028 13.1667 6.98985 13.1667 7.16666C13.1667 7.34348 13.0964 7.51304 12.9714 7.63807C12.8464 7.76309 12.6768 7.83333 12.5 7.83333Z" fill="#698096"/>
</g>
<defs>
<clipPath id="clip0_4046_32823">
<rect width="16" height="16" fill="white" transform="translate(0.5 0.5)"/>
</clipPath>
</defs>
</svg>
