<svg width="17" height="17" viewBox="0 0 17 17" fill="none" xmlns="http://www.w3.org/2000/svg">
<g clip-path="url(#clip0_4046_32827)">
<path d="M8.5 5.16667V0.806667C9.10867 1.03733 9.66867 1.39267 10.1433 1.86667L12.466 4.19067C12.9407 4.66467 13.296 5.22467 13.5267 5.83333H9.16667C8.79867 5.83333 8.5 5.534 8.5 5.16667ZM9.34667 13.4867C8.80467 14.0287 8.5 14.7633 8.5 15.53V16.5H9.47C10.2367 16.5 10.9713 16.1953 11.5133 15.6533L16.0513 11.1153C16.6493 10.5173 16.6493 9.54667 16.0513 8.94867C15.4533 8.35067 14.4827 8.35067 13.8847 8.94867L9.34667 13.4867ZM7.16667 15.53C7.16667 14.402 7.606 13.3413 8.40333 12.544L12.9413 8.006C13.2007 7.74667 13.5027 7.54733 13.8287 7.40533C13.826 7.32533 13.8227 7.246 13.8173 7.166H9.16667C8.064 7.166 7.16667 6.26867 7.16667 5.166V0.516C7.05933 0.508667 6.952 0.5 6.84333 0.5H3.83333C1.99533 0.5 0.5 1.99533 0.5 3.83333V13.1667C0.5 15.0047 1.99533 16.5 3.83333 16.5H7.16667V15.53Z" fill="#698096"/>
</g>
<defs>
<clipPath id="clip0_4046_32827">
<rect width="16" height="16" fill="white" transform="translate(0.5 0.5)"/>
</clipPath>
</defs>
</svg>
