<svg width="24" height="24" viewBox="0 0 24 24" fill="none" xmlns="http://www.w3.org/2000/svg">
<path fill-rule="evenodd" clip-rule="evenodd" d="M21 2.58138V22.465C21 22.7559 20.8284 23.0228 20.5543 23.1588C20.2802 23.2949 19.9492 23.2771 19.6929 23.1128L16.9128 21.3306L14.2842 23.1023C13.9689 23.3158 13.5387 23.2959 13.2468 23.0552L11.25 21.4153L9.2532 23.0552C8.96126 23.2959 8.53114 23.3158 8.2158 23.1023L5.5872 21.3306L2.80706 23.1128C2.55077 23.2771 2.21983 23.2949 1.94571 23.1588C1.6716 23.0228 1.5 22.7559 1.5 22.465V2.58138C1.5 1.57046 2.37249 0.75 3.45 0.75H19.05C20.1275 0.75 21 1.57046 21 2.58138ZM6.79286 10.6918H15.7071C16.1685 10.6918 16.5429 10.3402 16.5429 9.90692C16.5429 9.47367 16.1685 9.12204 15.7071 9.12204H6.79286C6.33154 9.12204 5.95714 9.47367 5.95714 9.90692C5.95714 10.3402 6.33154 10.6918 6.79286 10.6918ZM6.79286 6.50578H15.7071C16.1685 6.50578 16.5429 6.15415 16.5429 5.7209C16.5429 5.28765 16.1685 4.93602 15.7071 4.93602H6.79286C6.33154 4.93602 5.95714 5.28765 5.95714 5.7209C5.95714 6.15415 6.33154 6.50578 6.79286 6.50578ZM6.79286 14.8778H11.25C11.7113 14.8778 12.0857 14.5262 12.0857 14.0929C12.0857 13.6597 11.7113 13.3081 11.25 13.3081H6.79286C6.33154 13.3081 5.95714 13.6597 5.95714 14.0929C5.95714 14.5262 6.33154 14.8778 6.79286 14.8778Z" fill="white"/>
</svg>
