<svg width="24" height="24" viewBox="0 0 24 24" fill="none" xmlns="http://www.w3.org/2000/svg">
<g clip-path="url(#clip0_4178_2794)">
<path d="M19.8938 13.5619H18.0957C18.279 14.0799 18.3791 14.6388 18.3791 15.2215V22.2363C18.3791 22.4792 18.3381 22.7124 18.2636 22.9292H21.2362C22.3466 22.9292 23.25 21.9967 23.25 20.8505V17.0264C23.25 15.1161 21.7444 13.5619 19.8938 13.5619Z" fill="white" fill-opacity="0.85"/>
<path d="M4.87093 15.2215C4.87093 14.6389 4.97106 14.0799 5.15434 13.562H3.35627C1.50562 13.562 0 15.1161 0 17.0265V20.8506C0 21.9968 0.903346 22.9293 2.01376 22.9293H4.98641C4.91189 22.7124 4.87093 22.4793 4.87093 22.2364V15.2215Z" fill="white" fill-opacity="0.85"/>
<path d="M13.6803 11.757H9.56965C7.719 11.757 6.21338 13.3112 6.21338 15.2215V22.2364C6.21338 22.619 6.5139 22.9293 6.88463 22.9293H16.3653C16.736 22.9293 17.0365 22.6191 17.0365 22.2364V15.2215C17.0365 13.3112 15.5309 11.757 13.6803 11.757Z" fill="white" fill-opacity="0.85"/>
<path d="M11.6251 2.57062C9.39943 2.57062 7.58875 4.43971 7.58875 6.7372C7.58875 8.29557 8.42198 9.65658 9.6525 10.3711C10.2362 10.7101 10.9091 10.9037 11.6251 10.9037C12.3411 10.9037 13.014 10.7101 13.5977 10.3711C14.8282 9.65658 15.6614 8.29552 15.6614 6.7372C15.6614 4.43976 13.8507 2.57062 11.6251 2.57062Z" fill="white" fill-opacity="0.85"/>
<path d="M4.53732 6.45419C2.87281 6.45419 1.51868 7.85201 1.51868 9.57021C1.51868 11.2884 2.87281 12.6862 4.53732 12.6862C4.95955 12.6862 5.36161 12.596 5.72684 12.4337C6.35832 12.153 6.87899 11.6563 7.20118 11.034C7.42732 10.5972 7.55597 10.099 7.55597 9.57021C7.55597 7.85206 6.20184 6.45419 4.53732 6.45419Z" fill="white" fill-opacity="0.85"/>
<path d="M18.7127 6.45419C17.0482 6.45419 15.6941 7.85201 15.6941 9.57021C15.6941 10.0991 15.8227 10.5973 16.0489 11.034C16.3711 11.6563 16.8917 12.1531 17.5232 12.4337C17.8885 12.596 18.2905 12.6862 18.7127 12.6862C20.3773 12.6862 21.7314 11.2884 21.7314 9.57021C21.7314 7.85201 20.3773 6.45419 18.7127 6.45419Z" fill="white" fill-opacity="0.85"/>
</g>
<defs>
<clipPath id="clip0_4178_2794">
<rect width="23.25" height="24" fill="white" transform="translate(0 0.75)"/>
</clipPath>
</defs>
</svg>
