<svg width="24" height="24" viewBox="0 0 24 24" fill="none" xmlns="http://www.w3.org/2000/svg">
<g clip-path="url(#clip0_4178_2847)">
<path d="M16.4651 8.13097e-07H3.06977C2.66656 -0.000292751 2.26725 0.0789088 1.89467 0.233075C1.5221 0.387242 1.18357 0.613348 0.898461 0.898461C0.613348 1.18357 0.387242 1.5221 0.233075 1.89467C0.0789088 2.26725 -0.000292751 2.66656 8.13097e-07 3.06977V20.9302C-0.000292751 21.3335 0.0789088 21.7328 0.233075 22.1053C0.387242 22.4779 0.613348 22.8164 0.898461 23.1016C1.18357 23.3867 1.5221 23.6128 1.89467 23.7669C2.26725 23.9211 2.66656 24.0003 3.06977 24H13.6633C12.2594 23.147 11.1732 21.8579 10.5708 20.3296C9.96828 18.8013 9.88255 17.1178 10.3267 15.5362C10.7708 13.9547 11.7203 12.5619 13.0303 11.5706C14.3403 10.5794 15.9387 10.0441 17.5814 10.0465C18.2418 10.0447 18.8993 10.1349 19.5349 10.3144V3.06977C19.5352 2.66656 19.456 2.26725 19.3018 1.89467C19.1477 1.5221 18.9215 1.18357 18.6364 0.898461C18.3513 0.613348 18.0128 0.387242 17.6402 0.233075C17.2676 0.0789088 16.8683 -0.000292751 16.4651 8.13097e-07ZM9.76745 10.6047H4.18605C3.96401 10.6047 3.75106 10.5165 3.59405 10.3594C3.43705 10.2024 3.34884 9.98949 3.34884 9.76745C3.34884 9.54541 3.43705 9.33246 3.59405 9.17545C3.75106 9.01845 3.96401 8.93024 4.18605 8.93024H9.76745C9.98949 8.93024 10.2024 9.01845 10.3594 9.17545C10.5165 9.33246 10.6047 9.54541 10.6047 9.76745C10.6047 9.98949 10.5165 10.2024 10.3594 10.3594C10.2024 10.5165 9.98949 10.6047 9.76745 10.6047ZM12 6.13954H4.18605C3.96401 6.13954 3.75106 6.05133 3.59405 5.89433C3.43705 5.73732 3.34884 5.52437 3.34884 5.30233C3.34884 5.08029 3.43705 4.86734 3.59405 4.71033C3.75106 4.55333 3.96401 4.46512 4.18605 4.46512H12C12.222 4.46512 12.435 4.55333 12.592 4.71033C12.749 4.86734 12.8372 5.08029 12.8372 5.30233C12.8372 5.52437 12.749 5.73732 12.592 5.89433C12.435 6.05133 12.222 6.13954 12 6.13954Z" fill="white" fill-opacity="0.85"/>
<path d="M17.5815 11.1628C16.312 11.1628 15.071 11.5392 14.0155 12.2445C12.9599 12.9498 12.1372 13.9523 11.6514 15.1251C11.1656 16.298 11.0385 17.5885 11.2862 18.8336C11.5338 20.0787 12.1452 21.2224 13.0428 22.12C13.9405 23.0177 15.0842 23.629 16.3292 23.8767C17.5743 24.1243 18.8649 23.9972 20.0377 23.5114C21.2106 23.0256 22.213 22.2029 22.9183 21.1474C23.6236 20.0919 24.0001 18.8509 24.0001 17.5814C23.998 15.8797 23.3211 14.2483 22.1178 13.045C20.9145 11.8418 19.2831 11.1649 17.5815 11.1628ZM19.8475 17.0568L17.6149 19.2893C17.5374 19.3672 17.4452 19.429 17.3436 19.4712C17.2421 19.5134 17.1333 19.5351 17.0233 19.5351C16.9134 19.5351 16.8045 19.5134 16.703 19.4712C16.6015 19.429 16.5093 19.3672 16.4317 19.2893L15.3154 18.173C15.2332 18.0964 15.1672 18.004 15.1214 17.9013C15.0757 17.7986 15.0511 17.6877 15.0491 17.5753C15.0471 17.4629 15.0678 17.3512 15.1099 17.247C15.152 17.1427 15.2147 17.048 15.2942 16.9685C15.3737 16.889 15.4684 16.8264 15.5726 16.7842C15.6768 16.7421 15.7885 16.7215 15.9009 16.7234C16.0133 16.7254 16.1242 16.75 16.2269 16.7958C16.3296 16.8415 16.422 16.9075 16.4987 16.9898L17.0233 17.5133L18.6642 15.8735C18.7409 15.7912 18.8333 15.7253 18.936 15.6795C19.0387 15.6337 19.1496 15.6091 19.262 15.6072C19.3744 15.6052 19.4861 15.6259 19.5903 15.668C19.6946 15.7101 19.7893 15.7727 19.8688 15.8522C19.9483 15.9317 20.0109 16.0264 20.053 16.1307C20.0951 16.2349 20.1158 16.3466 20.1138 16.459C20.1118 16.5714 20.0872 16.6823 20.0415 16.785C19.9957 16.8877 19.9298 16.9801 19.8475 17.0568Z" fill="white" fill-opacity="0.85"/>
</g>
<defs>
<clipPath id="clip0_4178_2847">
<rect width="24" height="24" fill="white"/>
</clipPath>
</defs>
</svg>
