<svg width="24" height="24" viewBox="0 0 24 24" fill="none" xmlns="http://www.w3.org/2000/svg">
<g clip-path="url(#clip0_4178_2863)">
<path d="M10.3723 -1.14441e-05C9.89362 -1.14441e-05 9.51064 0.0999886 9.22341 0.299989C8.93617 0.399989 8.64894 0.599989 8.3617 0.899989L3.95745 5.29999C3.67021 5.49999 3.47872 5.79999 3.28723 6.19999C3.09574 6.59999 3 7.09999 3 7.49999V20.9C3 22.6 4.34043 24 5.96809 24H18.0319C19.6596 24 21 22.6 21 20.9V3.09999C21 1.39999 19.6596 -1.14441e-05 18.0319 -1.14441e-05H10.3723ZM10.1809 19.2C8.26596 18.8 6.73404 17.1 6.35106 15.1C5.7766 11.9 7.88298 9.09999 10.7553 8.69999C11.0426 8.69999 11.3298 8.89999 11.3298 9.29999V13.5C11.3298 13.8 11.617 14.1 11.9043 14.1H15.9255C16.2128 14.1 16.5 14.4 16.5 14.7C16.0213 17.7 13.2447 19.9 10.1809 19.2ZM17.7447 12H13.7234C13.4362 12 13.1489 11.7 13.1489 11.4V7.29999C13.1489 6.99999 13.4362 6.69999 13.7234 6.69999C16.0213 6.99999 17.8404 8.89999 18.1277 11.3C18.3191 11.7 18.1277 12 17.7447 12Z" fill="#DBDEE2"/>
</g>
<defs>
<clipPath id="clip0_4178_2863">
<rect width="24" height="24" fill="white"/>
</clipPath>
</defs>
</svg>
