<svg width="32" height="32" viewBox="0 0 32 32" fill="none" xmlns="http://www.w3.org/2000/svg">
<path d="M18 6V26C18 26.2652 17.8947 26.5196 17.7071 26.7071C17.5196 26.8946 17.2652 27 17 27C16.7348 27 16.4805 26.8946 16.2929 26.7071C16.1054 26.5196 16 26.2652 16 26V7.76625L12.515 9.8575C12.2876 9.99409 12.0152 10.0347 11.7578 9.97051C11.5004 9.90628 11.2791 9.74243 11.1425 9.51501C11.0059 9.28758 10.9653 9.01521 11.0295 8.75782C11.0938 8.50043 11.2576 8.27909 11.485 8.1425L16.485 5.1425C16.6368 5.05133 16.81 5.00208 16.987 4.99978C17.1641 4.99748 17.3385 5.04222 17.4926 5.12943C17.6467 5.21663 17.7748 5.34318 17.864 5.49613C17.9531 5.64909 18.0001 5.82297 18 6Z" fill="black"/>
</svg>
