<svg width="32" height="32" viewBox="0 0 32 32" fill="none" xmlns="http://www.w3.org/2000/svg">
<path d="M21.9999 20C21.9998 21.3512 21.6087 22.6735 20.8737 23.8074C20.1387 24.9412 19.0912 25.838 17.8577 26.3897C16.6243 26.9413 15.2575 27.1242 13.9224 26.9162C12.5872 26.7082 11.3409 26.1182 10.3337 25.2175C10.2308 25.1315 10.1463 25.0256 10.0852 24.9062C10.0241 24.7869 9.98763 24.6564 9.97795 24.5227C9.96827 24.3889 9.98559 24.2546 10.0289 24.1277C10.0722 24.0008 10.1405 23.8839 10.2299 23.7839C10.3193 23.684 10.4279 23.603 10.5492 23.5459C10.6705 23.4887 10.8021 23.4566 10.9361 23.4513C11.0701 23.446 11.2038 23.4678 11.3292 23.5152C11.4546 23.5627 11.5692 23.6349 11.6662 23.7275C12.2703 24.2676 12.9967 24.6528 13.7827 24.8499C14.5688 25.047 15.391 25.05 16.1785 24.8588C16.966 24.6676 17.6952 24.2878 18.3033 23.7522C18.9115 23.2166 19.3803 22.5412 19.6695 21.7842C19.9587 21.0271 20.0595 20.2112 19.9633 19.4065C19.8671 18.6018 19.5768 17.8326 19.1173 17.1651C18.6579 16.4976 18.043 15.9517 17.3258 15.5745C16.6085 15.1974 15.8103 15.0002 14.9999 15C14.8142 15 14.6322 14.9483 14.4742 14.8507C14.3162 14.753 14.1885 14.6133 14.1055 14.4472C14.0224 14.2811 13.9873 14.0952 14.0039 13.9102C14.0206 13.7252 14.0885 13.5486 14.1999 13.4L18.9999 7H10.9999C10.7347 7 10.4803 6.89464 10.2928 6.70711C10.1053 6.51957 9.99991 6.26522 9.99991 6C9.99991 5.73478 10.1053 5.48043 10.2928 5.29289C10.4803 5.10536 10.7347 5 10.9999 5H20.9999C21.1856 5 21.3677 5.05171 21.5256 5.14935C21.6836 5.24698 21.8113 5.38668 21.8943 5.55279C21.9774 5.71889 22.0125 5.90484 21.9959 6.08981C21.9792 6.27477 21.9113 6.45143 21.7999 6.6L16.8199 13.24C18.3055 13.6422 19.6175 14.5219 20.5536 15.7436C21.4898 16.9652 21.998 18.4609 21.9999 20Z" fill="black"/>
</svg>
