<svg width="32" height="32" viewBox="0 0 32 32" fill="none" xmlns="http://www.w3.org/2000/svg">
<path opacity="0.2" d="M29 12H3L16 4L29 12Z" fill="#ED8C45"/>
<path d="M3 13.0001H6V21.0001H4C3.73478 21.0001 3.48043 21.1055 3.29289 21.293C3.10536 21.4805 3 21.7349 3 22.0001C3 22.2653 3.10536 22.5197 3.29289 22.7072C3.48043 22.8948 3.73478 23.0001 4 23.0001H28C28.2652 23.0001 28.5196 22.8948 28.7071 22.7072C28.8946 22.5197 29 22.2653 29 22.0001C29 21.7349 28.8946 21.4805 28.7071 21.293C28.5196 21.1055 28.2652 21.0001 28 21.0001H26V13.0001H29C29.2176 12.9999 29.4292 12.9287 29.6026 12.7974C29.7761 12.666 29.902 12.4817 29.9612 12.2723C30.0205 12.063 30.0098 11.84 29.9308 11.6373C29.8519 11.4345 29.709 11.263 29.5238 11.1489L16.5238 3.14886C16.3662 3.05201 16.1849 3.00073 16 3.00073C15.8151 3.00073 15.6338 3.05201 15.4762 3.14886L2.47625 11.1489C2.29103 11.263 2.14811 11.4345 2.06916 11.6373C1.99021 11.84 1.97955 12.063 2.03878 12.2723C2.09801 12.4817 2.22391 12.666 2.39738 12.7974C2.57085 12.9287 2.78242 12.9999 3 13.0001ZM8 13.0001H12V21.0001H8V13.0001ZM18 13.0001V21.0001H14V13.0001H18ZM24 21.0001H20V13.0001H24V21.0001ZM16 5.17386L25.4675 11.0001H6.5325L16 5.17386ZM31 26.0001C31 26.2653 30.8946 26.5197 30.7071 26.7072C30.5196 26.8948 30.2652 27.0001 30 27.0001H2C1.73478 27.0001 1.48043 26.8948 1.29289 26.7072C1.10536 26.5197 1 26.2653 1 26.0001C1 25.7349 1.10536 25.4805 1.29289 25.293C1.48043 25.1055 1.73478 25.0001 2 25.0001H30C30.2652 25.0001 30.5196 25.1055 30.7071 25.293C30.8946 25.4805 31 25.7349 31 26.0001Z" fill="#1F7CCC"/>
</svg>
