<svg width="32" height="32" viewBox="0 0 32 32" fill="none" xmlns="http://www.w3.org/2000/svg">
<path d="M17.7076 16.7075L7.70757 26.7075C7.51993 26.8951 7.26543 27.0006 7.00007 27.0006C6.7347 27.0006 6.48021 26.8951 6.29257 26.7075C6.10493 26.5199 5.99951 26.2654 5.99951 26C5.99951 25.7346 6.10493 25.4801 6.29257 25.2925L15.5863 16L6.29257 6.70751C6.10493 6.51987 5.99951 6.26537 5.99951 6.00001C5.99951 5.73464 6.10493 5.48015 6.29257 5.29251C6.48021 5.10487 6.7347 4.99945 7.00007 4.99945C7.26543 4.99945 7.51993 5.10487 7.70757 5.29251L17.7076 15.2925C17.8005 15.3854 17.8743 15.4957 17.9246 15.6171C17.975 15.7385 18.0009 15.8686 18.0009 16C18.0009 16.1314 17.975 16.2615 17.9246 16.3829C17.8743 16.5043 17.8005 16.6146 17.7076 16.7075ZM27.7076 15.2925L17.7076 5.29251C17.5199 5.10487 17.2654 4.99945 17.0001 4.99945C16.7347 4.99945 16.4802 5.10487 16.2926 5.29251C16.1049 5.48015 15.9995 5.73464 15.9995 6.00001C15.9995 6.26537 16.1049 6.51987 16.2926 6.70751L25.5863 16L16.2926 25.2925C16.1049 25.4801 15.9995 25.7346 15.9995 26C15.9995 26.2654 16.1049 26.5199 16.2926 26.7075C16.4802 26.8951 16.7347 27.0006 17.0001 27.0006C17.2654 27.0006 17.5199 26.8951 17.7076 26.7075L27.7076 16.7075C27.8005 16.6146 27.8743 16.5043 27.9246 16.3829C27.975 16.2615 28.0009 16.1314 28.0009 16C28.0009 15.8686 27.975 15.7385 27.9246 15.6171C27.8743 15.4957 27.8005 15.3854 27.7076 15.2925Z" fill="black"/>
</svg>
