<svg width="32" height="32" viewBox="0 0 32 32" fill="none" xmlns="http://www.w3.org/2000/svg">
<path opacity="0.2" d="M16 16.1363V29C15.832 28.9993 15.667 28.9563 15.52 28.875L4.52 22.8525C4.36293 22.7666 4.23181 22.64 4.14035 22.4861C4.04888 22.3322 4.00041 22.1566 4 21.9775V10.0225C4.0004 9.88246 4.03021 9.74405 4.0875 9.61626L16 16.1363Z" fill="#FD5023"/>
<path d="M27.96 8.26876L16.96 2.25001C16.6661 2.08761 16.3358 2.00243 16 2.00243C15.6642 2.00243 15.3339 2.08761 15.04 2.25001L4.04 8.27126C3.72586 8.44314 3.46363 8.69621 3.28069 9.00404C3.09775 9.31187 3.00081 9.66317 3 10.0213V21.9763C3.00081 22.3343 3.09775 22.6856 3.28069 22.9935C3.46363 23.3013 3.72586 23.5544 4.04 23.7263L15.04 29.7475C15.3339 29.9099 15.6642 29.9951 16 29.9951C16.3358 29.9951 16.6661 29.9099 16.96 29.7475L27.96 23.7263C28.2741 23.5544 28.5364 23.3013 28.7193 22.9935C28.9023 22.6856 28.9992 22.3343 29 21.9763V10.0225C28.9999 9.66378 28.9032 9.3117 28.7203 9.00315C28.5373 8.6946 28.2747 8.44094 27.96 8.26876ZM16 4.00001L26.0425 9.50001L22.3213 11.5375L12.2775 6.03751L16 4.00001ZM16 15L5.9575 9.50001L10.195 7.18001L20.2375 12.68L16 15ZM5 11.25L15 16.7225V27.4463L5 21.9775V11.25ZM27 21.9725L17 27.4463V16.7275L21 14.5388V19C21 19.2652 21.1054 19.5196 21.2929 19.7071C21.4804 19.8947 21.7348 20 22 20C22.2652 20 22.5196 19.8947 22.7071 19.7071C22.8946 19.5196 23 19.2652 23 19V13.4438L27 11.25V21.9713V21.9725Z" fill="#343E7A"/>
</svg>
