<svg width="32" height="32" viewBox="0 0 32 32" fill="none" xmlns="http://www.w3.org/2000/svg">
<path d="M25.7076 25.2925C25.8005 25.3854 25.8742 25.4957 25.9244 25.6171C25.9747 25.7385 26.0006 25.8686 26.0006 26C26.0006 26.1314 25.9747 26.2615 25.9244 26.3829C25.8742 26.5043 25.8005 26.6146 25.7076 26.7075C25.6146 26.8004 25.5043 26.8741 25.3829 26.9244C25.2616 26.9747 25.1314 27.0006 25.0001 27.0006C24.8687 27.0006 24.7386 26.9747 24.6172 26.9244C24.4958 26.8741 24.3855 26.8004 24.2926 26.7075L14.2926 16.7075C14.1996 16.6146 14.1258 16.5043 14.0755 16.3829C14.0252 16.2615 13.9993 16.1314 13.9993 16C13.9993 15.8686 14.0252 15.7385 14.0755 15.6171C14.1258 15.4957 14.1996 15.3854 14.2926 15.2925L24.2926 5.29251C24.4802 5.10487 24.7347 4.99945 25.0001 4.99945C25.2654 4.99945 25.5199 5.10487 25.7076 5.29251C25.8952 5.48015 26.0006 5.73464 26.0006 6.00001C26.0006 6.26537 25.8952 6.51987 25.7076 6.70751L16.4138 16L25.7076 25.2925ZM6.4138 16L15.7076 6.70751C15.8952 6.51987 16.0006 6.26537 16.0006 6.00001C16.0006 5.73464 15.8952 5.48015 15.7076 5.29251C15.5199 5.10487 15.2654 4.99945 15.0001 4.99945C14.7347 4.99945 14.4802 5.10487 14.2926 5.29251L4.29255 15.2925C4.19958 15.3854 4.12582 15.4957 4.07549 15.6171C4.02517 15.7385 3.99927 15.8686 3.99927 16C3.99927 16.1314 4.02517 16.2615 4.07549 16.3829C4.12582 16.5043 4.19958 16.6146 4.29255 16.7075L14.2926 26.7075C14.3855 26.8004 14.4958 26.8741 14.6172 26.9244C14.7386 26.9747 14.8687 27.0006 15.0001 27.0006C15.1314 27.0006 15.2616 26.9747 15.383 26.9244C15.5043 26.8741 15.6146 26.8004 15.7076 26.7075C15.8005 26.6146 15.8742 26.5043 15.9244 26.3829C15.9747 26.2615 16.0006 26.1314 16.0006 26C16.0006 25.8686 15.9747 25.7385 15.9244 25.6171C15.8742 25.4957 15.8005 25.3854 15.7076 25.2925L6.4138 16Z" fill="black"/>
</svg>
