<svg width="32" height="32" viewBox="0 0 32 32" fill="none" xmlns="http://www.w3.org/2000/svg">
<path d="M28.4999 21.875C28.3857 21.9401 28.2598 21.9821 28.1293 21.9985C27.9989 22.0149 27.8665 22.0054 27.7397 21.9706C27.6129 21.9358 27.4942 21.8763 27.3904 21.7955C27.2867 21.7148 27.1999 21.6143 27.1349 21.5L24.7599 17.35C23.3792 18.2836 21.856 18.9869 20.2499 19.4325L20.9837 23.835C21.0053 23.9646 21.0012 24.0972 20.9716 24.2252C20.942 24.3532 20.8874 24.4742 20.811 24.5811C20.7346 24.688 20.6379 24.7788 20.5264 24.8483C20.4149 24.9179 20.2908 24.9647 20.1612 24.9863C20.1079 24.995 20.054 24.9996 19.9999 25C19.7634 24.9996 19.5346 24.9154 19.3542 24.7623C19.1739 24.6092 19.0537 24.3971 19.0149 24.1638L18.2937 19.8413C16.7727 20.0529 15.2297 20.0529 13.7087 19.8413L12.9874 24.1638C12.9486 24.3976 12.828 24.61 12.6472 24.7631C12.4663 24.9163 12.2369 25.0002 11.9999 25C11.9447 24.9998 11.8895 24.9952 11.8349 24.9863C11.7053 24.9647 11.5812 24.9179 11.4697 24.8483C11.3582 24.7788 11.2615 24.688 11.1851 24.5811C11.1087 24.4742 11.0541 24.3532 11.0245 24.2252C10.9949 24.0972 10.9908 23.9646 11.0124 23.835L11.7499 19.4325C10.1445 18.9855 8.62219 18.2809 7.24244 17.3463L4.87494 21.5C4.74233 21.7311 4.52336 21.9 4.2662 21.9696C4.00904 22.0392 3.73476 22.0039 3.50369 21.8713C3.27262 21.7386 3.10369 21.5197 3.03407 21.2625C2.96444 21.0054 2.99983 20.7311 3.13244 20.5L5.63244 16.125C4.75431 15.3664 3.94683 14.5296 3.21994 13.625C3.12928 13.5238 3.06021 13.4052 3.01693 13.2764C2.97365 13.1476 2.95707 13.0113 2.96821 12.8759C2.97934 12.7405 3.01796 12.6087 3.0817 12.4887C3.14544 12.3687 3.23296 12.263 3.33893 12.1779C3.4449 12.0929 3.56708 12.0303 3.69803 11.9941C3.82898 11.9578 3.96595 11.9486 4.10056 11.9671C4.23518 11.9855 4.36463 12.0312 4.48101 12.1013C4.59738 12.1715 4.69824 12.2646 4.77744 12.375C6.85244 14.9425 10.4824 18 15.9999 18C21.5174 18 25.1474 14.9388 27.2224 12.375C27.3007 12.2623 27.4014 12.167 27.5181 12.0949C27.6348 12.0228 27.7651 11.9754 27.9009 11.9559C28.0367 11.9363 28.1751 11.9448 28.3074 11.981C28.4398 12.0172 28.5632 12.0803 28.6702 12.1662C28.7771 12.2522 28.8652 12.3592 28.929 12.4807C28.9928 12.6022 29.0309 12.7355 29.041 12.8723C29.051 13.0091 29.0328 13.1466 28.9875 13.2761C28.9421 13.4055 28.8706 13.5243 28.7774 13.625C28.0505 14.5296 27.2431 15.3664 26.3649 16.125L28.8649 20.5C28.932 20.614 28.9759 20.7403 28.9938 20.8714C29.0118 21.0025 29.0036 21.1358 28.9696 21.2637C28.9357 21.3916 28.8767 21.5115 28.796 21.6164C28.7154 21.7214 28.6148 21.8093 28.4999 21.875Z" fill="black"/>
</svg>
