<svg width="32" height="32" viewBox="0 0 32 32" fill="none" xmlns="http://www.w3.org/2000/svg">
<path d="M18.0338 5.74124C18.0677 5.61433 18.1263 5.49535 18.2063 5.39111C18.2862 5.28686 18.3859 5.19938 18.4997 5.13368C18.6134 5.06798 18.739 5.02533 18.8693 5.00819C18.9995 4.99104 19.1319 4.99972 19.2588 5.03374C21.1126 5.51743 22.804 6.48655 24.1587 7.84129C25.5135 9.19603 26.4826 10.8874 26.9663 12.7412C27.0003 12.8681 27.009 13.0005 26.9918 13.1307C26.9747 13.261 26.932 13.3866 26.8663 13.5003C26.8006 13.6141 26.7131 13.7138 26.6089 13.7937C26.5047 13.8737 26.3857 13.9323 26.2588 13.9662C26.1743 13.9884 26.0873 13.9998 26 14C25.7796 14 25.5655 13.9272 25.3907 13.7929C25.216 13.6586 25.0905 13.4704 25.0338 13.2575C24.6393 11.7441 23.8483 10.3634 22.7425 9.25752C21.6366 8.15166 20.2559 7.36073 18.7425 6.96624C18.6155 6.93243 18.4964 6.87391 18.392 6.79402C18.2876 6.71414 18.2 6.61446 18.1342 6.50068C18.0683 6.38691 18.0256 6.26127 18.0084 6.13096C17.9911 6.00064 17.9998 5.86821 18.0338 5.74124ZM17.7425 10.9662C19.4663 11.4262 20.5738 12.5337 21.0338 14.2575C21.0905 14.4704 21.216 14.6586 21.3907 14.7929C21.5655 14.9272 21.7796 15 22 15C22.0873 14.9998 22.1743 14.9884 22.2588 14.9662C22.3857 14.9323 22.5047 14.8737 22.6089 14.7937C22.7131 14.7138 22.8006 14.6141 22.8663 14.5003C22.932 14.3866 22.9747 14.261 22.9918 14.1307C23.009 14.0005 23.0003 13.8681 22.9663 13.7412C22.3263 11.3462 20.6538 9.67374 18.2588 9.03374C18.0025 8.96528 17.7295 9.00143 17.4999 9.13423C17.2703 9.26703 17.1028 9.4856 17.0344 9.74187C16.9659 9.99813 17.0021 10.2711 17.1349 10.5007C17.2677 10.7303 17.4862 10.8978 17.7425 10.9662ZM27.985 22.885C27.7621 24.5788 26.9303 26.1335 25.6449 27.2588C24.3595 28.3841 22.7084 29.0031 21 29C11.075 29 3.00001 20.925 3.00001 11C2.99695 9.2916 3.61587 7.64052 4.74118 6.35511C5.86649 5.0697 7.42122 4.23787 9.11501 4.01499C9.54333 3.96269 9.97707 4.05032 10.3515 4.26479C10.7259 4.47926 11.0209 4.80907 11.1925 5.20499L13.8325 11.0987V11.1137C13.9639 11.4168 14.0181 11.7477 13.9904 12.0768C13.9627 12.406 13.8539 12.7231 13.6738 13C13.6513 13.0337 13.6275 13.065 13.6025 13.0962L11 16.1812C11.9363 18.0837 13.9263 20.0562 15.8538 20.995L18.8963 18.4062C18.9261 18.3811 18.9574 18.3578 18.99 18.3362C19.2666 18.1517 19.5849 18.0391 19.916 18.0086C20.2471 17.978 20.5806 18.0305 20.8863 18.1612L20.9025 18.1687L26.7913 20.8075C27.1879 20.9785 27.5185 21.2732 27.7337 21.6477C27.9489 22.0222 28.037 22.4562 27.985 22.885ZM26 22.635C26 22.635 25.9913 22.635 25.9863 22.635L20.1113 20.0037L17.0675 22.5925C17.038 22.6175 17.0071 22.6409 16.975 22.6625C16.6872 22.8545 16.3545 22.9686 16.0094 22.9935C15.6644 23.0185 15.3187 22.9536 15.0063 22.805C12.665 21.6737 10.3313 19.3575 9.19876 17.0412C9.0488 16.7311 8.9815 16.3874 9.0034 16.0436C9.0253 15.6997 9.13565 15.3674 9.32376 15.0787C9.34496 15.0448 9.36879 15.0127 9.39501 14.9825L12 11.8937L9.37501 6.01874C9.37452 6.01375 9.37452 6.00873 9.37501 6.00374C8.16283 6.16186 7.04986 6.75645 6.24453 7.67614C5.43919 8.59582 4.99674 9.77754 5.00001 11C5.00464 15.242 6.69184 19.309 9.69142 22.3086C12.691 25.3082 16.758 26.9954 21 27C22.2217 27.0042 23.4031 26.5633 24.3233 25.7597C25.2436 24.9561 25.8396 23.8449 26 22.6337V22.635Z" fill="black"/>
</svg>
