<svg width="32" height="32" viewBox="0 0 32 32" fill="none" xmlns="http://www.w3.org/2000/svg">
<path d="M22.7076 16.7075L12.7076 26.7075C12.6147 26.8004 12.5044 26.8741 12.383 26.9244C12.2616 26.9747 12.1315 27.0006 12.0001 27.0006C11.8687 27.0006 11.7386 26.9747 11.6172 26.9244C11.4958 26.8741 11.3855 26.8004 11.2926 26.7075C11.1997 26.6146 11.126 26.5043 11.0757 26.3829C11.0254 26.2615 10.9995 26.1314 10.9995 26C10.9995 25.8686 11.0254 25.7385 11.0757 25.6171C11.126 25.4957 11.1997 25.3854 11.2926 25.2925L20.5863 16L11.2926 6.70751C11.1049 6.51987 10.9995 6.26537 10.9995 6.00001C10.9995 5.73464 11.1049 5.48015 11.2926 5.29251C11.4802 5.10487 11.7347 4.99945 12.0001 4.99945C12.2654 4.99945 12.5199 5.10487 12.7076 5.29251L22.7076 15.2925C22.8005 15.3854 22.8743 15.4957 22.9246 15.6171C22.975 15.7385 23.0009 15.8686 23.0009 16C23.0009 16.1314 22.975 16.2615 22.9246 16.3829C22.8743 16.5043 22.8005 16.6146 22.7076 16.7075Z" fill="black"/>
</svg>
