<svg width="32" height="32" viewBox="0 0 32 32" fill="none" xmlns="http://www.w3.org/2000/svg">
<path d="M29.8976 12.1575C29.7726 11.7732 29.5366 11.4344 29.2194 11.184C28.9022 10.9335 28.5179 10.7825 28.1151 10.75L20.7401 10.155L17.8926 3.26876C17.7386 2.89353 17.4765 2.57257 17.1396 2.34668C16.8027 2.12079 16.4063 2.00018 16.0007 2.00018C15.5951 2.00018 15.1987 2.12079 14.8618 2.34668C14.5249 2.57257 14.2628 2.89353 14.1088 3.26876L11.2638 10.1538L3.88508 10.75C3.48156 10.7841 3.09707 10.9366 2.7798 11.1883C2.46253 11.4399 2.22659 11.7797 2.10153 12.1648C1.97648 12.55 1.96787 12.9635 2.07679 13.3536C2.18571 13.7436 2.40731 14.0928 2.71383 14.3575L8.33883 19.2113L6.62508 26.4688C6.52924 26.863 6.55271 27.2769 6.69251 27.6578C6.83231 28.0388 7.08214 28.3695 7.41028 28.6082C7.73843 28.8469 8.13009 28.9827 8.53555 28.9984C8.94102 29.014 9.34199 28.9089 9.68758 28.6963L16.0001 24.8113L22.3163 28.6963C22.662 28.9064 23.0622 29.0095 23.4664 28.9926C23.8706 28.9758 24.2608 28.8397 24.5878 28.6016C24.9149 28.3634 25.1641 28.0338 25.3042 27.6543C25.4443 27.2748 25.469 26.8623 25.3751 26.4688L23.6551 19.21L29.2801 14.3563C29.5891 14.092 29.8127 13.7421 29.9226 13.3506C30.0326 12.9592 30.0238 12.544 29.8976 12.1575ZM27.9801 12.8413L21.8926 18.0913C21.7538 18.2109 21.6505 18.3664 21.5941 18.5408C21.5376 18.7152 21.5302 18.9017 21.5726 19.08L23.4326 26.93C23.4374 26.9408 23.4379 26.9531 23.4339 26.9642C23.43 26.9754 23.4219 26.9846 23.4113 26.99C23.3888 27.0075 23.3826 27.0038 23.3638 26.99L16.5238 22.7838C16.3663 22.6869 16.185 22.6356 16.0001 22.6356C15.8152 22.6356 15.6339 22.6869 15.4763 22.7838L8.63633 26.9925C8.61758 27.0038 8.61258 27.0075 8.58883 26.9925C8.57828 26.9871 8.5702 26.9779 8.56625 26.9667C8.56229 26.9556 8.56277 26.9433 8.56758 26.9325L10.4276 19.0825C10.47 18.9042 10.4625 18.7177 10.4061 18.5433C10.3497 18.3689 10.2464 18.2134 10.1076 18.0938L4.02008 12.8438C4.00508 12.8313 3.99133 12.82 4.00383 12.7813C4.01633 12.7425 4.02633 12.7475 4.04508 12.745L12.0351 12.1C12.2183 12.0843 12.3937 12.0183 12.5419 11.9094C12.6901 11.8004 12.8054 11.6527 12.8751 11.4825L15.9526 4.03126C15.9626 4.01001 15.9663 4.00001 15.9963 4.00001C16.0263 4.00001 16.0301 4.01001 16.0401 4.03126L19.1251 11.4825C19.1954 11.6528 19.3114 11.8003 19.4603 11.9089C19.6092 12.0174 19.7852 12.0827 19.9688 12.0975L27.9588 12.7425C27.9776 12.7425 27.9888 12.7425 28.0001 12.7788C28.0113 12.815 28.0001 12.8288 27.9801 12.8413Z" fill="black"/>
</svg>
