<svg width="32" height="32" viewBox="0 0 32 32" fill="none" xmlns="http://www.w3.org/2000/svg">
<g clip-path="url(#clip0_270_18307)">
<path d="M31.9275 14.625L30.1775 10.25C30.029 9.87984 29.7728 9.56279 29.4421 9.33992C29.1114 9.11705 28.7213 8.99863 28.3225 9H24V8C24 7.73478 23.8946 7.48043 23.7071 7.29289C23.5196 7.10536 23.2652 7 23 7H4C3.46957 7 2.96086 7.21071 2.58579 7.58579C2.21071 7.96086 2 8.46957 2 9V23C2 23.5304 2.21071 24.0391 2.58579 24.4142C2.96086 24.7893 3.46957 25 4 25H6.125C6.3453 25.8604 6.8457 26.623 7.54731 27.1676C8.24892 27.7122 9.11183 28.0078 10 28.0078C10.8882 28.0078 11.7511 27.7122 12.4527 27.1676C13.1543 26.623 13.6547 25.8604 13.875 25H20.125C20.3453 25.8604 20.8457 26.623 21.5473 27.1676C22.2489 27.7122 23.1118 28.0078 24 28.0078C24.8882 28.0078 25.7511 27.7122 26.4527 27.1676C27.1543 26.623 27.6547 25.8604 27.875 25H30C30.5304 25 31.0391 24.7893 31.4142 24.4142C31.7893 24.0391 32 23.5304 32 23V15C32.0003 14.8715 31.9757 14.7441 31.9275 14.625ZM24 11H28.3225L29.5225 14H24V11ZM4 9H22V17H4V9ZM10 26C9.60444 26 9.21776 25.8827 8.88886 25.6629C8.55996 25.4432 8.30362 25.1308 8.15224 24.7654C8.00087 24.3999 7.96126 23.9978 8.03843 23.6098C8.1156 23.2219 8.30608 22.8655 8.58579 22.5858C8.86549 22.3061 9.22186 22.1156 9.60982 22.0384C9.99778 21.9613 10.3999 22.0009 10.7654 22.1522C11.1308 22.3036 11.4432 22.56 11.6629 22.8889C11.8827 23.2178 12 23.6044 12 24C12 24.5304 11.7893 25.0391 11.4142 25.4142C11.0391 25.7893 10.5304 26 10 26ZM20.125 23H13.875C13.6547 22.1396 13.1543 21.377 12.4527 20.8324C11.7511 20.2878 10.8882 19.9922 10 19.9922C9.11183 19.9922 8.24892 20.2878 7.54731 20.8324C6.8457 21.377 6.3453 22.1396 6.125 23H4V19H22V20.5387C21.5402 20.8045 21.1377 21.159 20.8158 21.5814C20.4939 22.0039 20.2591 22.4861 20.125 23ZM24 26C23.6044 26 23.2178 25.8827 22.8889 25.6629C22.56 25.4432 22.3036 25.1308 22.1522 24.7654C22.0009 24.3999 21.9613 23.9978 22.0384 23.6098C22.1156 23.2219 22.3061 22.8655 22.5858 22.5858C22.8655 22.3061 23.2219 22.1156 23.6098 22.0384C23.9978 21.9613 24.3999 22.0009 24.7654 22.1522C25.1308 22.3036 25.4432 22.56 25.6629 22.8889C25.8827 23.2178 26 23.6044 26 24C26 24.5304 25.7893 25.0391 25.4142 25.4142C25.0391 25.7893 24.5304 26 24 26ZM30 23H27.875C27.6521 22.1417 27.1507 21.3815 26.4495 20.8387C25.7483 20.2958 24.8868 20.0008 24 20V16H30V23Z" fill="black"/>
</g>
<defs>
<clipPath id="clip0_270_18307">
<rect width="32" height="32" fill="white"/>
</clipPath>
</defs>
</svg>
