<svg aria-hidden="true" style="position: absolute; width: 0; height: 0; overflow: hidden;" version="1.1" xmlns="http://www.w3.org/2000/svg" xmlns:xlink="http://www.w3.org/1999/xlink">
<defs>
<symbol id="alarm" viewBox="0 0 32 32">
<title>alarm</title>
<path d="M20 28h-8c0 2.2 1.8 4 4 4s4-1.8 4-4z"></path>
<path d="M30 22h-1c-1.4-1.4-3-3.4-3-6v-6c0-5.6-4.4-10-10-10s-10 4.4-10 10v6c0 2.6-1.6 4.6-3 6h-1c-1.2 0-2 0.8-2 2s0.8 2 2 2h28c1.2 0 2-0.8 2-2s-0.8-2-2-2z"></path>
</symbol>
<symbol id="badge-apple" viewBox="0 0 32 32">
<title>badge-apple</title>
<path fill="#000" style="fill: var(--color1, #000)" d="M30.815 20.741h-29.63c-0.664 0-1.185-0.545-1.185-1.185v-7.111c0-0.664 0.545-1.185 1.185-1.185h29.63c0.664 0 1.185 0.545 1.185 1.185v7.111c0 0.664-0.521 1.185-1.185 1.185z"></path>
<path fill="#a6a6a6" style="fill: var(--color2, #a6a6a6)" d="M30.815 11.449c0.545 0 0.996 0.45 0.996 0.996v7.111c0 0.545-0.45 0.996-0.996 0.996h-29.63c-0.545 0-0.996-0.45-0.996-0.996v-7.111c0-0.545 0.45-0.996 0.996-0.996h29.63zM30.815 11.259h-29.63c-0.64 0-1.185 0.545-1.185 1.185v7.111c0 0.664 0.545 1.185 1.185 1.185h29.63c0.664 0 1.185-0.545 1.185-1.185v-7.111c0-0.64-0.521-1.185-1.185-1.185z"></path>
<path fill="#fff" style="fill: var(--color3, #fff)" d="M6.732 16.095c0-0.782 0.64-1.161 0.664-1.185-0.356-0.521-0.924-0.616-1.138-0.616-0.474-0.047-0.948 0.284-1.185 0.284s-0.616-0.284-1.019-0.261c-0.521 0-0.996 0.308-1.256 0.782-0.545 0.948-0.142 2.347 0.379 3.105 0.261 0.379 0.569 0.806 0.972 0.782s0.545-0.261 1.019-0.261c0.474 0 0.616 0.261 1.019 0.237 0.427 0 0.687-0.379 0.948-0.759 0.308-0.427 0.427-0.853 0.427-0.877-0.024 0.024-0.83-0.284-0.83-1.233z"></path>
<path fill="#fff" style="fill: var(--color3, #fff)" d="M5.95 13.819c0.213-0.261 0.356-0.616 0.308-0.996-0.308 0.024-0.687 0.213-0.901 0.474-0.19 0.237-0.379 0.593-0.332 0.948 0.356 0.024 0.711-0.166 0.924-0.427z"></path>
<path fill="#fff" style="fill: var(--color3, #fff)" d="M11.828 17.707h-1.138l-0.261 0.806h-0.474l1.067-2.963h0.498l1.067 2.963h-0.498l-0.261-0.806zM10.833 17.327h0.901l-0.45-1.304h-0.024l-0.427 1.304z"></path>
<path fill="#fff" style="fill: var(--color3, #fff)" d="M14.91 17.422c0 0.664-0.356 1.114-0.901 1.114-0.308 0-0.545-0.142-0.687-0.379v1.067h-0.45v-2.892h0.427v0.379c0.119-0.237 0.379-0.379 0.687-0.379 0.569 0 0.924 0.427 0.924 1.090zM14.459 17.422c0-0.427-0.237-0.735-0.569-0.735s-0.569 0.284-0.569 0.735c0 0.427 0.237 0.735 0.569 0.735s0.569-0.284 0.569-0.735z"></path>
<path fill="#fff" style="fill: var(--color3, #fff)" d="M17.28 17.422c0 0.664-0.356 1.114-0.901 1.114-0.308 0-0.545-0.142-0.687-0.379v1.067h-0.45v-2.892h0.427v0.379c0.119-0.237 0.379-0.379 0.687-0.379 0.569 0 0.924 0.427 0.924 1.090zM16.83 17.422c0-0.427-0.237-0.735-0.569-0.735s-0.569 0.284-0.569 0.735c0 0.427 0.237 0.735 0.569 0.735 0.356 0 0.569-0.284 0.569-0.735z"></path>
<path fill="#fff" style="fill: var(--color3, #fff)" d="M18.868 17.683c0.024 0.284 0.308 0.498 0.711 0.498 0.379 0 0.64-0.19 0.64-0.45 0-0.237-0.166-0.379-0.545-0.474l-0.379-0.095c-0.545-0.142-0.806-0.379-0.806-0.806 0-0.521 0.45-0.853 1.090-0.853 0.616 0 1.067 0.356 1.067 0.853h-0.45c-0.024-0.284-0.261-0.474-0.64-0.474s-0.593 0.166-0.593 0.45c0 0.213 0.166 0.332 0.545 0.427l0.332 0.071c0.616 0.142 0.853 0.379 0.853 0.83 0 0.545-0.45 0.901-1.138 0.901-0.664 0-1.090-0.332-1.138-0.877h0.45z"></path>
<path fill="#fff" style="fill: var(--color3, #fff)" d="M21.641 15.834v0.521h0.403v0.356h-0.403v1.185c0 0.19 0.071 0.261 0.261 0.261 0.047 0 0.119 0 0.142 0v0.356c-0.047 0.024-0.142 0.024-0.237 0.024-0.427 0-0.616-0.166-0.616-0.593v-1.233h-0.308v-0.356h0.308v-0.521h0.45z"></path>
<path fill="#fff" style="fill: var(--color3, #fff)" d="M22.281 17.422c0-0.687 0.403-1.114 1.019-1.114s1.019 0.427 1.019 1.114c0 0.687-0.403 1.114-1.019 1.114s-1.019-0.427-1.019-1.114zM23.893 17.422c0-0.474-0.213-0.735-0.569-0.735s-0.593 0.261-0.593 0.735c0 0.474 0.213 0.735 0.569 0.735s0.593-0.261 0.593-0.735z"></path>
<path fill="#fff" style="fill: var(--color3, #fff)" d="M24.699 16.332h0.427v0.379c0.071-0.237 0.261-0.379 0.521-0.379 0.071 0 0.119 0 0.142 0.024v0.427c-0.024-0.024-0.119-0.024-0.19-0.024-0.284 0-0.474 0.19-0.474 0.498v1.28h-0.45v-2.204h0.024z"></path>
<path fill="#fff" style="fill: var(--color3, #fff)" d="M27.852 17.873c-0.071 0.403-0.45 0.664-0.924 0.664-0.64 0-1.019-0.427-1.019-1.090 0-0.687 0.403-1.114 0.996-1.114s0.972 0.403 0.972 1.067v0.142h-1.517v0.024c0 0.379 0.237 0.616 0.593 0.616 0.237 0 0.45-0.119 0.498-0.308h0.403zM26.359 17.233h1.090c0-0.332-0.213-0.545-0.521-0.545-0.332 0-0.545 0.213-0.569 0.545z"></path>
<path fill="#fff" style="fill: var(--color3, #fff)" d="M10.761 13.298c0.427 0 0.664 0.261 0.664 0.711s-0.237 0.711-0.664 0.711h-0.521v-1.422h0.521zM10.477 14.53h0.261c0.308 0 0.474-0.19 0.474-0.521s-0.166-0.521-0.474-0.521h-0.261v1.043z"></path>
<path fill="#fff" style="fill: var(--color3, #fff)" d="M11.686 14.199c0-0.356 0.19-0.569 0.498-0.569s0.498 0.213 0.498 0.569c0 0.356-0.19 0.569-0.498 0.569-0.308-0.024-0.498-0.237-0.498-0.569zM12.492 14.199c0-0.237-0.095-0.379-0.284-0.379s-0.284 0.142-0.284 0.379c0 0.237 0.095 0.379 0.284 0.379 0.166-0.024 0.284-0.142 0.284-0.379z"></path>
<path fill="#fff" style="fill: var(--color3, #fff)" d="M14.056 14.72h-0.213l-0.213-0.782h-0.024l-0.213 0.782h-0.213l-0.308-1.067h0.213l0.19 0.83 0.213-0.83h0.213l0.213 0.83h0.024l0.19-0.83h0.213l-0.284 1.067z"></path>
<path fill="#fff" style="fill: var(--color3, #fff)" d="M14.601 13.653h0.213v0.166h0.024c0.047-0.119 0.166-0.19 0.332-0.19 0.237 0 0.379 0.142 0.379 0.403v0.687h-0.213v-0.64c0-0.166-0.071-0.261-0.237-0.261s-0.261 0.095-0.261 0.261v0.64h-0.213v-1.067h-0.024z"></path>
<path fill="#fff" style="fill: var(--color3, #fff)" d="M15.858 13.227h0.213v1.493h-0.213v-1.493z"></path>
<path fill="#fff" style="fill: var(--color3, #fff)" d="M16.356 14.199c0-0.356 0.19-0.569 0.498-0.569s0.498 0.213 0.498 0.569c0 0.356-0.19 0.569-0.498 0.569-0.308-0.024-0.498-0.237-0.498-0.569zM17.161 14.199c0-0.237-0.095-0.379-0.284-0.379s-0.284 0.142-0.284 0.379c0 0.237 0.095 0.379 0.284 0.379 0.166-0.024 0.284-0.142 0.284-0.379z"></path>
<path fill="#fff" style="fill: var(--color3, #fff)" d="M17.588 14.436c0-0.19 0.142-0.308 0.403-0.332l0.284-0.024v-0.095c0-0.119-0.071-0.166-0.213-0.166-0.119 0-0.19 0.047-0.213 0.119h-0.213c0.024-0.19 0.19-0.308 0.45-0.308s0.427 0.142 0.427 0.356v0.735h-0.213v-0.142h-0.024c-0.071 0.119-0.19 0.166-0.332 0.166-0.19 0-0.356-0.119-0.356-0.308zM18.276 14.341v-0.095l-0.261 0.024c-0.142 0-0.213 0.071-0.213 0.166s0.095 0.142 0.19 0.142c0.166 0 0.284-0.119 0.284-0.237z"></path>
<path fill="#fff" style="fill: var(--color3, #fff)" d="M18.773 14.199c0-0.332 0.166-0.545 0.45-0.545 0.142 0 0.261 0.071 0.332 0.19h0.024v-0.616h0.213v1.493h-0.213v-0.166h-0.024c-0.071 0.119-0.19 0.19-0.332 0.19-0.284 0-0.45-0.213-0.45-0.545zM18.987 14.199c0 0.237 0.119 0.356 0.284 0.356 0.19 0 0.284-0.142 0.284-0.356s-0.119-0.356-0.284-0.356c-0.166-0.024-0.284 0.119-0.284 0.356z"></path>
<path fill="#fff" style="fill: var(--color3, #fff)" d="M20.67 14.199c0-0.356 0.19-0.569 0.498-0.569s0.498 0.213 0.498 0.569c0 0.356-0.19 0.569-0.498 0.569-0.308-0.024-0.498-0.237-0.498-0.569zM21.452 14.199c0-0.237-0.095-0.379-0.284-0.379s-0.284 0.142-0.284 0.379c0 0.237 0.095 0.379 0.284 0.379 0.19-0.024 0.284-0.142 0.284-0.379z"></path>
<path fill="#fff" style="fill: var(--color3, #fff)" d="M21.95 13.653h0.213v0.166h0.024c0.047-0.119 0.166-0.19 0.332-0.19 0.237 0 0.379 0.142 0.379 0.403v0.687h-0.213v-0.64c0-0.166-0.071-0.261-0.237-0.261s-0.261 0.095-0.261 0.261v0.64h-0.213v-1.067h-0.024z"></path>
<path fill="#fff" style="fill: var(--color3, #fff)" d="M24.059 13.393v0.284h0.237v0.19h-0.237v0.545c0 0.119 0.047 0.166 0.142 0.166 0.024 0 0.047 0 0.071 0v0.166c-0.024 0-0.071 0-0.119 0-0.237 0-0.332-0.095-0.332-0.284v-0.616h-0.166v-0.19h0.166v-0.261h0.237z"></path>
<path fill="#fff" style="fill: var(--color3, #fff)" d="M24.604 13.227h0.213v0.593h0.024c0.047-0.119 0.166-0.19 0.332-0.19 0.237 0 0.379 0.142 0.379 0.403v0.687h-0.213v-0.64c0-0.166-0.071-0.261-0.237-0.261s-0.261 0.119-0.261 0.284v0.64h-0.213v-1.517h-0.024z"></path>
<path fill="#fff" style="fill: var(--color3, #fff)" d="M26.761 14.436c-0.047 0.19-0.213 0.308-0.474 0.308-0.308 0-0.498-0.213-0.498-0.545 0-0.356 0.19-0.569 0.498-0.569s0.474 0.213 0.474 0.545v0.071h-0.759v0.024c0 0.19 0.119 0.308 0.284 0.308 0.119 0 0.213-0.047 0.261-0.142h0.213zM26.003 14.104h0.545c0-0.166-0.119-0.284-0.261-0.284-0.166 0-0.261 0.119-0.284 0.284z"></path>
</symbol>
<symbol id="badge-google" viewBox="0 0 32 32">
<title>badge-google</title>
<path fill="#000" style="fill: var(--color1, #000)" d="M30.815 20.741h-29.63c-0.664 0-1.185-0.521-1.185-1.185v-7.111c0-0.664 0.521-1.185 1.185-1.185h29.63c0.664 0 1.185 0.521 1.185 1.185v7.111c0 0.664-0.521 1.185-1.185 1.185z"></path>
<path fill="#a6a6a6" style="fill: var(--color2, #a6a6a6)" d="M30.815 11.449c0.545 0 0.996 0.45 0.996 0.996v7.111c0 0.545-0.45 0.996-0.996 0.996h-29.63c-0.545 0-0.996-0.45-0.996-0.996v-7.111c0-0.545 0.45-0.996 0.996-0.996h29.63zM30.815 11.259h-29.63c-0.664 0-1.185 0.545-1.185 1.185v7.111c0 0.664 0.521 1.185 1.185 1.185h29.63c0.664 0 1.185-0.521 1.185-1.185v-7.111c0-0.64-0.521-1.185-1.185-1.185z"></path>
<path fill="#fff" style="fill: var(--color3, #fff)" d="M11.259 13.559h-0.735v0.213h0.521c-0.024 0.095-0.047 0.19-0.119 0.237-0.095 0.095-0.237 0.142-0.379 0.142s-0.261-0.047-0.379-0.142c-0.095-0.095-0.166-0.237-0.166-0.403s0.047-0.284 0.166-0.403c0.095-0.095 0.237-0.142 0.379-0.142 0.166 0 0.284 0.047 0.379 0.166l0.024 0.024 0.166-0.166-0.024-0.024c-0.047-0.071-0.142-0.119-0.237-0.166s-0.19-0.071-0.308-0.071c-0.213 0-0.403 0.071-0.545 0.213s-0.213 0.332-0.213 0.545c0 0.213 0.071 0.403 0.213 0.545s0.332 0.213 0.545 0.213c0.213 0 0.403-0.071 0.545-0.213 0.119-0.119 0.19-0.284 0.19-0.498-0.024 0.024-0.024-0.024-0.024-0.071z"></path>
<path fill="#fff" style="fill: var(--color3, #fff)" d="M11.473 14.364h0.877v-0.213h-0.64v-0.403h0.593v-0.237h-0.593v-0.403h0.64v-0.213h-0.877v1.47z"></path>
<path fill="#fff" style="fill: var(--color3, #fff)" d="M12.492 13.108h0.403v1.256h0.237v-1.256h0.403v-0.213h-1.043v0.213z"></path>
<path fill="#fff" style="fill: var(--color3, #fff)" d="M14.412 12.895h-0.237v1.47h0.237v-1.47z"></path>
<path fill="#fff" style="fill: var(--color3, #fff)" d="M14.601 13.108h0.403v1.256h0.213v-1.256h0.403v-0.213h-1.019v0.213z"></path>
<path fill="#fff" style="fill: var(--color3, #fff)" d="M16.924 12.871c-0.213 0-0.403 0.071-0.545 0.213s-0.213 0.332-0.213 0.545c0 0.213 0.071 0.403 0.213 0.545s0.332 0.213 0.545 0.213c0.213 0 0.403-0.071 0.545-0.213s0.213-0.332 0.213-0.545c0-0.213-0.071-0.403-0.213-0.545s-0.332-0.213-0.545-0.213zM17.304 14.033c-0.095 0.095-0.213 0.142-0.379 0.142s-0.261-0.047-0.379-0.142c-0.095-0.095-0.142-0.237-0.142-0.403s0.047-0.284 0.142-0.403c0.095-0.095 0.213-0.142 0.379-0.142 0.142 0 0.261 0.047 0.379 0.142 0.095 0.095 0.142 0.237 0.142 0.403s-0.047 0.284-0.142 0.403z"></path>
<path fill="#fff" style="fill: var(--color3, #fff)" d="M18.797 12.895v0.853l0.024 0.213-0.664-1.067h-0.261v1.47h0.213v-1.114l0.687 1.114h0.237v-1.47h-0.237z"></path>
<path fill="#fff" style="fill: var(--color3, #fff)" d="M16.142 16.427c-0.569 0-1.019 0.427-1.019 1.019 0 0.569 0.45 1.019 1.019 1.019s1.019-0.427 1.019-1.019c0-0.616-0.45-1.019-1.019-1.019zM16.142 18.039c-0.308 0-0.569-0.261-0.569-0.616s0.261-0.616 0.569-0.616c0.308 0 0.569 0.237 0.569 0.616 0 0.356-0.261 0.616-0.569 0.616zM13.938 16.427c-0.569 0-1.019 0.427-1.019 1.019 0 0.569 0.45 1.019 1.019 1.019s1.019-0.427 1.019-1.019c0-0.616-0.45-1.019-1.019-1.019zM13.938 18.039c-0.308 0-0.569-0.261-0.569-0.616s0.261-0.616 0.569-0.616c0.308 0 0.569 0.237 0.569 0.616 0 0.356-0.261 0.616-0.569 0.616zM11.307 16.735v0.427h1.019c-0.024 0.237-0.119 0.427-0.237 0.545-0.142 0.142-0.379 0.308-0.782 0.308-0.64 0-1.114-0.498-1.114-1.138s0.498-1.138 1.114-1.138c0.332 0 0.593 0.142 0.782 0.308l0.308-0.308c-0.261-0.237-0.593-0.427-1.067-0.427-0.853 0-1.588 0.711-1.588 1.564s0.735 1.564 1.588 1.564c0.474 0 0.806-0.142 1.090-0.45 0.284-0.284 0.379-0.687 0.379-0.996 0-0.095 0-0.19-0.024-0.261h-1.47zM22.068 17.067c-0.095-0.237-0.332-0.64-0.853-0.64s-0.948 0.403-0.948 1.019c0 0.569 0.427 1.019 0.996 1.019 0.45 0 0.735-0.284 0.83-0.45l-0.332-0.237c-0.119 0.166-0.261 0.284-0.498 0.284s-0.379-0.095-0.498-0.308l1.351-0.569-0.047-0.119zM20.693 17.399c0-0.379 0.308-0.593 0.521-0.593 0.166 0 0.332 0.095 0.379 0.213l-0.901 0.379zM19.579 18.37h0.45v-2.963h-0.45v2.963zM18.868 16.64c-0.119-0.119-0.308-0.237-0.545-0.237-0.498 0-0.972 0.45-0.972 1.019s0.45 0.996 0.972 0.996c0.237 0 0.427-0.119 0.521-0.237h0.024v0.142c0 0.379-0.213 0.593-0.545 0.593-0.261 0-0.45-0.19-0.498-0.356l-0.379 0.166c0.119 0.261 0.403 0.593 0.901 0.593 0.521 0 0.948-0.308 0.948-1.043v-1.801h-0.427v0.166zM18.347 18.039c-0.308 0-0.569-0.261-0.569-0.616s0.261-0.616 0.569-0.616c0.308 0 0.545 0.261 0.545 0.616s-0.237 0.616-0.545 0.616zM24.13 15.407h-1.067v2.963h0.45v-1.114h0.616c0.498 0 0.972-0.356 0.972-0.924s-0.474-0.924-0.972-0.924zM24.154 16.83h-0.64v-1.019h0.64c0.332 0 0.521 0.284 0.521 0.498-0.024 0.261-0.213 0.521-0.521 0.521zM26.88 16.403c-0.332 0-0.664 0.142-0.782 0.45l0.403 0.166c0.095-0.166 0.237-0.213 0.403-0.213 0.237 0 0.45 0.142 0.474 0.379v0.024c-0.071-0.047-0.261-0.119-0.45-0.119-0.427 0-0.853 0.237-0.853 0.664 0 0.403 0.356 0.664 0.735 0.664 0.308 0 0.45-0.142 0.569-0.284h0.024v0.237h0.427v-1.138c-0.047-0.521-0.45-0.83-0.948-0.83zM26.833 18.039c-0.142 0-0.356-0.071-0.356-0.261 0-0.237 0.261-0.308 0.474-0.308 0.19 0 0.284 0.047 0.403 0.095-0.047 0.284-0.284 0.474-0.521 0.474zM29.321 16.474l-0.498 1.28h-0.024l-0.521-1.28h-0.474l0.782 1.801-0.45 0.996h0.45l1.209-2.797h-0.474zM25.339 18.37h0.45v-2.963h-0.45v2.963z"></path>
<path fill="#00a1ff" style="fill: var(--color4, #00a1ff)" d="M2.465 13.037c-0.071 0.071-0.095 0.19-0.095 0.332v5.239c0 0.142 0.047 0.261 0.119 0.332l2.939-2.939-2.963-2.963z"></path>
<path fill="#ffe000" style="fill: var(--color5, #ffe000)" d="M7.585 15.668l-1.161-0.664-0.996 0.996 0.996 0.996 1.161-0.664c0.332-0.19 0.332-0.474 0-0.664z"></path>
<path fill="#ff3a44" style="fill: var(--color6, #ff3a44)" d="M5.428 16l-2.963 2.963c0 0 0.024 0 0.024 0.024 0.119 0.095 0.284 0.119 0.474 0l3.437-1.967 0.024-0.024-0.996-0.996z"></path>
<path fill="#00f076" style="fill: var(--color7, #00f076)" d="M2.963 13.037c-0.19-0.119-0.356-0.095-0.474 0 0 0-0.024 0-0.024 0.024l2.963 2.939 0.996-0.996-3.461-1.967z"></path>
</symbol>
<symbol id="check-1" viewBox="0 0 32 32">
<title>check-1</title>
<path d="M10.165 23.428l-7.594-7.659-2.572 2.594 10.165 10.252 21.835-22.022-2.572-2.594-19.263 19.428z"></path>
</symbol>
<symbol id="check-2" viewBox="0 0 32 32">
<title>check-2</title>
<path d="M14 22.8l-6.8-6.8 2.8-2.8 4 4 8-8 2.8 2.8-10.8 10.8zM16 0c-8.8 0-16 7.2-16 16s7.2 16 16 16c8.8 0 16-7.2 16-16s-7.2-16-16-16z"></path>
</symbol>
<symbol id="close" viewBox="0 0 32 32">
<title>close</title>
<path d="M29.4 2.6c-0.8-0.8-2-0.8-2.8 0l-10.6 10.6-10.6-10.6c-0.8-0.8-2-0.8-2.8 0s-0.8 2 0 2.8l10.6 10.6-10.6 10.6c-0.8 0.8-0.8 2 0 2.8 0.4 0.4 0.8 0.6 1.4 0.6s1-0.2 1.4-0.6l10.6-10.6 10.6 10.6c0.4 0.4 1 0.6 1.4 0.6s1-0.2 1.4-0.6c0.8-0.8 0.8-2 0-2.8l-10.6-10.6 10.6-10.6c0.8-0.8 0.8-2 0-2.8v0z"></path>
</symbol>
<symbol id="emoji-1" viewBox="0 0 32 32">
<title>emoji-1</title>
<path fill="#ffd34d" style="fill: var(--color8, #ffd34d)" d="M16 32c8.836 0 16-7.164 16-16s-7.164-16-16-16c-8.837 0-16 7.163-16 16s7.163 16 16 16z"></path>
<path fill="#efac2b" style="fill: var(--color9, #efac2b)" d="M26.1 3.6c2.3 2.8 3.6 6.3 3.6 10.1 0 8.8-7.2 16-16 16-3.8 0-7.4-1.4-10.1-3.6 3 3.6 7.4 5.9 12.4 5.9 8.8 0 16-7.2 16-16 0-5-2.3-9.4-5.9-12.4z"></path>
<path fill="#fff" style="fill: var(--color3, #fff)" d="M2.6 12.2h-0.1c-0.3-0.1-0.4-0.4-0.3-0.6 1.3-4.3 4.5-7.8 8.8-9.3 0.3-0.1 0.5 0 0.6 0.3s0 0.5-0.3 0.6c-3.9 1.4-7 4.6-8.1 8.6-0.2 0.2-0.4 0.4-0.6 0.4z"></path>
<path fill="#3d3813" style="fill: var(--color10, #3d3813)" d="M10.1 10.3c-0.9 0-1.7 0.7-1.7 1.6v1.3c0 0.9 0.7 1.6 1.6 1.6s1.6-0.7 1.6-1.6v-1.3c0.2-0.9-0.6-1.6-1.5-1.6z"></path>
<path fill="#3d3813" style="fill: var(--color10, #3d3813)" d="M21.9 10.3c-0.9 0-1.7 0.7-1.7 1.6v1.3c0 0.9 0.7 1.6 1.6 1.6s1.6-0.7 1.6-1.6v-1.3c0.1-0.9-0.6-1.6-1.5-1.6z"></path>
<path fill="#3d3813" style="fill: var(--color10, #3d3813)" d="M16 25.2c-5.9 0-7.8-4.4-7.9-4.6-0.2-0.4 0-0.8 0.4-1s0.8 0 1 0.4c0.1 0.2 1.6 3.6 6.5 3.6 5 0 6.5-3.6 6.5-3.6 0.2-0.4 0.6-0.6 1-0.4s0.6 0.6 0.4 1c-0.1 0.2-2 4.6-7.9 4.6z"></path>
</symbol>
<symbol id="emoji-2" viewBox="0 0 32 32">
<title>emoji-2</title>
<path fill="#ffd34d" style="fill: var(--color8, #ffd34d)" d="M16 32c8.836 0 16-7.164 16-16s-7.164-16-16-16c-8.837 0-16 7.163-16 16s7.163 16 16 16z"></path>
<path fill="#efac2b" style="fill: var(--color9, #efac2b)" d="M26.1 3.6c2.3 2.8 3.6 6.3 3.6 10.1 0 8.8-7.2 16-16 16-3.8 0-7.4-1.4-10.1-3.6 3 3.6 7.4 5.9 12.4 5.9 8.8 0 16-7.2 16-16 0-5-2.3-9.4-5.9-12.4z"></path>
<path fill="#fff" style="fill: var(--color3, #fff)" d="M2.6 12.2h-0.1c-0.3-0.1-0.4-0.4-0.3-0.6 1.3-4.3 4.5-7.8 8.8-9.3 0.3-0.1 0.5 0 0.6 0.3s0 0.5-0.3 0.6c-3.9 1.4-7 4.6-8.1 8.6-0.2 0.2-0.4 0.4-0.6 0.4z"></path>
<path fill="#3d3813" style="fill: var(--color10, #3d3813)" d="M11.9 14.5c-0.4 0-0.7-0.3-0.7-0.7v-0.4c0-0.8-0.6-1.4-1.4-1.4s-1.4 0.6-1.4 1.4v0.4c0 0.4-0.3 0.7-0.7 0.7s-0.7-0.3-0.7-0.7v-0.4c0-1.6 1.3-2.8 2.8-2.8 1.6 0 2.9 1.3 2.9 2.8v0.4c0 0.4-0.4 0.7-0.8 0.7z"></path>
<path fill="#3d3813" style="fill: var(--color10, #3d3813)" d="M24.3 14.5c-0.4 0-0.7-0.3-0.7-0.7v-0.4c0-0.8-0.6-1.4-1.4-1.4s-1.4 0.6-1.4 1.4v0.4c0 0.4-0.3 0.7-0.7 0.7s-0.7-0.3-0.7-0.7v-0.4c0-1.6 1.3-2.8 2.8-2.8 1.6 0 2.9 1.3 2.9 2.8v0.4c0 0.4-0.3 0.7-0.8 0.7z"></path>
<path fill="#3d3813" style="fill: var(--color10, #3d3813)" d="M16 25.1c-6.6 0-8.8-4.3-8.8-4.5-0.2-0.4 0-0.8 0.4-1s0.8 0 1 0.4c0.1 0.2 1.8 3.7 7.5 3.7s7.5-3.6 7.5-3.7c0.2-0.4 0.6-0.5 1-0.4 0.4 0.2 0.5 0.6 0.4 1-0.2 0.2-2.4 4.5-9 4.5z"></path>
</symbol>
<symbol id="emoji-3" viewBox="0 0 32 32">
<title>emoji-3</title>
<path fill="#ffd34d" style="fill: var(--color8, #ffd34d)" d="M16 32c8.837 0 16-7.164 16-16s-7.163-16-16-16c-8.837 0-16 7.163-16 16s7.163 16 16 16z"></path>
<path fill="#efac2b" style="fill: var(--color9, #efac2b)" d="M26.1 3.6c2.3 2.8 3.6 6.3 3.6 10.1 0 8.8-7.2 16-16 16-3.8 0-7.4-1.4-10.1-3.6 2.9 3.6 7.4 5.9 12.4 5.9 8.8 0 16-7.2 16-16 0-5-2.3-9.4-5.9-12.4z"></path>
<path fill="#fff" style="fill: var(--color3, #fff)" d="M2.6 12.2h-0.1c-0.3-0.1-0.4-0.4-0.3-0.6 1.3-4.3 4.5-7.8 8.8-9.3 0.3-0.1 0.5 0 0.6 0.3s0 0.5-0.3 0.6c-3.9 1.4-7 4.6-8.1 8.6-0.2 0.2-0.4 0.4-0.6 0.4z"></path>
<path fill="#3d3813" style="fill: var(--color10, #3d3813)" d="M7.2 18.6c-0.1-0.2 0.7 6.4 8.8 6.6 8-0.2 8.9-6.8 8.8-6.6-5.8 1.4-11.8 1.4-17.6 0z"></path>
<path fill="#fff" style="fill: var(--color3, #fff)" d="M16 21.1c3.6-0.1 6.1-1 7.7-2.2-5.1 1.1-10.3 1.1-15.4 0 1.6 1.1 4.1 2.1 7.7 2.2z"></path>
<path fill="#d05628" style="fill: var(--color11, #d05628)" d="M21.6 23.6c-1.4-0.8-3.4-1.2-5.6-1.2s-4.2 0.5-5.6 1.2c1.3 0.9 3.1 1.6 5.6 1.7 2.5-0.1 4.3-0.8 5.6-1.7z"></path>
<path fill="#3d3813" style="fill: var(--color10, #3d3813)" d="M11.9 14.5c-0.4 0-0.7-0.3-0.7-0.7v-0.4c0-0.8-0.6-1.4-1.4-1.4s-1.4 0.6-1.4 1.4v0.4c0 0.4-0.3 0.7-0.7 0.7s-0.7-0.3-0.7-0.7v-0.4c0-1.6 1.3-2.8 2.8-2.8 1.6 0 2.9 1.3 2.9 2.8v0.4c0 0.4-0.4 0.7-0.8 0.7z"></path>
<path fill="#3d3813" style="fill: var(--color10, #3d3813)" d="M24.3 14.5c-0.4 0-0.7-0.3-0.7-0.7v-0.4c0-0.8-0.6-1.4-1.4-1.4s-1.4 0.6-1.4 1.4v0.4c0 0.4-0.3 0.7-0.7 0.7s-0.7-0.3-0.7-0.7v-0.4c0-1.6 1.3-2.8 2.8-2.8 1.6 0 2.9 1.3 2.9 2.8v0.4c0 0.4-0.3 0.7-0.8 0.7z"></path>
</symbol>
<symbol id="emoji-4" viewBox="0 0 32 32">
<title>emoji-4</title>
<path fill="#ffd34d" style="fill: var(--color8, #ffd34d)" d="M16 32c8.836 0 16-7.164 16-16s-7.164-16-16-16c-8.837 0-16 7.163-16 16s7.163 16 16 16z"></path>
<path fill="#efac2b" style="fill: var(--color9, #efac2b)" d="M26.1 3.6c2.3 2.8 3.6 6.3 3.6 10.1 0 8.8-7.2 16-16 16-3.8 0-7.4-1.4-10.1-3.6 2.9 3.6 7.4 5.9 12.4 5.9 8.8 0 16-7.2 16-16 0-5-2.3-9.4-5.9-12.4z"></path>
<path fill="#fff" style="fill: var(--color3, #fff)" d="M2.6 12.2h-0.1c-0.3-0.1-0.4-0.4-0.3-0.6 1.3-4.3 4.5-7.8 8.8-9.3 0.3-0.1 0.5 0 0.6 0.3s0 0.5-0.3 0.6c-3.9 1.4-7 4.6-8.1 8.6-0.2 0.2-0.4 0.4-0.6 0.4z"></path>
<path fill="#3d3813" style="fill: var(--color10, #3d3813)" d="M7.201 19.2c-0.1-0.2 0.7 6.4 8.8 6.6 8-0.2 8.9-6.8 8.8-6.6-5.8 1.4-11.8 1.4-17.6 0z"></path>
<path fill="#fff" style="fill: var(--color3, #fff)" d="M16 21.7c3.6-0.1 6.1-1 7.7-2.2-5.1 1.1-10.3 1.1-15.4 0 1.6 1.1 4.1 2.1 7.7 2.2z"></path>
<path fill="#d05628" style="fill: var(--color11, #d05628)" d="M21.6 24.2c-1.4-0.8-3.4-1.2-5.6-1.2s-4.2 0.5-5.6 1.2c1.3 0.9 3.1 1.6 5.6 1.7 2.5-0.1 4.3-0.8 5.6-1.7z"></path>
<path fill="#6ebce6" style="fill: var(--color12, #6ebce6)" d="M2.8 16l3.8-1.6-1.6 3.8c-0.4 0.8-1.3 1.2-2.1 0.8s-1.2-1.3-0.8-2.1c0-0.4 0.3-0.7 0.7-0.9z"></path>
<path fill="#6ebce6" style="fill: var(--color12, #6ebce6)" d="M27.1 18.1l-1.6-3.8 3.8 1.6c0.8 0.4 1.2 1.3 0.8 2.1s-1.3 1.2-2.1 0.8c-0.5 0-0.8-0.3-0.9-0.7z"></path>
<path fill="#3d3813" style="fill: var(--color10, #3d3813)" d="M8.4 15c-0.3 0-0.5-0.1-0.6-0.4-0.2-0.4-0.1-0.8 0.3-1l2.6-1.5-2.6-1.5c-0.4-0.2-0.5-0.7-0.3-1 0.2-0.4 0.7-0.5 1-0.3l3.7 2.1c0.2 0.1 0.4 0.4 0.4 0.6 0 0.3-0.1 0.5-0.4 0.6l-3.7 2.1c-0.1 0.3-0.2 0.3-0.4 0.3z"></path>
<path fill="#3d3813" style="fill: var(--color10, #3d3813)" d="M23.6 15c-0.1 0-0.3 0-0.4-0.1l-3.7-2.1c-0.2-0.1-0.4-0.4-0.4-0.6 0-0.3 0.1-0.5 0.4-0.6l3.7-2.1c0.4-0.2 0.8-0.1 1 0.3s0.1 0.8-0.3 1l-2.6 1.5 2.6 1.5c0.4 0.2 0.5 0.7 0.3 1-0.1 0.1-0.4 0.2-0.6 0.2z"></path>
</symbol>
<symbol id="emoji-5" viewBox="0 0 32 32">
<title>emoji-5</title>
<path fill="#ffd34d" style="fill: var(--color8, #ffd34d)" d="M16 32c8.837 0 16-7.164 16-16s-7.164-16-16-16c-8.836 0-16 7.163-16 16s7.163 16 16 16z"></path>
<path fill="#efac2b" style="fill: var(--color9, #efac2b)" d="M26.1 3.6c2.3 2.8 3.6 6.3 3.6 10.1 0 8.8-7.2 16-16 16-3.8 0-7.4-1.4-10.1-3.6 2.9 3.6 7.4 5.9 12.4 5.9 8.8 0 16-7.2 16-16 0-5-2.3-9.4-5.9-12.4z"></path>
<path fill="#fff" style="fill: var(--color3, #fff)" d="M2.6 12.2h-0.1c-0.3-0.1-0.4-0.4-0.3-0.6 1.3-4.3 4.5-7.8 8.8-9.3 0.3-0.1 0.5 0 0.6 0.3s0 0.5-0.3 0.6c-3.9 1.4-7 4.6-8.1 8.6-0.2 0.2-0.4 0.4-0.6 0.4z"></path>
<path fill="#3d3813" style="fill: var(--color10, #3d3813)" d="M11.9 14.5c-0.4 0-0.7-0.3-0.7-0.7v-0.4c0-0.8-0.6-1.4-1.4-1.4s-1.4 0.6-1.4 1.4v0.4c0 0.4-0.3 0.7-0.7 0.7s-0.7-0.3-0.7-0.7v-0.4c0-1.6 1.3-2.8 2.8-2.8 1.6 0 2.9 1.3 2.9 2.8v0.4c0 0.4-0.4 0.7-0.8 0.7z"></path>
<path fill="#3d3813" style="fill: var(--color10, #3d3813)" d="M24.3 14.5c-0.4 0-0.7-0.3-0.7-0.7v-0.4c0-0.8-0.6-1.4-1.4-1.4s-1.4 0.6-1.4 1.4v0.4c0 0.4-0.3 0.7-0.7 0.7s-0.7-0.3-0.7-0.7v-0.4c0-1.6 1.3-2.8 2.8-2.8 1.6 0 2.9 1.3 2.9 2.8v0.4c0 0.4-0.3 0.7-0.8 0.7z"></path>
<path fill="#d05628" style="fill: var(--color11, #d05628)" d="M20.2 26.3c1.5-0.4 2.4-1.7 2-2.8l-0.9-3-5.2 1.5 0.9 3c0.3 1.2 1.7 1.8 3.2 1.3z"></path>
<path fill="#3d3813" style="fill: var(--color10, #3d3813)" d="M16 22.5c-6 0-7.9-3.9-7.9-4.1-0.2-0.3-0-0.7 0.3-0.9s0.7 0 0.9 0.3c0.1 0.1 1.7 3.3 6.7 3.3 5.1 0 6.7-3.2 6.7-3.3 0.2-0.3 0.6-0.5 0.9-0.3s0.5 0.6 0.3 0.9c0 0.2-1.9 4.1-7.9 4.1z"></path>
</symbol>
<symbol id="emoji-6" viewBox="0 0 32 32">
<title>emoji-6</title>
<path fill="#ffd34d" style="fill: var(--color8, #ffd34d)" d="M16 32c8.836 0 16-7.164 16-16s-7.164-16-16-16c-8.837 0-16 7.163-16 16s7.163 16 16 16z"></path>
<path fill="#efac2b" style="fill: var(--color9, #efac2b)" d="M26.1 3.6c2.3 2.8 3.6 6.3 3.6 10.1 0 8.8-7.2 16-16 16-3.8 0-7.4-1.4-10.1-3.6 2.9 3.6 7.4 5.9 12.4 5.9 8.8 0 16-7.2 16-16 0-5-2.3-9.4-5.9-12.4z"></path>
<path fill="#fff" style="fill: var(--color3, #fff)" d="M2.6 12.2h-0.1c-0.3-0.1-0.4-0.4-0.3-0.6 1.3-4.3 4.5-7.8 8.8-9.3 0.3-0.1 0.5 0 0.6 0.3s-0 0.5-0.3 0.6c-3.9 1.4-7 4.6-8.1 8.6-0.2 0.2-0.4 0.4-0.6 0.4z"></path>
<path fill="#3d3813" style="fill: var(--color10, #3d3813)" d="M9.8 10.3c-0.9 0-1.6 0.7-1.6 1.6v1.3c0 0.9 0.7 1.6 1.6 1.6s1.6-0.7 1.6-1.6v-1.3c0-0.9-0.7-1.6-1.6-1.6z"></path>
<path fill="#3d3813" style="fill: var(--color10, #3d3813)" d="M24.4 14.5c-0.4 0-0.7-0.3-0.7-0.7v-0.4c0-0.8-0.6-1.4-1.4-1.4s-1.4 0.6-1.4 1.4v0.4c0 0.4-0.3 0.7-0.7 0.7s-0.7-0.3-0.7-0.7v-0.4c0-1.6 1.3-2.8 2.8-2.8 1.6 0 2.9 1.3 2.9 2.8v0.4c-0.1 0.4-0.4 0.7-0.8 0.7z"></path>
<path fill="#3d3813" style="fill: var(--color10, #3d3813)" d="M16 24.4c-3.5 0-5.3-2.5-5.8-3.9-0.1-0.4 0.1-0.8 0.5-0.9s0.8 0.1 0.9 0.4c0 0.1 1.1 2.9 4.4 2.9s4.4-2.8 4.4-2.9c0.1-0.4 0.6-0.6 0.9-0.5 0.4 0.1 0.6 0.6 0.5 0.9-0.5 1.5-2.3 4-5.8 4z"></path>
</symbol>
<symbol id="emoji-7" viewBox="0 0 32 32">
<title>emoji-7</title>
<path fill="#ffd34d" style="fill: var(--color8, #ffd34d)" d="M16 32c8.837 0 16-7.163 16-16s-7.163-16-16-16c-8.836 0-16 7.163-16 16s7.163 16 16 16z"></path>
<path fill="#efac2b" style="fill: var(--color9, #efac2b)" d="M26.1 3.6c2.3 2.8 3.6 6.3 3.6 10.1 0 8.8-7.2 16-16 16-3.8 0-7.4-1.4-10.1-3.6 2.9 3.6 7.4 5.9 12.4 5.9 8.8 0 16-7.2 16-16 0-5-2.3-9.4-5.9-12.4z"></path>
<path fill="#fff" style="fill: var(--color3, #fff)" d="M2.6 12.2h-0.1c-0.3-0.1-0.4-0.4-0.3-0.6 1.3-4.3 4.5-7.8 8.8-9.3 0.3-0.1 0.5 0 0.6 0.3s-0 0.5-0.3 0.6c-3.9 1.4-7 4.6-8.1 8.6-0.2 0.2-0.4 0.4-0.6 0.4z"></path>
<path fill="#3d3813" style="fill: var(--color10, #3d3813)" d="M11.9 14.5c-0.4 0-0.7-0.3-0.7-0.7v-0.4c0-0.8-0.6-1.4-1.4-1.4s-1.4 0.6-1.4 1.4v0.4c0 0.4-0.3 0.7-0.7 0.7s-0.7-0.3-0.7-0.7v-0.4c0-1.6 1.3-2.8 2.8-2.8 1.6 0 2.9 1.3 2.9 2.8v0.4c0 0.4-0.4 0.7-0.8 0.7z"></path>
<path fill="#3d3813" style="fill: var(--color10, #3d3813)" d="M24.4 14.5c-0.4 0-0.7-0.3-0.7-0.7v-0.4c0-0.8-0.6-1.4-1.4-1.4s-1.4 0.6-1.4 1.4v0.4c0 0.4-0.3 0.7-0.7 0.7s-0.7-0.3-0.7-0.7v-0.4c0-1.6 1.3-2.8 2.8-2.8 1.6 0 2.9 1.3 2.9 2.8v0.4c-0.1 0.4-0.4 0.7-0.8 0.7z"></path>
<path fill="#e59560" style="fill: var(--color13, #e59560)" d="M7.1 21.1c1.381 0 2.5-1.119 2.5-2.5s-1.119-2.5-2.5-2.5-2.5 1.119-2.5 2.5c0 1.381 1.119 2.5 2.5 2.5z"></path>
<path fill="#e59560" style="fill: var(--color13, #e59560)" d="M24.9 21.1c1.381 0 2.5-1.119 2.5-2.5s-1.119-2.5-2.5-2.5c-1.381 0-2.5 1.119-2.5 2.5s1.119 2.5 2.5 2.5z"></path>
<path fill="#3d3813" style="fill: var(--color10, #3d3813)" d="M16.2 25.1c-3.5 0-5.3-2.5-5.8-3.9-0.1-0.4 0.1-0.8 0.5-0.9s0.8 0.1 0.9 0.4c0 0.1 1.1 2.9 4.4 2.9s4.4-2.8 4.4-2.9c0.1-0.4 0.6-0.6 1-0.4 0.4 0.1 0.6 0.6 0.4 0.9-0.5 1.4-2.3 3.9-5.8 3.9z"></path>
</symbol>
<symbol id="emoji-8" viewBox="0 0 32 32">
<title>emoji-8</title>
<path fill="#ffd34d" style="fill: var(--color8, #ffd34d)" d="M16 32c8.837 0 16-7.163 16-16s-7.163-16-16-16c-8.836 0-16 7.163-16 16s7.163 16 16 16z"></path>
<path fill="#efac2b" style="fill: var(--color9, #efac2b)" d="M26.1 3.6c2.3 2.8 3.6 6.3 3.6 10.1 0 8.8-7.2 16-16 16-3.8 0-7.4-1.4-10.1-3.6 2.9 3.6 7.4 5.9 12.4 5.9 8.8 0 16-7.2 16-16 0-5-2.3-9.5-5.9-12.4z"></path>
<path fill="#fff" style="fill: var(--color3, #fff)" d="M2.6 12.2h-0.1c-0.3-0.1-0.4-0.4-0.3-0.6 1.3-4.3 4.5-7.8 8.8-9.3 0.3-0.1 0.5 0 0.6 0.3s-0 0.5-0.3 0.6c-3.9 1.4-7 4.6-8.1 8.6-0.2 0.2-0.4 0.4-0.6 0.4z"></path>
<path fill="#3d3813" style="fill: var(--color10, #3d3813)" d="M11.9 14.6c-0.4 0-0.7-0.3-0.7-0.7v-0.4c0-0.8-0.6-1.4-1.4-1.4s-1.4 0.6-1.4 1.4v0.4c0 0.4-0.3 0.7-0.7 0.7s-0.7-0.3-0.7-0.7v-0.4c0-1.6 1.3-2.8 2.8-2.8 1.6 0 2.9 1.3 2.9 2.8v0.4c0 0.3-0.4 0.7-0.8 0.7z"></path>
<path fill="#3d3813" style="fill: var(--color10, #3d3813)" d="M24.4 14.6c-0.4 0-0.7-0.3-0.7-0.7v-0.4c0-0.8-0.6-1.4-1.4-1.4s-1.4 0.6-1.4 1.4v0.4c0 0.4-0.3 0.7-0.7 0.7s-0.7-0.3-0.7-0.7v-0.4c0-1.6 1.3-2.8 2.8-2.8 1.6 0 2.9 1.3 2.9 2.8v0.4c-0.1 0.3-0.4 0.7-0.8 0.7z"></path>
<path fill="#3d3813" style="fill: var(--color10, #3d3813)" d="M7.2 19.1c-0.1-0.2 0.7 6.4 8.8 6.6 8-0.2 8.9-6.8 8.8-6.6-5.8 1.4-11.8 1.4-17.6 0z"></path>
<path fill="#fff" style="fill: var(--color3, #fff)" d="M16 21.5c3.6-0.1 6.1-1 7.7-2.2-5.1 1.1-10.3 1.1-15.4 0 1.6 1.2 4.1 2.2 7.7 2.2z"></path>
<path fill="#d05628" style="fill: var(--color11, #d05628)" d="M21.6 24.1c-1.4-0.8-3.4-1.2-5.6-1.2s-4.2 0.5-5.6 1.2c1.3 0.9 3.1 1.6 5.6 1.7 2.5-0.1 4.3-0.8 5.6-1.7z"></path>
<path fill="#6ebce6" style="fill: var(--color12, #6ebce6)" d="M26.1 14.6l1.5-3.8 1.5 3.8c0.3 0.8-0.1 1.8-0.9 2.1s-1.8-0.1-2.1-0.9c-0.2-0.4-0.2-0.8 0-1.2z"></path>
<path fill="#6ebce6" style="fill: var(--color12, #6ebce6)" d="M29.2 12.2l0.7-1.8 0.7 1.8c0.2 0.4 0 0.8-0.4 1s-0.8 0-1-0.4c0-0.2 0-0.4 0-0.6z"></path>
</symbol>
<symbol id="emoji-9" viewBox="0 0 32 32">
<title>emoji-9</title>
<path fill="#ffd34d" style="fill: var(--color8, #ffd34d)" d="M16 32c8.837 0 16-7.163 16-16s-7.163-16-16-16c-8.836 0-16 7.163-16 16s7.163 16 16 16z"></path>
<path fill="#efac2b" style="fill: var(--color9, #efac2b)" d="M26.1 3.6c2.3 2.8 3.6 6.3 3.6 10.1 0 8.8-7.2 16-16 16-3.8 0-7.4-1.4-10.1-3.6 2.9 3.6 7.4 5.9 12.4 5.9 8.8 0 16-7.2 16-16 0-5-2.3-9.5-5.9-12.4z"></path>
<path fill="#fff" style="fill: var(--color3, #fff)" d="M2.6 12.1h-0.1c-0.3-0.1-0.4-0.4-0.3-0.6 1.3-4.3 4.5-7.8 8.8-9.3 0.3-0.1 0.5-0 0.6 0.3s0 0.5-0.3 0.6c-3.9 1.4-7 4.6-8.1 8.6-0.2 0.3-0.4 0.4-0.6 0.4z"></path>
<path fill="#d05628" style="fill: var(--color11, #d05628)" d="M27.2 12.1c0.3-1.5-0.7-2.9-2.1-3.1-0.6-0.1-1.3 0-1.8 0.3-0.6-1.3-2.2-1.9-3.6-1.2-1.3 0.6-1.9 2.2-1.2 3.6l2.4 5 4.9-2.6c0.7-0.5 1.3-1.2 1.4-2z"></path>
<path fill="#d05628" style="fill: var(--color11, #d05628)" d="M4.7 12.1c-0.3-1.5 0.7-2.9 2.1-3.1 0.6-0.1 1.3 0 1.8 0.3 0.6-1.3 2.2-1.9 3.6-1.2 1.3 0.6 1.9 2.2 1.2 3.6l-2.4 5-4.9-2.6c-0.7-0.5-1.2-1.2-1.4-2z"></path>
<path fill="#3d3813" style="fill: var(--color10, #3d3813)" d="M7 19.6c-0.1-0.2 0.8 6.4 8.8 6.6 8.1-0.2 8.9-6.8 8.8-6.6-5.8 1.4-11.8 1.4-17.6 0z"></path>
<path fill="#fff" style="fill: var(--color3, #fff)" d="M15.8 22c3.7-0.1 6.1-1 7.7-2.2-5.1 1.1-10.4 1.1-15.5 0 1.7 1.2 4.1 2.1 7.8 2.2z"></path>
<path fill="#d05628" style="fill: var(--color11, #d05628)" d="M21.4 24.5c-1.4-0.8-3.4-1.2-5.6-1.2s-4.2 0.5-5.6 1.2c1.3 0.9 3.1 1.6 5.6 1.7 2.5-0.1 4.3-0.8 5.6-1.7z"></path>
</symbol>
<symbol id="emoji-10" viewBox="0 0 32 32">
<title>emoji-10</title>
<path fill="#ffd34d" style="fill: var(--color8, #ffd34d)" d="M16 32c8.837 0 16-7.163 16-16s-7.163-16-16-16c-8.836 0-16 7.163-16 16s7.163 16 16 16z"></path>
<path fill="#efac2b" style="fill: var(--color9, #efac2b)" d="M26.1 3.6c2.3 2.8 3.6 6.3 3.6 10.1 0 8.8-7.2 16-16 16-3.8 0-7.4-1.4-10.1-3.6 2.9 3.6 7.4 5.9 12.4 5.9 8.8 0 16-7.2 16-16 0-5-2.3-9.5-5.9-12.4z"></path>
<path fill="#fff" style="fill: var(--color3, #fff)" d="M2.6 12.1h-0.1c-0.3-0.1-0.4-0.4-0.3-0.6 1.3-4.3 4.5-7.8 8.8-9.3 0.3-0.1 0.5-0 0.6 0.3s0 0.5-0.3 0.6c-3.9 1.4-7 4.6-8.1 8.6-0.2 0.3-0.4 0.4-0.6 0.4z"></path>
<path fill="#3d3813" style="fill: var(--color10, #3d3813)" d="M9.5 10.3c-0.9 0-1.7 0.7-1.7 1.6v1.3c0 0.9 0.7 1.6 1.6 1.6s1.6-0.7 1.6-1.6v-1.3c0.1-0.9-0.6-1.6-1.5-1.6z"></path>
<path fill="#3d3813" style="fill: var(--color10, #3d3813)" d="M24.1 14.5c-0.4 0-0.7-0.3-0.7-0.7v-0.4c0-0.8-0.6-1.4-1.4-1.4s-1.4 0.6-1.4 1.4v0.4c0 0.4-0.3 0.7-0.7 0.7s-0.7-0.3-0.7-0.7v-0.4c0-1.6 1.3-2.9 2.9-2.9s2.9 1.3 2.9 2.9v0.4c-0.1 0.4-0.5 0.7-0.9 0.7z"></path>
<path fill="#3d3813" style="fill: var(--color10, #3d3813)" d="M16.3 23.9c-0.5 0-1.1-0.2-1.5-0.6-0.7-0.6-0.8-1.6-0.4-2.4-0.1-0.2-0.2-0.5-0.2-0.7-0.2-1.1 0.6-2.2 1.7-2.4 0.6-0.1 1.2 0.1 1.7 0.5 0.3 0.3 0.3 0.7 0.1 1.1-0.3 0.3-0.7 0.3-1.1 0.1-0.1-0.1-0.3-0.2-0.5-0.1-0.3 0-0.5 0.4-0.5 0.7 0 0.2 0.1 0.3 0.2 0.4 0.2 0.1 0.2 0.3 0.3 0.5 0 0.2-0.1 0.4-0.2 0.6-0.2 0.2-0.2 0.6 0 0.8s0.6 0.2 0.8 0c0.3-0.3 0.8-0.3 1.1 0s0.3 0.8 0 1.1c-0.4 0.2-1 0.4-1.5 0.4z"></path>
<path fill="#d05628" style="fill: var(--color11, #d05628)" d="M12.7 18.1c-1.1-1.3-3-1.6-4.3-0.5-0.6 0.5-1 1.1-1.1 1.8-1.6-0.4-3.3 0.5-3.8 2.2-0.4 1.6 0.5 3.3 2.2 3.8l6.2 1.6 1.4-6.3c0.1-0.9-0-1.8-0.6-2.6z"></path>
</symbol>
<symbol id="emoji-11" viewBox="0 0 32 32">
<title>emoji-11</title>
<path fill="#ffd34d" style="fill: var(--color8, #ffd34d)" d="M16 32c8.837 0 16-7.163 16-16s-7.163-16-16-16c-8.837 0-16 7.163-16 16s7.163 16 16 16z"></path>
<path fill="#efac2b" style="fill: var(--color9, #efac2b)" d="M26.1 3.6c2.3 2.8 3.6 6.3 3.6 10.1 0 8.8-7.2 16-16 16-3.8 0-7.4-1.4-10.1-3.6 2.9 3.6 7.4 5.9 12.4 5.9 8.8 0 16-7.2 16-16 0-5-2.3-9.5-5.9-12.4z"></path>
<path fill="#fff" style="fill: var(--color3, #fff)" d="M2.6 12.1h-0.1c-0.3-0.1-0.4-0.4-0.3-0.6 1.3-4.3 4.5-7.8 8.8-9.3 0.3-0.1 0.5-0 0.6 0.3s0 0.5-0.3 0.6c-3.9 1.4-7 4.6-8.1 8.6-0.2 0.3-0.4 0.4-0.6 0.4z"></path>
<path fill="#3d3813" style="fill: var(--color10, #3d3813)" d="M16.1 24.7c-0.5 0-1-0.1-1.4-0.2s-0.7-0.5-0.6-0.9c0.1-0.4 0.5-0.7 0.9-0.6 1.4 0.3 3.1 0 4.3-0.9 0.7-0.5 1.5-1.4 1.6-2.8 0-0.4 0.4-0.7 0.8-0.7s0.7 0.4 0.7 0.8c-0.1 1.6-0.9 2.9-2.2 3.9-1.2 0.9-2.7 1.4-4.1 1.4z"></path>
<path fill="#3d3813" style="fill: var(--color10, #3d3813)" d="M29.3 8.9c-1-0.2-2.6-0.4-4.2-0.5-2.1 0-4.9 0.3-6.6 0.9-0.9 0.3-2 0.4-2.5 0.4-0.4 0-1.6-0.1-2.5-0.4-1.7-0.6-4.5-0.9-6.6-0.9-1.6 0-3.2 0.2-4.2 0.5-0.4 0.1-0.7 0.5-0.6 1l0.1 0.5c0.1 0.3 0.3 0.5 0.5 0.6 0.1 0 0.3 0.1 0.3 0.3 0.2 0.5 1.2 3.4 1.7 4.4 0.4 0.9 1.6 1.6 4.4 1.6 3.9 0 5.2-2.6 5.9-4.2 0.1-0.2 0.2-0.5 0.3-0.8 0.1-0.5 0.4-0.9 0.5-1 0.1 0 0.2-0.1 0.2-0.1 0.1 0 0.2 0 0.2 0.1 0.1 0.1 0.4 0.5 0.5 1 0.1 0.3 0.2 0.7 0.3 0.8 0.6 1.7 2 4.2 5.9 4.2 2.7 0 3.9-0.8 4.4-1.6 0.5-1.1 1.5-4 1.7-4.4 0.1-0.2 0.2-0.2 0.3-0.3 0.3-0.1 0.5-0.3 0.5-0.6l0.1-0.5c0.1-0.5-0.2-0.9-0.6-1z"></path>
</symbol>
<symbol id="emoji-12" viewBox="0 0 32 32">
<title>emoji-12</title>
<path fill="#ffd34d" style="fill: var(--color8, #ffd34d)" d="M16 32c8.837 0 16-7.164 16-16s-7.163-16-16-16c-8.837 0-16 7.163-16 16s7.163 16 16 16z"></path>
<path fill="#efac2b" style="fill: var(--color9, #efac2b)" d="M26.1 3.6c2.3 2.8 3.6 6.3 3.6 10.1 0 8.8-7.2 16-16 16-3.8 0-7.4-1.4-10.1-3.6 2.9 3.6 7.4 5.9 12.4 5.9 8.8 0 16-7.2 16-16 0-5-2.3-9.5-5.9-12.4z"></path>
<path fill="#fff" style="fill: var(--color3, #fff)" d="M2.6 12.1h-0.1c-0.3-0.1-0.4-0.4-0.3-0.6 1.3-4.3 4.5-7.8 8.8-9.3 0.3-0.1 0.5-0 0.6 0.3s0 0.5-0.3 0.6c-3.9 1.4-7 4.6-8.1 8.6-0.2 0.3-0.4 0.4-0.6 0.4z"></path>
<path fill="#3d3813" style="fill: var(--color10, #3d3813)" d="M10.1 10.3c-0.9 0-1.7 0.7-1.7 1.6v1.3c0 0.9 0.7 1.6 1.6 1.6s1.6-0.7 1.6-1.6v-1.3c0.2-0.9-0.6-1.6-1.5-1.6z"></path>
<path fill="#3d3813" style="fill: var(--color10, #3d3813)" d="M21.9 10.3c-0.9 0-1.7 0.7-1.7 1.6v1.3c0 0.9 0.7 1.6 1.6 1.6s1.6-0.7 1.6-1.6v-1.3c0.1-0.9-0.6-1.6-1.5-1.6z"></path>
<path fill="#3d3813" style="fill: var(--color10, #3d3813)" d="M23.2 21.1h-14.4c-0.4 0-0.7-0.3-0.7-0.7s0.3-0.7 0.7-0.7h14.4c0.4 0 0.7 0.3 0.7 0.7 0.1 0.3-0.3 0.7-0.7 0.7z"></path>
</symbol>
<symbol id="emoji-13" viewBox="0 0 32 32">
<title>emoji-13</title>
<path fill="#ffd34d" style="fill: var(--color8, #ffd34d)" d="M16 32c8.837 0 16-7.163 16-16s-7.163-16-16-16c-8.836 0-16 7.163-16 16s7.163 16 16 16z"></path>
<path fill="#efac2b" style="fill: var(--color9, #efac2b)" d="M26.1 3.6c2.3 2.8 3.6 6.3 3.6 10.1 0 8.8-7.2 16-16 16-3.8 0-7.4-1.4-10.1-3.6 2.9 3.6 7.4 5.9 12.4 5.9 8.8 0 16-7.2 16-16 0-5-2.3-9.5-5.9-12.4z"></path>
<path fill="#fff" style="fill: var(--color3, #fff)" d="M2.6 12.2h-0.1c-0.3-0.1-0.4-0.4-0.3-0.6 1.3-4.3 4.5-7.8 8.8-9.3 0.3-0.1 0.5 0 0.6 0.3s-0 0.5-0.3 0.6c-3.9 1.4-7 4.6-8.1 8.6-0.2 0.2-0.4 0.4-0.6 0.4z"></path>
<path fill="#3d3813" style="fill: var(--color10, #3d3813)" d="M10.1 11.5c-0.9 0-1.7 0.7-1.7 1.6v1.3c0 0.9 0.7 1.6 1.6 1.6s1.6-0.7 1.6-1.6v-1.3c0.2-0.9-0.6-1.6-1.5-1.6z"></path>
<path fill="#3d3813" style="fill: var(--color10, #3d3813)" d="M21.9 11.5c-0.9 0-1.7 0.7-1.7 1.6v1.3c0 0.9 0.7 1.6 1.6 1.6s1.6-0.7 1.6-1.6v-1.3c0.1-0.9-0.6-1.6-1.5-1.6z"></path>
<path fill="#3d3813" style="fill: var(--color10, #3d3813)" d="M16.5 25.9h-0.9c-1.6 0-2.9-1.3-2.9-2.9v-0.9c0-1.6 1.3-2.9 2.9-2.9h0.9c1.6 0 2.9 1.3 2.9 2.9v0.9c0 1.7-1.3 2.9-2.9 2.9z"></path>
<path fill="#d05628" style="fill: var(--color11, #d05628)" d="M16 22.5c-1.4 0-2.6 0.5-3.2 1.6 0.4 1.1 1.5 1.9 2.7 1.9h0.9c1.2 0 2.3-0.8 2.7-1.9-0.5-1.2-1.7-1.6-3.1-1.6z"></path>
<path fill="#3d3813" style="fill: var(--color10, #3d3813)" d="M6.7 11.9c-0.1 0-0.2 0-0.2 0-0.4-0.1-0.6-0.6-0.5-0.9 1-2.8 3.7-3.4 3.8-3.4 0.4-0.1 0.8 0.2 0.9 0.6s-0.2 0.8-0.6 0.9c-0.1 0-2 0.4-2.7 2.5-0.1 0.1-0.4 0.3-0.7 0.3z"></path>
<path fill="#3d3813" style="fill: var(--color10, #3d3813)" d="M25.4 11.9c-0.3 0-0.6-0.2-0.7-0.5-0.7-2-2.6-2.4-2.7-2.5-0.4-0.1-0.7-0.5-0.6-0.9s0.5-0.7 0.9-0.6c0.1 0 2.8 0.6 3.8 3.4 0.1 0.4-0.1 0.8-0.5 0.9-0.1 0.2-0.2 0.2-0.2 0.2z"></path>
</symbol>
<symbol id="emoji-14" viewBox="0 0 32 32">
<title>emoji-14</title>
<path fill="#ffd34d" style="fill: var(--color8, #ffd34d)" d="M16 32c8.837 0 16-7.163 16-16s-7.163-16-16-16c-8.836 0-16 7.163-16 16s7.163 16 16 16z"></path>
<path fill="#efac2b" style="fill: var(--color9, #efac2b)" d="M26.1 3.6c2.3 2.8 3.6 6.3 3.6 10.1 0 8.8-7.2 16-16 16-3.8 0-7.4-1.4-10.1-3.6 2.9 3.6 7.4 5.9 12.4 5.9 8.8 0 16-7.2 16-16 0-5-2.3-9.5-5.9-12.4z"></path>
<path fill="#fff" style="fill: var(--color3, #fff)" d="M2.6 12.2h-0.1c-0.3-0.1-0.4-0.4-0.3-0.6 1.3-4.3 4.5-7.8 8.8-9.3 0.3-0.1 0.5 0 0.6 0.3s0 0.5-0.3 0.6c-3.9 1.4-7 4.6-8.1 8.6-0.2 0.2-0.4 0.4-0.6 0.4z"></path>
<path fill="#3d3813" style="fill: var(--color10, #3d3813)" d="M10.2 10.3c-0.9 0-1.6 0.7-1.6 1.6v1.3c0 0.9 0.7 1.6 1.6 1.6s1.6-0.7 1.6-1.6v-1.3c0-0.9-0.8-1.6-1.6-1.6z"></path>
<path fill="#3d3813" style="fill: var(--color10, #3d3813)" d="M21.9 10.3c-0.9 0-1.6 0.7-1.6 1.6v1.3c0 0.9 0.7 1.6 1.6 1.6s1.6-0.7 1.6-1.6v-1.3c0-0.9-0.7-1.6-1.6-1.6z"></path>
<path fill="#3d3813" style="fill: var(--color10, #3d3813)" d="M23.2 23.5c-0.3 0-0.6-0.2-0.7-0.5-0.1-0.2-1.6-3.6-6.5-3.6s-6.4 3.5-6.5 3.6c-0.2 0.4-0.6 0.6-1 0.4s-0.6-0.6-0.4-1c0.1-0.2 1.9-4.5 7.9-4.5s7.8 4.4 7.9 4.5c0.2 0.4 0 0.8-0.4 1-0.1 0.1-0.2 0.1-0.3 0.1z"></path>
</symbol>
<symbol id="emoji-15" viewBox="0 0 32 32">
<title>emoji-15</title>
<path fill="#ffd34d" style="fill: var(--color8, #ffd34d)" d="M16 32c8.837 0 16-7.163 16-16s-7.163-16-16-16c-8.836 0-16 7.163-16 16s7.163 16 16 16z"></path>
<path fill="#efac2b" style="fill: var(--color9, #efac2b)" d="M26.1 3.6c2.3 2.8 3.6 6.3 3.6 10.1 0 8.8-7.2 16-16 16-3.8 0-7.4-1.4-10.1-3.6 2.9 3.6 7.4 5.9 12.4 5.9 8.8 0 16-7.2 16-16 0-5-2.3-9.5-5.9-12.4z"></path>
<path fill="#fff" style="fill: var(--color3, #fff)" d="M2.6 12.2h-0.1c-0.3-0.1-0.4-0.4-0.3-0.6 1.3-4.3 4.5-7.8 8.8-9.3 0.3-0.1 0.5 0 0.6 0.3s0 0.5-0.3 0.6c-3.9 1.4-7 4.6-8.1 8.6-0.2 0.2-0.4 0.4-0.6 0.4z"></path>
<path fill="#3d3813" style="fill: var(--color10, #3d3813)" d="M22.3 15.3c-1.6 0-2.9-1.3-2.9-2.9v-0.4c0-0.4 0.3-0.7 0.7-0.7s0.7 0.3 0.7 0.7v0.4c0 0.8 0.6 1.4 1.4 1.4s1.4-0.6 1.4-1.4v-0.4c0-0.4 0.3-0.7 0.7-0.7s0.7 0.3 0.7 0.7v0.4c0.1 1.6-1.2 2.9-2.7 2.9z"></path>
<path fill="#3d3813" style="fill: var(--color10, #3d3813)" d="M9.8 15.3c-1.6 0-2.9-1.3-2.9-2.9v-0.4c0-0.4 0.3-0.7 0.7-0.7s0.7 0.3 0.7 0.7v0.4c0 0.8 0.6 1.4 1.4 1.4s1.4-0.6 1.4-1.4v-0.4c0-0.4 0.3-0.7 0.7-0.7s0.7 0.3 0.7 0.7v0.4c0.1 1.6-1.1 2.9-2.7 2.9z"></path>
<path fill="#3d3813" style="fill: var(--color10, #3d3813)" d="M16 19.3c-6.5 0.1-7.7 5-7.7 4.9 5.1-0.7 10.3-0.7 15.4 0 0 0.1-1.2-4.8-7.7-4.9z"></path>
<path fill="#6ebce6" style="fill: var(--color12, #6ebce6)" d="M5.2 18.9l1.5-3.8 1.5 3.8c0.3 0.8-0.1 1.8-0.9 2.1s-1.8-0.1-2.1-0.9c-0.2-0.4-0.2-0.8 0-1.2z"></path>
<path fill="#d05628" style="fill: var(--color11, #d05628)" d="M20.4 23.8c-1-1.1-2.6-1.9-4.4-1.9s-3.5 0.7-4.4 1.9c2.9-0.2 5.9-0.2 8.8 0z"></path>
</symbol>
<symbol id="emoji-16" viewBox="0 0 32 32">
<title>emoji-16</title>
<path fill="#ffd34d" style="fill: var(--color8, #ffd34d)" d="M16 32c8.836 0 16-7.164 16-16s-7.164-16-16-16c-8.837 0-16 7.163-16 16s7.163 16 16 16z"></path>
<path fill="#efac2b" style="fill: var(--color9, #efac2b)" d="M26.1 3.6c2.3 2.8 3.6 6.3 3.6 10.1 0 8.8-7.2 16-16 16-3.8 0-7.4-1.4-10.1-3.6 2.9 3.6 7.4 5.9 12.4 5.9 8.8 0 16-7.2 16-16 0-5-2.3-9.5-5.9-12.4z"></path>
<path fill="#fff" style="fill: var(--color3, #fff)" d="M2.6 12.2h-0.1c-0.3-0.1-0.4-0.4-0.3-0.6 1.3-4.3 4.5-7.8 8.8-9.3 0.3-0.1 0.5 0 0.6 0.3s-0 0.5-0.3 0.6c-3.9 1.4-7 4.6-8.1 8.6-0.2 0.2-0.4 0.4-0.6 0.4z"></path>
<path fill="#3d3813" style="fill: var(--color10, #3d3813)" d="M22.4 23.4c-0.3 0-0.6-0.2-0.7-0.5-0.1-0.1-1.4-3.2-5.7-3.2s-5.7 3.1-5.7 3.2c-0.2 0.4-0.6 0.6-1 0.4s-0.6-0.6-0.4-1c0.1-0.2 1.7-4.1 7.1-4.1 5.3 0 7 3.9 7.1 4.1 0.2 0.4 0 0.8-0.4 1-0.1 0.1-0.2 0.1-0.3 0.1z"></path>
<path fill="#3d3813" style="fill: var(--color10, #3d3813)" d="M8.4 15.5c-0.3 0-0.5-0.1-0.6-0.4-0.2-0.4-0.1-0.8 0.3-1l2.6-1.5-2.6-1.5c-0.4-0.2-0.5-0.7-0.3-1 0.2-0.4 0.7-0.5 1-0.3l3.7 2.1c0.2 0.1 0.4 0.4 0.4 0.6s-0.1 0.5-0.4 0.6l-3.7 2.1c-0.1 0.3-0.2 0.3-0.4 0.3z"></path>
<path fill="#3d3813" style="fill: var(--color10, #3d3813)" d="M23.6 15.5c-0.1 0-0.3 0-0.4-0.1l-3.7-2.1c-0.2-0.1-0.4-0.4-0.4-0.6s0.1-0.5 0.4-0.6l3.7-2.1c0.4-0.2 0.8-0.1 1 0.3s0.1 0.8-0.3 1l-2.6 1.5 2.6 1.5c0.4 0.2 0.5 0.7 0.3 1-0.1 0.1-0.4 0.2-0.6 0.2z"></path>
</symbol>
<symbol id="emoji-17" viewBox="0 0 32 32">
<title>emoji-17</title>
<path fill="#d24103" style="fill: var(--color14, #d24103)" d="M16 32c8.836 0 16-7.164 16-16s-7.164-16-16-16c-8.837 0-16 7.163-16 16s7.163 16 16 16z"></path>
<path fill="#b33b0c" style="fill: var(--color15, #b33b0c)" d="M26.1 3.6c2.3 2.8 3.6 6.3 3.6 10.1 0 8.8-7.2 16-16 16-3.8 0-7.4-1.4-10.1-3.6 2.9 3.6 7.4 5.9 12.4 5.9 8.8 0 16-7.2 16-16 0-5-2.3-9.5-5.9-12.4z"></path>
<path fill="#fff" style="fill: var(--color3, #fff)" d="M2.6 12.1h-0.1c-0.3-0.1-0.4-0.4-0.3-0.6 1.3-4.3 4.5-7.8 8.8-9.3 0.3-0.1 0.5 0 0.6 0.3s-0 0.5-0.3 0.6c-3.9 1.4-7 4.6-8.1 8.6-0.2 0.3-0.4 0.4-0.6 0.4z"></path>
<path fill="#3d3813" style="fill: var(--color10, #3d3813)" d="M10.3 12.8l-0.6 1.1c-0.4 0.8-0.2 1.8 0.6 2.2s1.8 0.2 2.2-0.6l0.6-1.1-2.8-1.6z"></path>
<path fill="#3d3813" style="fill: var(--color10, #3d3813)" d="M12.1 14.7l-4.8-2.8c-0.4-0.2-0.5-0.7-0.3-1 0.2-0.4 0.7-0.5 1-0.3l4.8 2.8c0.4 0.2 0.5 0.7 0.3 1-0.2 0.4-0.6 0.5-1 0.3z"></path>
<path fill="#3d3813" style="fill: var(--color10, #3d3813)" d="M20.6 12.8l0.6 1.1c0.4 0.8 0.2 1.8-0.6 2.2s-1.8 0.2-2.2-0.6l-0.6-1.1 2.8-1.6z"></path>
<path fill="#3d3813" style="fill: var(--color10, #3d3813)" d="M18.7 14.7l4.8-2.8c0.4-0.2 0.5-0.7 0.3-1-0.2-0.4-0.7-0.5-1-0.3l-4.8 2.8c-0.4 0.2-0.5 0.7-0.3 1 0.2 0.4 0.7 0.5 1 0.3z"></path>
<path fill="#3d3813" style="fill: var(--color10, #3d3813)" d="M18.9 22.4c0.4 0.3 0.8 0.6 1.1 0.9s0.3 0.8 0 1.1c-0.3 0.3-0.8 0.3-1.1 0-1-1.1-2.6-1.7-4-1.6-0.8 0-2 0.3-2.9 1.5-0.3 0.3-0.7 0.4-1 0.1s-0.4-0.7-0.1-1c1-1.2 2.4-1.9 4-2 1.4-0.3 2.8 0.2 4 1z"></path>
</symbol>
<symbol id="emoji-18" viewBox="0 0 32 32">
<title>emoji-18</title>
<path fill="#d3000f" style="fill: var(--color16, #d3000f)" d="M28 30h-24c-2.2 0-4-1.8-4-4v-20c0-2.2 1.8-4 4-4h24c2.2 0 4 1.8 4 4v20c0 2.2-1.8 4-4 4z"></path>
<path fill="#b71112" style="fill: var(--color17, #b71112)" d="M31 24.3v-19.1c-10.2 2.4-21.8 13.7-24.4 23.8h19.7c3.2 0 4.7-1.5 4.7-4.7z"></path>
<path fill="#ffe900" style="fill: var(--color18, #ffe900)" d="M16 7.4l2.1 6.6h7l-5.6 4 2.1 6.6-5.6-4-5.6 4 2.1-6.6-5.6-4h7l2.1-6.6z"></path>
</symbol>
<symbol id="emoji-icon" viewBox="0 0 32 32">
<title>emoji-icon</title>
<path d="M16 32c-8.823 0-16-7.177-16-16s7.178-16 16-16c8.821 0 16 7.178 16 16s-7.178 16-15.999 16zM16 3.787c-6.735 0-12.214 5.479-12.214 12.214s5.479 12.214 12.214 12.214c6.735 0 12.213-5.479 12.213-12.214s-5.479-12.214-12.213-12.214z"></path>
<path d="M12.125 14.608c1.243 0 2.251-1.361 2.251-3.040s-1.008-3.040-2.251-3.040c-1.243 0-2.251 1.361-2.251 3.040s1.008 3.040 2.251 3.040z"></path>
<path d="M22.126 11.568c0 1.679-1.008 3.040-2.252 3.040-1.242 0-2.249-1.362-2.249-3.040s1.007-3.039 2.249-3.039c1.244 0 2.252 1.361 2.252 3.039z"></path>
<path d="M15.988 24.798c-5.198 0-7.447-3.619-7.54-3.773-0.529-0.875-0.249-2.013 0.626-2.543 0.867-0.524 1.996-0.254 2.53 0.607 0.078 0.119 1.366 2.008 4.384 2.008 3.067 0 4.396-1.99 4.409-2.011 0.542-0.867 1.685-1.13 2.551-0.589 0.868 0.543 1.131 1.685 0.589 2.552-0.096 0.153-2.402 3.751-7.55 3.751z"></path>
</symbol>
<symbol id="exclamation" viewBox="0 0 32 32">
<title>exclamation</title>
<path d="M16 32c8.837 0 16-7.163 16-16s-7.163-16-16-16c-8.837 0-16 7.163-16 16s7.163 16 16 16zM14 8h4v10h-4v-10zM14 20h4v4h-4v-4z"></path>
</symbol>
<symbol id="eye-hide" viewBox="0 0 32 32">
<title>eye-hide</title>
<path d="M15.927 24.049l1.81 2.618c-0.578 0.055-1.157 0.083-1.737 0.083-6.656 0-12.498-3.597-15.631-8.979-0.242-0.415-0.369-0.889-0.369-1.371s0.128-0.955 0.369-1.371c1.335-2.293 3.162-4.262 5.335-5.768l3.171 4.587c-0.278 0.798-0.43 1.657-0.43 2.552 0 4.204 3.341 7.61 7.483 7.649v0zM31.631 17.771c-1.759 3.023-4.375 5.482-7.51 7.058l0.001 0.001 2.304 3.33c0.422 0.611 0.276 1.452-0.328 1.88l-0.728 0.516c-0.603 0.428-1.434 0.279-1.857-0.332l-17.938-25.584c-0.422-0.611-0.276-1.452 0.328-1.88l0.728-0.516c0.603-0.427 1.434-0.279 1.857 0.332l2.835 4.085c1.493-0.398 3.061-0.611 4.677-0.611 6.656 0 12.498 3.597 15.631 8.979 0.242 0.415 0.369 0.889 0.369 1.371s-0.127 0.955-0.369 1.371zM23.556 16.4c0-4.229-3.38-7.65-7.556-7.65-0.997 0-1.948 0.195-2.818 0.55l1.072 1.522c1.437-0.46 3.058-0.347 4.467 0.417h-0.002c-1.314 0-2.379 1.078-2.379 2.409 0 1.329 1.064 2.409 2.379 2.409 1.314 0 2.379-1.078 2.379-2.409v-0.002c1.026 1.94 0.906 4.383-0.458 6.241v0.001l1.073 1.522c1.149-1.342 1.843-3.093 1.843-5.009zM14.556 22.066l-4.307-6.23c-0.279 2.947 1.629 5.532 4.307 6.23z"></path>
</symbol>
<symbol id="eye-show" viewBox="0 0 32 32">
<title>eye-show</title>
<path d="M31.631 15.023c-3.133-5.408-8.975-9.023-15.631-9.023-6.659 0-12.5 3.617-15.631 9.023-0.242 0.417-0.369 0.893-0.369 1.377s0.128 0.96 0.369 1.377c3.132 5.408 8.975 9.023 15.631 9.023 6.659 0 12.5-3.617 15.631-9.023 0.242-0.417 0.369-0.893 0.369-1.377s-0.127-0.96-0.369-1.377v0zM16 24.087c-4.176 0-7.556-3.438-7.556-7.687s3.379-7.687 7.556-7.687c4.176 0 7.556 3.438 7.556 7.687s-3.379 7.687-7.556 7.687zM21.778 16.4c0 3.247-2.587 5.878-5.778 5.878s-5.778-2.632-5.778-5.878c0-1.001 0.246-1.943 0.68-2.768l-0 0.002c0 1.337 1.065 2.42 2.379 2.42s2.379-1.084 2.379-2.42c0-1.337-1.065-2.42-2.379-2.42l-0.002 0c0.811-0.441 1.737-0.692 2.721-0.692 3.191 0 5.778 2.632 5.778 5.878z"></path>
</symbol>
<symbol id="loading" viewBox="0 0 32 32">
<title>loading</title>
<path d="M19 3c0 1.657-1.343 3-3 3s-3-1.343-3-3c0-1.657 1.343-3 3-3s3 1.343 3 3zM16 26c-1.657 0-3 1.343-3 3s1.343 3 3 3c1.657 0 3-1.343 3-3s-1.343-3-3-3zM29 13c-1.657 0-3 1.343-3 3s1.343 3 3 3c1.657 0 3-1.343 3-3s-1.343-3-3-3zM6 16c0-1.657-1.343-3-3-3s-3 1.343-3 3c0 1.657 1.343 3 3 3s3-1.343 3-3zM6.808 22.192c-1.657 0-3 1.343-3 3s1.343 3 3 3c1.657 0 3-1.343 3-3s-1.343-3-3-3zM25.192 22.192c-1.657 0-3 1.343-3 3s1.343 3 3 3c1.657 0 3-1.343 3-3s-1.343-3-3-3zM6.808 3.808c-1.657 0-3 1.343-3 3s1.343 3 3 3c1.657 0 3-1.343 3-3s-1.343-3-3-3z"></path>
</symbol>
<symbol id="new-tab" viewBox="0 0 32 32">
<title>new-tab</title>
<path d="M21.647 3.765c-1.040 0-1.883-0.843-1.883-1.883s0.843-1.882 1.883-1.882h8.471c1.039 0 1.882 0.844 1.882 1.882v8.471c0 1.039-0.843 1.882-1.882 1.882s-1.882-0.843-1.882-1.882v-3.927l-10.905 10.904c-0.735 0.735-1.927 0.735-2.662 0s-0.735-1.927 0-2.662l10.904-10.904h-3.927zM28.235 17.883c0-1.040 0.843-1.882 1.882-1.882s1.882 0.843 1.882 1.882v12.235c0 1.039-0.843 1.882-1.882 1.882h-28.235c-1.039 0-1.882-0.843-1.882-1.882v-28.235c0-1.039 0.843-1.882 1.882-1.882h12.235c1.040 0 1.883 0.843 1.883 1.882s-0.843 1.883-1.883 1.883h-10.352v24.47h24.47v-10.353z"></path>
</symbol>
<symbol id="social-facebook" viewBox="0 0 32 32">
<title>social-facebook</title>
<path d="M22.912 10.485l-0.582 5.515h-4.409v16h-6.622v-16h-3.3v-5.515h3.3v-3.32c0-4.486 1.865-7.164 7.168-7.164h4.407v5.515h-2.758c-2.058 0-2.195 0.777-2.195 2.214v2.756h4.99z"></path>
</symbol>
<symbol id="social-google" viewBox="0 0 32 32">
<title>social-google</title>
<path fill="#3e82f1" style="fill: var(--color19, #3e82f1)" d="M29.19 13.452h-13.19v5.419h7.535c-0.322 1.754-1.313 3.233-2.792 4.224l4.523 3.516c2.651-2.438 4.176-6.025 4.176-10.288 0-0.999-0.087-1.951-0.252-2.871z"></path>
<path fill="#32a753" style="fill: var(--color20, #32a753)" d="M20.743 23.094c-1.251 0.842-2.855 1.337-4.743 1.337-3.649 0-6.733-2.462-7.834-5.773l-4.68 3.634c2.304 4.57 7.039 7.708 12.513 7.708 3.783 0 6.953-1.25 9.265-3.39l-4.522-3.516z"></path>
<path fill="#f9bb00" style="fill: var(--color21, #f9bb00)" d="M8.166 13.342l-4.68-3.626c-0.944 1.888-1.487 4.027-1.487 6.284s0.543 4.397 1.487 6.284l4.68-3.626c-0.283-0.842-0.44-1.738-0.44-2.658s0.157-1.817 0.44-2.658z"></path>
<path fill="#e74133" style="fill: var(--color22, #e74133)" d="M16 2c-5.474 0-10.209 3.138-12.513 7.716l4.68 3.626c1.101-3.311 4.184-5.773 7.834-5.773 2.053 0 3.901 0.708 5.348 2.092l4.019-4.019c-2.422-2.257-5.592-3.642-9.367-3.642z"></path>
</symbol>
</defs>
</svg>
