<svg width="30" height="40" viewBox="0 0 30 40" fill="none" xmlns="http://www.w3.org/2000/svg">
<path d="M28.2522 2.8609H22.2102L22.6178 4.82528C22.668 5.06914 22.6655 5.31398 22.6393 5.55488H26.9586V37.306H3.03887V5.55488H7.35946C7.33321 5.31267 7.33194 5.06782 7.382 4.82264L7.78972 2.8609H1.74673C1.03257 2.8609 0.45459 3.46408 0.45459 4.20777V38.653C0.45459 39.3955 1.03257 39.9998 1.74673 39.9998H28.2522C28.9663 39.9998 29.5454 39.3953 29.5454 38.653V4.20785C29.5455 3.46408 28.9663 2.8609 28.2522 2.8609Z" fill="white"/>
<path d="M23.9128 12.5965H15.079C14.3636 12.5965 13.7857 13.1997 13.7857 13.9422C13.7857 14.6863 14.3637 15.2892 15.079 15.2892H23.9128C24.6283 15.2892 25.2061 14.6863 25.2061 13.9422C25.2062 13.1997 24.6283 12.5965 23.9128 12.5965Z" fill="white"/>
<path d="M23.9128 20.8572H15.079C14.3636 20.8572 13.7857 21.4603 13.7857 22.2041C13.7857 22.947 14.3637 23.5512 15.079 23.5512H23.9128C24.6283 23.5512 25.2061 22.9467 25.2061 22.2041C25.2062 21.4603 24.6283 20.8572 23.9128 20.8572Z" fill="white"/>
<path d="M5.24958 12.913C4.7041 13.3923 4.63388 14.242 5.09419 14.811L6.9806 17.1393C7.22709 17.4439 7.58856 17.6174 7.96877 17.6174C8.00024 17.6174 8.0314 17.616 8.0639 17.6135C8.47661 17.5823 8.85065 17.3452 9.06843 16.9778L12.462 11.2559C12.8373 10.6227 12.6498 9.79402 12.0419 9.40349C11.434 9.01007 10.6383 9.20789 10.2629 9.84105L7.80626 13.9814L7.07075 13.0745C6.61028 12.5054 5.79609 12.4323 5.24958 12.913Z" fill="white"/>
<path d="M8.34704 20.1852C7.27522 20.1852 6.40686 21.0894 6.40686 22.2044C6.40686 23.3197 7.27514 24.2238 8.34704 24.2238C9.418 24.2238 10.286 23.3197 10.286 22.2044C10.286 21.0892 9.418 20.1852 8.34704 20.1852Z" fill="white"/>
<path d="M23.9128 28.937H15.079C14.3636 28.937 13.7857 29.539 13.7857 30.2842C13.7857 31.0268 14.3637 31.6299 15.079 31.6299H23.9128C24.6283 31.6299 25.2061 31.0268 25.2061 30.2842C25.2062 29.5389 24.6283 28.937 23.9128 28.937Z" fill="white"/>
<path d="M8.34704 28.2649C7.27522 28.2649 6.40686 29.1689 6.40686 30.2843C6.40686 31.3993 7.27514 32.3038 8.34704 32.3038C9.418 32.3038 10.286 31.3996 10.286 30.2843C10.286 29.1689 9.418 28.2649 8.34704 28.2649Z" fill="white"/>
<path d="M9.51356 6.22732H20.4841C20.753 6.22732 21.007 6.10205 21.1757 5.88339C21.3447 5.66688 21.4099 5.3806 21.352 5.10677L20.444 0.729661C20.3553 0.303711 19.9939 6.10352e-05 19.5759 6.10352e-05H10.423C10.0054 6.10352e-05 9.64388 0.303793 9.55492 0.729661L8.64552 5.10677C8.59056 5.38052 8.65541 5.66688 8.82321 5.88339C8.99204 6.10213 9.24604 6.22732 9.51356 6.22732Z" fill="white"/>
</svg>
