<svg width="38" height="44" viewBox="0 0 38 44" fill="none" xmlns="http://www.w3.org/2000/svg">
<path d="M26.5491 26.125C24.0893 26.125 22.9866 27.5 19 27.5C14.9286 27.5 13.8259 26.125 11.3661 26.125C5.08929 26.125 0 31.3672 0 37.7266V39.875C0 42.1953 1.78125 44 4.07143 44H33.9286C36.1339 44 38 42.1953 38 39.875V37.7266C38 31.3672 32.8259 26.125 26.5491 26.125ZM33.9286 39.875H4.07143V37.7266C4.07143 33.6016 7.29464 30.25 11.3661 30.25C12.6384 30.25 14.5893 31.625 19 31.625C23.3259 31.625 25.2768 30.25 26.5491 30.25C30.6205 30.25 33.9286 33.6016 33.9286 37.7266V39.875ZM19 24.75C25.7009 24.75 31.2143 19.25 31.2143 12.375C31.2143 5.58594 25.7009 0 19 0C12.2143 0 6.78571 5.58594 6.78571 12.375C6.78571 19.25 12.2143 24.75 19 24.75ZM19 4.125C23.4107 4.125 27.1429 7.90625 27.1429 12.375C27.1429 16.9297 23.4107 20.625 19 20.625C14.5045 20.625 10.8571 16.9297 10.8571 12.375C10.8571 7.90625 14.5045 4.125 19 4.125Z" fill="white"/>
</svg>
