<svg width="26" height="44" viewBox="0 0 26 44" fill="none" xmlns="http://www.w3.org/2000/svg">
<path fill-rule="evenodd" clip-rule="evenodd" d="M12.7461 0C13.7517 0 14.5669 0.820811 14.5669 1.83333V42.1667C14.5669 43.1792 13.7517 44 12.7461 44C11.7404 44 10.9252 43.1792 10.9252 42.1667V1.83333C10.9252 0.820811 11.7404 0 12.7461 0Z" fill="white"/>
<path fill-rule="evenodd" clip-rule="evenodd" d="M2.39994 9.7497C3.9366 8.20253 6.02075 7.33333 8.19391 7.33333H21.8504C22.8561 7.33333 23.6713 8.15414 23.6713 9.16667C23.6713 10.1792 22.8561 11 21.8504 11H8.19391C6.9866 11 5.82874 11.4829 4.97504 12.3424C4.12134 13.202 3.64174 14.3678 3.64174 15.5833C3.64174 16.7989 4.12134 17.9647 4.97504 18.8242C5.82874 19.6838 6.9866 20.1667 8.19391 20.1667H17.2983C19.4714 20.1667 21.5556 21.0359 23.0922 22.583C24.6289 24.1302 25.4922 26.2286 25.4922 28.4167C25.4922 30.6047 24.6289 32.7031 23.0922 34.2503C21.5556 35.7975 19.4714 36.6667 17.2983 36.6667H1.82087C0.815231 36.6667 0 35.8459 0 34.8333C0 33.8208 0.815231 33 1.82087 33H17.2983C18.5056 33 19.6634 32.5171 20.5171 31.6576C21.3708 30.798 21.8504 29.6322 21.8504 28.4167C21.8504 27.2011 21.3708 26.0353 20.5171 25.1758C19.6634 24.3162 18.5056 23.8333 17.2983 23.8333H8.19391C6.02075 23.8333 3.9366 22.9641 2.39994 21.417C0.863285 19.8698 0 17.7714 0 15.5833C0 13.3953 0.863285 11.2969 2.39994 9.7497Z" fill="white"/>
</svg>
