<svg width="44" height="46" viewBox="0 0 44 46" fill="none" xmlns="http://www.w3.org/2000/svg">
<path d="M41.1839 23.5699C41.0068 23.2077 41.0068 22.7923 41.1839 22.4301L42.8249 19.073C43.7386 17.2038 43.0146 14.9759 41.1768 14.0008L37.876 12.2494C37.5199 12.0605 37.2757 11.7243 37.206 11.3274L36.5605 7.64683C36.201 5.59759 34.3054 4.22055 32.2458 4.51196L28.5459 5.03531C28.1466 5.09168 27.7517 4.9633 27.462 4.68306L24.7764 2.08502C23.281 0.638368 20.9384 0.638283 19.4431 2.08502L16.7574 4.68331C16.4677 4.96364 16.0728 5.09177 15.6735 5.03557L11.9737 4.51221C9.91337 4.22063 8.01847 5.59785 7.65899 7.64709L7.01344 11.3275C6.94374 11.7245 6.6996 12.0606 6.34356 12.2496L3.04274 14.001C1.2049 14.976 0.480974 17.2041 1.39465 19.0733L3.03561 22.4303C3.21264 22.7925 3.21264 23.208 3.03561 23.5701L1.39457 26.9271C0.480889 28.7963 1.20482 31.0242 3.04266 31.9993L6.34348 33.7507C6.6996 33.9396 6.94374 34.2758 7.01344 34.6727L7.65899 38.3533C7.98624 40.2188 9.58586 41.5271 11.4243 41.527C11.6054 41.527 11.7891 41.5142 11.9738 41.4881L15.6736 40.9648C16.0726 40.9081 16.4677 41.0368 16.7575 41.317L19.4431 43.915C20.1909 44.6385 21.1502 45.0001 22.1097 45C23.069 44.9999 24.0289 44.6383 24.7763 43.915L27.462 41.317C27.7518 41.0368 28.1468 40.9087 28.5459 40.9648L32.2458 41.4881C34.3064 41.7796 36.201 40.4025 36.5605 38.3532L37.2061 34.6728C37.2758 34.2758 37.52 33.9397 37.876 33.7507L41.1768 31.9993C43.0146 31.0243 43.7386 28.7962 42.8249 26.927L41.1839 23.5699ZM39.9874 29.7575L36.6865 31.5089C35.6342 32.0674 34.9124 33.0607 34.7066 34.2342L34.061 37.9147C33.9394 38.608 33.2984 39.0737 32.6012 38.9753L28.9014 38.452C27.7215 38.2848 26.5539 38.6646 25.6976 39.4929L23.0119 42.0909C22.5061 42.5802 21.7135 42.5802 21.2075 42.0909L18.5219 39.4928C17.7981 38.7927 16.852 38.4133 15.8642 38.4133C15.6832 38.4133 15.5008 38.426 15.3181 38.4519L11.6183 38.9752C10.9217 39.0737 10.2801 38.608 10.1585 37.9146L9.51282 34.234C9.30691 33.0605 8.58522 32.0672 7.53275 31.5088L4.23193 29.7574C3.61009 29.4275 3.36518 28.6738 3.67429 28.0414L5.31533 24.6843C5.83851 23.6138 5.83851 22.3861 5.31533 21.3157L3.67429 17.9586C3.36518 17.3262 3.61009 16.5725 4.23193 16.2425L7.53275 14.4912C8.58513 13.9327 9.30691 12.9394 9.51273 11.7659L10.1583 8.08537C10.28 7.39203 10.9209 6.92626 11.6181 7.02474L15.3179 7.54809C16.4974 7.71507 17.6654 7.33549 18.5217 6.50714L21.2074 3.90911C21.7132 3.41979 22.5058 3.41979 23.0118 3.90911L25.6974 6.50714C26.5538 7.33557 27.7216 7.71507 28.9012 7.54809L32.601 7.02474C33.2977 6.92617 33.9392 7.39203 34.0608 8.08537L34.7064 11.7659C34.9123 12.9395 35.634 13.9328 36.6865 14.4912L39.9873 16.2425C40.6091 16.5725 40.854 17.3262 40.5449 17.9586L38.9039 21.3156C38.3807 22.386 38.3807 23.6138 38.9039 24.6842L40.5449 28.0412C40.8541 28.6738 40.6092 29.4276 39.9874 29.7575Z" fill="white" stroke="white" stroke-width="0.2"/>
<path d="M31.3814 13.7287C30.886 13.2332 30.0824 13.2332 29.5869 13.7287L12.8389 30.4769C12.3433 30.9724 12.3433 31.7758 12.8389 32.2713C13.0866 32.5191 13.4114 32.643 13.736 32.643C14.0607 32.643 14.3855 32.5191 14.6332 32.2713L31.3813 15.5232C31.877 15.0276 31.877 14.2243 31.3814 13.7287Z" fill="white" stroke="white" stroke-width="0.2"/>
<path d="M17.0337 11.5803C14.4683 11.5803 12.3812 13.6675 12.3812 16.2328C12.3812 18.7982 14.4683 20.8854 17.0337 20.8854C19.5991 20.8854 21.6862 18.7982 21.6862 16.2328C21.6862 13.6675 19.5991 11.5803 17.0337 11.5803ZM17.0337 18.3476C15.8676 18.3476 14.919 17.3989 14.919 16.2328C14.919 15.0667 15.8676 14.118 17.0337 14.118C18.1998 14.118 19.1485 15.0667 19.1485 16.2328C19.1484 17.3989 18.1998 18.3476 17.0337 18.3476Z" fill="white" stroke="white" stroke-width="0.2"/>
<path d="M27.1862 25.1148C24.6208 25.1148 22.5337 27.2019 22.5337 29.7673C22.5337 32.3327 24.6208 34.4198 27.1862 34.4198C29.7516 34.4198 31.8387 32.3327 31.8387 29.7673C31.8387 27.2019 29.7516 25.1148 27.1862 25.1148ZM27.1862 31.882C26.0201 31.882 25.0714 30.9334 25.0714 29.7673C25.0714 28.6013 26.02 27.6526 27.1862 27.6526C28.3523 27.6526 29.3009 28.6013 29.3009 29.7673C29.3009 30.9334 28.3523 31.882 27.1862 31.882Z" fill="white" stroke="white" stroke-width="0.2"/>
</svg>
