<svg width="42" height="18" viewBox="0 0 42 18" fill="none" xmlns="http://www.w3.org/2000/svg">
<g clip-path="url(#clip0)">
<path d="M40.0268 7.12477L36.1977 4.99767C35.4573 4.58678 34.6244 4.37091 33.7772 4.37021H9.6359L7.00162 0.415667C6.86918 0.217175 6.646 0.0979406 6.40719 0.0986358H3.55947C3.16631 0.0986358 2.84754 0.417405 2.84754 0.810565V7.21793C2.84754 7.40704 2.92262 7.5878 3.05611 7.72129L4.47997 9.14515C4.61346 9.27898 4.79457 9.35372 4.98333 9.35372H8.89164L11.4762 12.9134H11.0959C11.0142 12.9137 10.9336 12.928 10.8567 12.9554L9.40995 13.4716L8.60346 11.2469C8.53846 11.0671 8.40358 10.9211 8.22977 10.8419C8.05526 10.7633 7.85677 10.7574 7.67809 10.8256L5.02087 11.8521C4.84358 11.9199 4.70106 12.0565 4.62597 12.2306C4.54949 12.4048 4.54602 12.6022 4.61589 12.7788L5.45192 14.8854L4.88217 15.0884L4.02806 12.945C3.88345 12.5821 3.4736 12.4031 3.10964 12.5442L0.455549 13.57C0.090546 13.7108 -0.0919555 14.1196 0.0460504 14.4853L0.829243 16.5502C0.499697 16.7021 0.339791 17.0796 0.459721 17.422C0.592165 17.7922 0.99923 17.9852 1.36945 17.8531L1.92217 17.6556C1.94893 17.6528 1.97605 17.648 2.00247 17.6414C2.02298 17.6337 2.03584 17.6174 2.05496 17.6087L4.68924 16.667C4.70627 16.6611 4.724 16.667 4.74069 16.6576C4.75702 16.6482 4.75981 16.6427 4.77058 16.6378L9.14228 15.0763C9.17148 15.0742 9.20068 15.07 9.22918 15.0634C9.25386 15.0505 9.27785 15.0359 9.30044 15.0193L11.2197 14.3372H17.0861C17.188 14.3365 17.2881 14.3132 17.3802 14.2698H17.3886L14.4998 16.634C14.2669 16.8245 14.179 17.1411 14.2798 17.4245C14.3809 17.7078 14.6493 17.8969 14.9503 17.8969H20.6458C20.7904 17.8969 20.9319 17.8527 21.0508 17.7703L26.0694 14.2962L36.3082 14.3233V15.2487C35.75 15.5709 35.4781 16.2279 35.6446 16.8502C35.8115 17.4728 36.3757 17.9056 37.0202 17.9056C37.6647 17.9056 38.2289 17.4728 38.3954 16.8502C38.5622 16.2279 38.29 15.5709 37.7321 15.2487V14.3275H38.1593C39.9096 14.3258 41.4381 13.1418 41.8771 11.4474C42.3165 9.75279 41.5553 7.97575 40.0261 7.12407L40.0268 7.12477ZM6.20417 12.9214L7.51262 12.4159L8.06952 13.9507L6.79374 14.4064L6.20417 12.9214ZM2.96712 14.1238L3.54104 15.5654L2.16411 16.0573L1.62808 14.6435L2.96712 14.1238ZM6.02828 1.5225L7.92699 4.37021H4.2714V1.5225H6.02828ZM20.423 16.473H16.9436L23.035 11.4895H27.6226L20.423 16.473ZM39.8679 12.198C39.4153 12.652 38.8 12.9061 38.1593 12.9043H38.152L28.121 12.8779L30.3086 11.363C30.5652 11.1853 30.6761 10.8617 30.5826 10.5641C30.4891 10.2666 30.2127 10.0646 29.9009 10.0657H22.7816C22.6172 10.066 22.4579 10.1227 22.3311 10.2266L19.1229 12.8508L13.1782 12.8345L9.83231 8.22326C9.69812 8.03867 9.48329 7.92951 9.25491 7.92986H5.27811L4.2714 6.9235V5.79407H33.7772C34.3821 5.79477 34.9769 5.94876 35.5059 6.24216L37.2628 7.21793H32.0367V8.64179H39.7205C40.2385 9.07771 40.5492 9.71108 40.5774 10.3875C40.6055 11.064 40.348 11.7207 39.8679 12.198Z" fill="#EBEBEB"/>
<path d="M12.1023 7.21777H13.5262V8.64164H12.1023V7.21777Z" fill="#EBEBEB"/>
<path d="M14.95 7.21777H16.3738V8.64164H14.95V7.21777Z" fill="#EBEBEB"/>
<path d="M17.7985 7.21777H19.2223V8.64164H17.7985V7.21777Z" fill="#EBEBEB"/>
<path d="M20.6462 7.21777H22.0701V8.64164H20.6462V7.21777Z" fill="#EBEBEB"/>
<path d="M23.4932 7.21777H24.917V8.64164H23.4932V7.21777Z" fill="#EBEBEB"/>
<path d="M26.3408 7.21777H27.7647V8.64164H26.3408V7.21777Z" fill="#EBEBEB"/>
<path d="M29.1881 7.21777H30.612V8.64164H29.1881V7.21777Z" fill="#EBEBEB"/>
</g>
<defs>
<clipPath id="clip0">
<rect width="42.0005" height="17.8069" fill="white" transform="translate(0 0.0986328)"/>
</clipPath>
</defs>
</svg>
