<svg width="38" height="26" viewBox="0 0 38 26" fill="none" xmlns="http://www.w3.org/2000/svg">
<g clip-path="url(#clip0)">
<path d="M35.3399 11.1713L34.3558 7.23507C34.6248 7.17793 34.8267 6.93924 34.8267 6.65327V6.01863C34.8267 4.64068 33.7056 3.51968 32.3278 3.51968H27.8455V2.21061C27.8455 1.53255 27.2939 0.980957 26.6159 0.980957H3.76823C3.09017 0.980957 2.53858 1.53255 2.53858 2.21061V12.9998C2.53858 13.3284 2.80495 13.5948 3.13359 13.5948C3.46216 13.5948 3.7286 13.3284 3.7286 12.9998V2.21061C3.7286 2.18872 3.74634 2.17098 3.76823 2.17098H26.6158C26.6377 2.17098 26.6554 2.18872 26.6554 2.21061V12.9999C26.6554 13.3285 26.9218 13.595 27.2505 13.595C27.579 13.595 27.8455 13.3286 27.8455 12.9999V12.3254H34.8643C34.8649 12.3254 34.8653 12.3256 34.8658 12.3256C34.8664 12.3256 34.8669 12.3255 34.8675 12.3255C35.7311 12.3261 36.4645 12.893 36.7164 13.6741H34.8663C34.5377 13.6741 34.2713 13.9405 34.2713 14.2692V15.5384C34.2713 16.5664 35.1075 17.4027 36.1356 17.4027H36.8099V20.0207H35.2541C34.7431 18.545 33.3402 17.482 31.693 17.482C30.0457 17.482 28.6428 18.545 28.1318 20.0207H27.8453V15.5384C27.8453 15.2098 27.5789 14.9434 27.2503 14.9434C26.9217 14.9434 26.6553 15.2097 26.6553 15.5384V20.0205H14.3106C13.7996 18.5448 12.3968 17.4819 10.7495 17.4819C9.10219 17.4819 7.6993 18.5448 7.18831 20.0205H3.76823C3.74634 20.0205 3.7286 20.0028 3.7286 19.9809V18.6719H6.30689C6.63545 18.6719 6.9019 18.4055 6.9019 18.0769C6.9019 17.7482 6.63553 17.4819 6.30689 17.4819H0.595012C0.266445 17.4819 0 17.7482 0 18.0769C0 18.4055 0.266371 18.6719 0.595012 18.6719H2.53865V19.9809C2.53865 20.6589 3.09025 21.2105 3.76831 21.2105H6.98228C6.98213 21.2238 6.98124 21.2369 6.98124 21.2502C6.98124 23.328 8.67172 25.0184 10.7495 25.0184C12.8272 25.0184 14.5177 23.328 14.5177 21.2502C14.5177 21.2368 14.5168 21.2238 14.5167 21.2105H27.9258C27.9256 21.2238 27.9247 21.2369 27.9247 21.2502C27.9247 23.328 29.6152 25.0184 31.693 25.0184C33.7707 25.0184 35.4612 23.328 35.4612 21.2502C35.4612 21.2368 35.4603 21.2238 35.4602 21.2105H37.4049C37.7335 21.2105 37.9999 20.9442 37.9999 20.6155V14.269C38 12.7021 36.8439 11.4002 35.3399 11.1713ZM27.8455 4.70963H32.3278C33.0495 4.70963 33.6368 5.29685 33.6368 6.01863V6.05826H27.8455V4.70963ZM27.8455 11.1355V7.24821H33.1325L34.1043 11.1355H27.8455ZM10.7495 23.8286C9.32781 23.8286 8.17119 22.6721 8.17119 21.2503C8.17119 19.8286 9.32781 18.672 10.7495 18.672C12.1711 18.672 13.3278 19.8286 13.3278 21.2503C13.3278 22.6721 12.1711 23.8286 10.7495 23.8286ZM31.6931 23.8286C30.2715 23.8286 29.1148 22.6721 29.1148 21.2503C29.1148 19.8286 30.2715 18.672 31.6931 18.672C33.1148 18.672 34.2714 19.8286 34.2714 21.2503C34.2714 22.6721 33.1148 23.8286 31.6931 23.8286ZM36.8101 16.2127H36.1357C35.7639 16.2127 35.4613 15.9102 35.4613 15.5384V14.864H36.81V16.2127H36.8101Z" fill="#EBEBEB"/>
<path d="M10.7491 20.0205C10.071 20.0205 9.51941 20.5721 9.51941 21.2502C9.51941 21.9282 10.071 22.4798 10.7491 22.4798C11.4271 22.4798 11.9787 21.9282 11.9787 21.2502C11.9787 20.5721 11.4271 20.0205 10.7491 20.0205Z" fill="#EBEBEB"/>
<path d="M31.6924 20.0205C31.0144 20.0205 30.4628 20.5721 30.4628 21.2502C30.4628 21.9282 31.0144 22.4798 31.6924 22.4798C32.3705 22.4798 32.9221 21.9282 32.9221 21.2502C32.9221 20.5721 32.3705 20.0205 31.6924 20.0205Z" fill="#EBEBEB"/>
<path d="M24.7126 17.4819H15.8274C15.4989 17.4819 15.2324 17.7483 15.2324 18.0769C15.2324 18.4056 15.4988 18.672 15.8274 18.672H24.7126C25.0412 18.672 25.3076 18.4056 25.3076 18.0769C25.3076 17.7483 25.0412 17.4819 24.7126 17.4819Z" fill="#EBEBEB"/>
<path d="M9.48091 14.9434H1.86503C1.53646 14.9434 1.27002 15.2097 1.27002 15.5384C1.27002 15.867 1.53639 16.1334 1.86503 16.1334H9.48091C9.80948 16.1334 10.0759 15.867 10.0759 15.5384C10.0759 15.2097 9.80948 14.9434 9.48091 14.9434Z" fill="#EBEBEB"/>
<path d="M20.6896 6.86709C20.4573 6.63479 20.0805 6.63479 19.8482 6.86716L14.5569 12.1583L11.8044 9.40574C11.572 9.17336 11.1953 9.17336 10.963 9.40574C10.7306 9.63812 10.7306 10.0148 10.963 10.2472L14.1363 13.4205C14.2524 13.5367 14.4047 13.5947 14.5569 13.5947C14.7092 13.5947 14.8615 13.5367 14.9776 13.4205L20.6895 7.70858C20.9219 7.47613 20.9219 7.09947 20.6896 6.86709Z" fill="#EBEBEB"/>
</g>
<defs>
<clipPath id="clip0">
<rect width="37.9999" height="24.0374" fill="white" transform="translate(0 0.980957)"/>
</clipPath>
</defs>
</svg>
