<svg width="44" height="35" viewBox="0 0 44 35" fill="none" xmlns="http://www.w3.org/2000/svg">
<path d="M28.275 27.3131C28.2397 27.3131 28.2043 27.3308 28.169 27.3308C15.105 29.6965 4.5655 26.8188 3.75341 20.9224C2.92367 15.0259 12.8629 8.33499 25.927 5.987C28.3456 5.54564 30.6936 5.29849 32.918 5.21022C32.9356 5.21022 32.9356 5.17491 32.918 5.17491C29.6696 4.99837 26.0682 5.21022 22.3079 5.89873C9.36742 8.22907 -0.4306 15.1318 0.416797 21.3108C1.28185 27.4897 12.4745 30.5968 25.415 28.2665C26.6331 28.0546 27.0921 27.7722 28.2573 27.4897C28.275 27.4014 28.275 27.3485 28.275 27.3131Z" fill="white"/>
<path d="M43.9163 3.65671C43.8633 3.70967 43.7927 3.74498 43.7221 3.78029C43.4926 3.90386 43.2454 3.97448 42.9983 4.0451C42.5922 4.15102 42.1685 4.25695 41.7625 4.36287C41.5153 4.41583 41.2682 4.4688 41.0034 4.52176C40.9681 4.53941 40.9151 4.53941 40.8798 4.55707C40.8092 4.57472 40.7209 4.59237 40.6326 4.61003C40.5091 4.62768 40.3855 4.66299 40.2619 4.68064C39.6793 5.45743 38.7083 6.72852 38.2317 7.38172C37.5079 8.3527 36.9606 8.03492 36.9606 8.03492L38.2493 5.05138C38.1081 5.06904 37.9845 5.10434 37.8433 5.122C37.4549 5.19261 37.0665 5.26323 36.6781 5.29854C36.5192 5.31619 36.3603 5.33385 36.2015 5.3515C35.8837 5.38681 35.5659 5.42212 35.2305 5.45743C34.948 5.49273 34.6479 5.52804 34.3654 5.40446C34.1359 5.31619 33.9947 5.10434 33.8711 4.91015C33.7122 4.66299 33.5533 4.43349 33.4121 4.18633C33.0943 3.67436 32.7589 3.16239 32.4235 2.65042C32.4235 2.63277 32.4058 2.61511 32.4058 2.61511C32.4058 2.61511 32.5824 2.5445 32.6 2.5445C32.6883 2.52684 32.7942 2.50919 32.9001 2.52684C33.3415 2.56215 33.571 2.86227 33.8358 3.14474C33.9947 3.32128 34.1359 3.49782 34.3301 3.63905C34.6126 3.83325 34.8774 3.78029 35.1952 3.74498C36.1838 3.6214 37.1548 3.44486 38.1434 3.26832C38.1787 3.26832 38.214 3.25066 38.2317 3.25066L36.1132 0.814397C36.1132 0.814397 36.8193 0.390698 37.5255 0.955629C38.2493 1.53821 38.214 1.52056 39.8912 2.95054C40.1383 2.89758 40.3855 2.86227 40.615 2.80931C41.0387 2.73869 41.4447 2.65042 41.8684 2.57981C42.0273 2.5445 42.1862 2.52684 42.3451 2.5445C42.8041 2.56215 43.2278 2.68573 43.5809 3.0035C43.7221 3.12708 43.8457 3.26832 43.9163 3.44486C43.9339 3.48017 43.9339 3.51547 43.9516 3.55078C43.9693 3.58609 43.9516 3.63905 43.9163 3.65671Z" fill="white"/>
<path d="M8.2728 28.7255L5.78357 34.9221H7.42541C8.37873 34.9221 9.22612 34.3395 9.5792 33.4391L9.66747 33.192L10.7267 30.385L11.1151 29.3434C10.1265 29.1668 9.17316 28.9726 8.2728 28.7255ZM19.642 25.5831L14.5753 12.978L10.4089 23.3586L9.47328 25.7066C10.303 26.0244 11.2034 26.3245 12.192 26.554L13.0217 24.4002L14.5753 20.3398L16.4466 25.23L17.2411 27.3132C18.1238 27.3661 19.0418 27.4014 19.9951 27.4014C20.1187 27.4014 20.2246 27.4014 20.3482 27.4014L19.642 25.5831ZM21.2486 29.5905C20.2246 29.6788 19.2183 29.7494 18.2121 29.7671L18.4416 30.3673L19.5361 33.1743L19.6067 33.3862C19.9422 34.3042 20.8249 34.9221 21.7958 34.9221H23.4024L21.2486 29.5905Z" fill="white"/>
</svg>
