<svg width="124" height="52" viewBox="0 0 124 52" fill="none" xmlns="http://www.w3.org/2000/svg">
<path d="M35.2614 33.156C35.2174 33.156 35.1735 33.178 35.1296 33.178C18.8771 36.121 5.76532 32.541 4.75503 25.2055C3.72278 17.8699 16.0878 9.54599 32.3403 6.62494C35.3492 6.07587 38.2703 5.76839 41.0376 5.65857C41.0595 5.65857 41.0595 5.61465 41.0376 5.61465C36.9964 5.39502 32.516 5.65857 27.8379 6.51512C11.7392 9.41421 -0.450148 18.0017 0.604067 25.6886C1.68024 33.3756 15.6047 37.2411 31.7034 34.342C33.2188 34.0784 33.7899 33.727 35.2394 33.3756C35.2614 33.2658 35.2614 33.1999 35.2614 33.156Z" fill="white"/>
<path d="M54.7201 3.72577C54.6542 3.79166 54.5664 3.83558 54.4785 3.87951C54.193 4.03325 53.8856 4.1211 53.5781 4.20895C53.0729 4.34073 52.5458 4.47251 52.0407 4.60428C51.7332 4.67017 51.4257 4.73606 51.0963 4.80195C51.0523 4.82391 50.9865 4.82391 50.9425 4.84587C50.8547 4.86784 50.7449 4.8898 50.6351 4.91176C50.4813 4.93372 50.3276 4.97765 50.1738 4.99961C49.4491 5.96598 48.2411 7.5473 47.6481 8.35992C46.7476 9.56787 46.0668 9.17254 46.0668 9.17254L47.6701 5.46083C47.4944 5.48279 47.3406 5.52672 47.1649 5.54868C46.6817 5.63653 46.1986 5.72438 45.7154 5.76831C45.5177 5.79027 45.3201 5.81224 45.1224 5.8342C44.7271 5.87812 44.3317 5.92205 43.9144 5.96598C43.563 6.0099 43.1897 6.05383 42.8383 5.90009C42.5527 5.79027 42.377 5.52672 42.2233 5.28513C42.0256 4.97765 41.828 4.69213 41.6523 4.38465C41.2569 3.74773 40.8396 3.11081 40.4223 2.47389C40.4223 2.45193 40.4004 2.42996 40.4004 2.42996C40.4004 2.42996 40.62 2.34211 40.642 2.34211C40.7518 2.32015 40.8836 2.29819 41.0153 2.32015C41.5644 2.36408 41.8499 2.73744 42.1794 3.08885C42.377 3.30848 42.5527 3.5281 42.7943 3.70381C43.1457 3.9454 43.4752 3.87951 43.8705 3.83558C45.1004 3.68184 46.3084 3.46222 47.5383 3.24259C47.5822 3.24259 47.6262 3.22063 47.6481 3.22063L45.0126 0.189759C45.0126 0.189759 45.8911 -0.337349 46.7696 0.365461C47.6701 1.09023 47.6261 1.06827 49.7126 2.84726C50.0201 2.78137 50.3276 2.73744 50.6131 2.67156C51.1402 2.5837 51.6453 2.47389 52.1724 2.38604C52.3701 2.34211 52.5678 2.32015 52.7654 2.34211C53.3365 2.36408 53.8636 2.51782 54.3028 2.91315C54.4785 3.06689 54.6323 3.24259 54.7201 3.46222C54.7421 3.50614 54.7421 3.55007 54.7641 3.59399C54.786 3.63792 54.7641 3.70381 54.7201 3.72577Z" fill="white"/>
<path d="M10.3775 34.9128L7.28076 42.6218H9.32331C10.5093 42.6218 11.5635 41.897 12.0028 40.7769L12.1126 40.4694L13.4303 36.9773L13.9135 35.6815C12.6836 35.4619 11.4976 35.2203 10.3775 34.9128ZM24.5216 31.0035L18.2182 15.322L13.035 28.2361L11.871 31.1572C12.9032 31.5525 14.0234 31.9259 15.2533 32.2114L16.2855 29.532L18.2182 24.4805L20.5463 30.5642L21.5346 33.1558C22.6328 33.2217 23.7748 33.2656 24.9608 33.2656C25.1146 33.2656 25.2463 33.2656 25.4001 33.2656L24.5216 31.0035ZM26.5202 35.989C25.2463 36.0988 23.9945 36.1867 22.7426 36.2086L23.0281 36.9554L24.3898 40.4475L24.4776 40.711C24.8949 41.8531 25.9931 42.6218 27.201 42.6218H29.1996L26.5202 35.989Z" fill="white"/>
<path d="M47.5829 34.7372C47.5829 35.8134 47.3853 36.8456 46.99 37.79C46.5946 38.7344 46.0456 39.569 45.3427 40.2718C44.6399 40.9746 43.8273 41.5456 42.9049 41.941C41.9824 42.3363 40.9721 42.5559 39.896 42.5559C38.8198 42.5559 37.8315 42.3583 36.8871 41.941C35.9646 41.5456 35.13 40.9746 34.4492 40.2718C33.7464 39.569 33.1973 38.7344 32.802 37.79C32.4067 36.8456 32.209 35.8353 32.209 34.7372C32.209 33.661 32.4067 32.6287 32.802 31.6843C33.1973 30.7399 33.7464 29.9054 34.4492 29.2025C35.152 28.4997 35.9646 27.9287 36.8871 27.5334C37.8095 27.138 38.8198 26.9184 39.896 26.9184C40.7964 26.9184 41.631 27.0722 42.4217 27.3577C43.2123 27.6432 43.9371 28.0385 44.596 28.5656V18.88C44.596 17.5623 45.6502 16.4861 46.968 16.4861H47.6049V34.7372H47.5829ZM39.896 39.5031C40.5329 39.5031 41.1479 39.3713 41.7189 39.1297C42.2899 38.8881 42.7951 38.5367 43.2124 38.0975C43.6296 37.6582 43.981 37.1531 44.2226 36.582C44.4642 36.011 44.596 35.3741 44.596 34.7372V34.7152C44.596 34.0563 44.4642 33.4414 44.2226 32.8703C43.981 32.2993 43.6516 31.7942 43.2124 31.3549C42.7951 30.9156 42.2899 30.5862 41.7189 30.3226C41.1479 30.0811 40.5329 29.9493 39.896 29.9493C39.259 29.9493 38.6441 30.0811 38.0731 30.3226C37.502 30.5642 36.9969 30.9156 36.5796 31.3549C36.1623 31.7942 35.8109 32.2993 35.5693 32.8703C35.3277 33.4633 35.1959 34.0783 35.1959 34.7152C35.1959 35.3741 35.3277 35.9891 35.5693 36.5601C35.8109 37.1531 36.1623 37.6582 36.5796 38.0755C36.9969 38.5148 37.502 38.8442 38.0731 39.1078C38.6661 39.3933 39.259 39.5031 39.896 39.5031Z" fill="white"/>
<path d="M57.1806 26.9185C58.2568 26.9185 59.2451 27.1161 60.1895 27.5334C61.1339 27.9507 61.9465 28.5217 62.6713 29.2246C63.3741 29.9274 63.9452 30.7839 64.3405 31.7503C64.7578 32.7166 64.9555 33.7489 64.9555 34.8251V42.4901H63.3741C62.5835 42.4901 61.9685 41.8532 61.9685 41.0625C61.3096 41.5676 60.5849 41.963 59.7942 42.2705C59.0035 42.556 58.147 42.7097 57.2245 42.7097C56.1484 42.7097 55.16 42.512 54.2156 42.0948C53.2712 41.6775 52.4586 41.1284 51.7558 40.4036C51.053 39.7008 50.5039 38.8662 50.0866 37.8999C49.6693 36.9335 49.4717 35.9232 49.4717 34.8251C49.4717 33.7489 49.6693 32.7166 50.0866 31.7503C50.5039 30.7839 51.053 29.9493 51.7338 29.2246C52.4367 28.5217 53.2493 27.9507 54.1937 27.5334C55.1161 27.1381 56.1044 26.9185 57.1806 26.9185ZM57.2026 39.6569C57.8615 39.6569 58.4764 39.5251 59.0475 39.2615C59.6185 38.998 60.1236 38.6466 60.5409 38.2293C60.9582 37.79 61.3096 37.2849 61.5512 36.6919C61.7928 36.0989 61.9246 35.4839 61.9246 34.8251C61.9246 34.1442 61.7928 33.5293 61.5512 32.9363C61.2877 32.3433 60.9582 31.8381 60.5409 31.3989C60.1236 30.9596 59.6185 30.6082 59.0475 30.3666C58.4764 30.1031 57.8615 29.9713 57.2026 29.9713C56.5437 29.9713 55.9287 30.1031 55.3577 30.3666C54.7867 30.6302 54.2815 30.9816 53.8642 31.3989C53.4469 31.8381 53.0955 32.3433 52.8539 32.9363C52.5904 33.5293 52.4806 34.1442 52.4806 34.8251C52.4806 35.4839 52.6124 36.0989 52.8539 36.6919C53.0955 37.2849 53.4469 37.79 53.8642 38.2293C54.2815 38.6686 54.7867 39.02 55.3577 39.2615C55.9068 39.5251 56.5437 39.6569 57.2026 39.6569Z" fill="white"/>
<path d="M79.0336 26.9404L73.9601 38.7564L72.3349 42.556L70.7096 38.7564L65.6362 26.9404H67.4372C68.3157 26.9404 69.1064 27.4675 69.4578 28.2802L72.3569 35.0008L75.1461 28.5437C75.5634 27.5774 76.5078 26.9404 77.5401 26.9404H79.0336Z" fill="white"/>
<path d="M83.2066 22.2402H84.195V25.2931H81.186V24.2828C81.186 23.1627 82.0865 22.2402 83.2066 22.2402ZM84.195 42.5339H81.186V29.1805C81.186 27.9286 82.1963 26.8963 83.4263 26.8963H84.173V42.5339H84.195Z" fill="white"/>
<path d="M99.3716 43.1268C99.723 43.1488 100.096 43.2366 100.492 43.4123C100.887 43.588 101.26 43.8516 101.612 44.203C101.963 44.5544 102.249 45.0156 102.468 45.5647C102.688 46.1138 102.798 46.7946 102.798 47.5853C102.798 48.3979 102.688 49.0787 102.446 49.6498C102.205 50.2208 101.919 50.6601 101.568 51.0115C101.216 51.3629 100.843 51.6045 100.426 51.7582C100.008 51.9119 99.6351 51.9998 99.2837 51.9998H92.036C91.3332 51.9778 90.6523 51.89 89.9715 51.7143C89.2906 51.5386 88.6757 51.2531 88.1266 50.8797C87.5775 50.5063 87.1383 50.0451 86.8088 49.496C86.4794 48.947 86.3037 48.2881 86.3037 47.5413H88.3243C89.093 47.5413 88.9393 47.7829 89.5762 48.2222L89.7299 48.332C90.0154 48.5297 90.3229 48.6614 90.6743 48.7493C91.0257 48.8371 91.4869 48.925 92.058 48.9689H99.2398C99.6132 48.925 99.7889 48.4857 99.7889 47.6292C99.7889 47.3217 99.7669 47.0801 99.723 46.9044C99.6791 46.7068 99.6132 46.575 99.5473 46.4652C99.4814 46.3553 99.4155 46.2895 99.3496 46.2675C99.2837 46.2455 99.2618 46.2236 99.2398 46.2236H92.036C91.3332 46.2236 90.6523 46.1357 89.9715 45.96C89.2906 45.7843 88.6757 45.5208 88.1266 45.1474C87.5775 44.774 87.1383 44.3128 86.8088 43.7637C86.4794 43.2147 86.3037 42.5558 86.3037 41.7871C86.3037 40.9525 86.5014 40.2497 86.9406 39.6567C87.3579 39.0637 87.885 38.5805 88.5219 38.2291C88.0388 37.6361 87.6654 36.9772 87.3799 36.2305C87.1163 35.4838 86.9626 34.7151 86.9626 33.8805C86.9626 32.9361 87.1383 32.0356 87.4897 31.223C87.8411 30.3884 88.3243 29.6636 88.9392 29.0487C89.5542 28.4337 90.257 27.9286 91.0696 27.5772C91.8823 27.2257 92.7388 27.05 93.6832 27.05H93.793H101.348V28.0164C101.348 29.1585 100.426 30.0809 99.3057 30.0809C99.6571 30.63 99.9207 31.223 100.118 31.8819C100.316 32.5188 100.404 33.1996 100.404 33.8805C100.404 34.781 100.228 35.6375 99.8987 36.4501C99.5692 37.2628 99.13 37.9656 98.5589 38.5586C97.9879 39.1516 97.329 39.6567 96.5384 40.0301C95.7697 40.4034 94.9351 40.6231 94.0566 40.6889H93.6393H90.4766C90.1692 40.7988 89.8836 40.9305 89.642 41.1062C89.4005 41.2819 89.2687 41.5016 89.2687 41.7871C89.2687 42.1165 89.4005 42.3801 89.686 42.5558C89.9715 42.7315 90.279 42.8633 90.6084 42.9731C90.9379 43.0609 91.3991 43.1488 91.9701 43.1707H99.3716V43.1268ZM93.7052 30.037C93.2 30.037 92.7168 30.1468 92.2556 30.3225C91.7944 30.5202 91.3991 30.7837 91.0696 31.1351C90.7402 31.4865 90.4766 31.8819 90.279 32.3431C90.0813 32.8043 89.9934 33.2875 89.9934 33.8146C89.9934 34.3197 90.0813 34.8249 90.279 35.2861C90.4766 35.7473 90.7402 36.1426 91.0696 36.4941C91.3991 36.8235 91.7944 37.087 92.2556 37.2847C92.7168 37.4824 93.2 37.5702 93.7052 37.5702C94.2323 37.5702 94.7154 37.4824 95.1547 37.2847C95.594 37.087 95.9893 36.8235 96.3407 36.4941C96.6701 36.1646 96.9557 35.7693 97.1314 35.2861C97.329 34.8249 97.4169 34.3417 97.4169 33.8146C97.4169 33.3094 97.329 32.8043 97.1314 32.3431C96.9337 31.8819 96.6701 31.4646 96.3407 31.1351C95.9893 30.7837 95.6159 30.5202 95.1547 30.3225C94.7154 30.1248 94.2103 30.037 93.7052 30.037Z" fill="white"/>
<path d="M109.869 26.8965C110.945 26.8965 111.933 27.0942 112.878 27.5114C113.8 27.9068 114.635 28.4778 115.315 29.1806C116.018 29.8834 116.567 30.718 116.963 31.6624C117.358 32.6068 117.556 33.6171 117.556 34.7152C117.556 35.7914 117.358 36.8237 116.963 37.7681C116.567 38.7125 116.018 39.5471 115.315 40.2499C114.613 40.9527 113.8 41.5237 112.878 41.919C111.955 42.3144 110.945 42.534 109.869 42.534C108.792 42.534 107.804 42.3363 106.86 41.919C105.937 41.5237 105.103 40.9527 104.422 40.2499C103.719 39.5471 103.17 38.7125 102.775 37.7681C102.379 36.8237 102.182 35.8134 102.182 34.7152C102.182 33.6391 102.379 32.6068 102.775 31.6624C103.17 30.718 103.719 29.8834 104.422 29.1806C105.125 28.4778 105.937 27.9068 106.86 27.5114C107.804 27.0942 108.792 26.8965 109.869 26.8965ZM109.891 39.4812C110.528 39.4812 111.142 39.3494 111.714 39.1078C112.285 38.8662 112.79 38.5148 113.207 38.0755C113.624 37.6363 113.976 37.1312 114.217 36.5601C114.459 35.9671 114.591 35.3522 114.591 34.7152C114.591 34.0564 114.459 33.4414 114.217 32.8704C113.976 32.2993 113.646 31.7722 113.207 31.3549C112.79 30.9157 112.285 30.5862 111.714 30.3227C111.142 30.0811 110.528 29.9493 109.891 29.9493C109.254 29.9493 108.639 30.0811 108.068 30.3227C107.497 30.5643 106.991 30.9157 106.574 31.3549C106.157 31.7942 105.806 32.2993 105.564 32.8704C105.322 33.4634 105.191 34.0783 105.191 34.7152C105.191 35.3741 105.322 35.9891 105.564 36.5601C105.806 37.1531 106.157 37.6583 106.574 38.0755C106.991 38.5148 107.497 38.8442 108.068 39.1078C108.639 39.3494 109.254 39.4812 109.891 39.4812Z" fill="white"/>
<path d="M123.069 21.3618H122.849C122.849 22.3062 122.454 23.1847 121.839 23.7996C121.224 24.4146 120.345 24.8099 119.401 24.8099C118.457 24.8099 117.578 24.4146 116.963 23.7996C116.348 23.1847 115.953 22.3062 115.953 21.3618C115.953 20.4174 116.348 19.5389 116.963 18.9239C117.578 18.3089 118.457 17.9136 119.401 17.9136C120.345 17.9136 121.224 18.3089 121.839 18.9239C122.454 19.5389 122.849 20.4174 122.849 21.3618H123.069H123.289C123.289 19.2094 121.531 17.4524 119.379 17.4524C117.227 17.4524 115.47 19.2094 115.47 21.3618C115.47 23.5141 117.227 25.2711 119.379 25.2711C121.531 25.2711 123.289 23.5141 123.289 21.3618H123.069Z" fill="white"/>
<path d="M118.149 23.0089V19.4729H119.643C120.016 19.4729 120.302 19.4949 120.456 19.5608C120.631 19.6266 120.763 19.7365 120.873 19.8902C120.983 20.0439 121.027 20.2416 121.027 20.4393C121.027 20.7028 120.939 20.9224 120.785 21.0981C120.631 21.2738 120.39 21.3837 120.082 21.4276C120.236 21.5154 120.368 21.6253 120.456 21.7131C120.565 21.8229 120.697 22.0206 120.851 22.2841L121.29 22.965H120.434L119.928 22.1963C119.753 21.9108 119.621 21.757 119.555 21.6692C119.489 21.5813 119.423 21.5594 119.335 21.5154C119.27 21.4935 119.138 21.4715 118.984 21.4715H118.83V22.943H118.149V23.0089ZM118.874 20.9664H119.401C119.753 20.9664 119.95 20.9444 120.038 20.9224C120.126 20.9005 120.192 20.8346 120.236 20.7687C120.28 20.7028 120.302 20.615 120.302 20.5052C120.302 20.3953 120.28 20.2855 120.214 20.2196C120.148 20.1537 120.06 20.1098 119.95 20.0879C119.884 20.0879 119.709 20.0659 119.423 20.0659H118.874V20.9664Z" fill="white"/>
</svg>
