<svg width="16" height="16" viewBox="0 0 16 16" fill="none" xmlns="http://www.w3.org/2000/svg">
<path d="M14.8002 11.7556L9.33456 2.26373C9.19798 2.03118 9.00299 1.83837 8.76894 1.70439C8.53488 1.57042 8.26987 1.49994 8.00018 1.49994C7.73049 1.49994 7.46549 1.57042 7.23143 1.70439C6.99737 1.83837 6.80239 2.03118 6.66581 2.26373L1.20018 11.7556C1.06877 11.9805 0.999512 12.2364 0.999512 12.4969C0.999512 12.7574 1.06877 13.0132 1.20018 13.2381C1.33501 13.4721 1.52966 13.6659 1.76416 13.7998C1.99865 13.9337 2.26455 14.0028 2.53456 14H13.4658C13.7356 14.0026 14.0012 13.9334 14.2355 13.7995C14.4698 13.6656 14.6642 13.4719 14.7989 13.2381C14.9305 13.0133 15 12.7575 15.0002 12.497C15.0004 12.2365 14.9314 11.9806 14.8002 11.7556ZM7.50018 6.49998C7.50018 6.36737 7.55286 6.24019 7.64663 6.14643C7.7404 6.05266 7.86757 5.99998 8.00018 5.99998C8.13279 5.99998 8.25997 6.05266 8.35374 6.14643C8.4475 6.24019 8.50018 6.36737 8.50018 6.49998V8.99998C8.50018 9.13259 8.4475 9.25977 8.35374 9.35353C8.25997 9.4473 8.13279 9.49998 8.00018 9.49998C7.86757 9.49998 7.7404 9.4473 7.64663 9.35353C7.55286 9.25977 7.50018 9.13259 7.50018 8.99998V6.49998ZM8.00018 12C7.85185 12 7.70684 11.956 7.5835 11.8736C7.46017 11.7912 7.36404 11.674 7.30727 11.537C7.25051 11.3999 7.23565 11.2491 7.26459 11.1037C7.29353 10.9582 7.36496 10.8245 7.46985 10.7197C7.57474 10.6148 7.70838 10.5433 7.85386 10.5144C7.99935 10.4855 8.15015 10.5003 8.28719 10.5571C8.42424 10.6138 8.54137 10.71 8.62378 10.8333C8.7062 10.9566 8.75018 11.1016 8.75018 11.25C8.75018 11.4489 8.67116 11.6397 8.53051 11.7803C8.38986 11.921 8.19909 12 8.00018 12Z" fill="#FF5B00"/>
</svg>
