<?xml version="1.0" encoding="utf-8"?><svg xmlns="http://www.w3.org/2000/svg" xmlns:xlink="http://www.w3.org/1999/xlink"><symbol viewBox="0 0 21 32" id="face" xmlns="http://www.w3.org/2000/svg"><path d="M5.898 32V17.474H0v-5.898h5.788V7.972c0-5.352 3.386-7.973 8.191-7.973 2.293 0 4.259.218 4.915.218v5.679h-3.386c-2.621 0-3.167 1.201-3.167 3.058v2.621h7.645l-2.949 5.788h-4.696v14.526H5.897v.109z"/></symbol><symbol viewBox="0 0 37 32" id="prev" xmlns="http://www.w3.org/2000/svg"><path d="M15.314 31.314l3.2-3.2-9.829-9.829h27.886v-4.571H8.685l9.829-9.829-3.2-3.2L0 15.999l15.314 15.314z"/></symbol><symbol viewBox="0 0 32 32" id="superscript21" xmlns="http://www.w3.org/2000/svg"><path d="M6.063 26l1.8-6h8.274l1.8 6h3.551l-6-20H8.512l-6 20h3.551zm4.8-16h2.274l1.8 6H9.063l1.8-6zM22 26l5-8 5 8H22zm5-22h-2c-.551 0-1-.449-1-1s.449-1 1-1h4a1 1 0 000-2h-4c-1.654 0-3 1.346-3 3 0 .768.29 1.469.766 2 .55.613 1.347 1 2.234 1h2c.551 0 1 .449 1 1s-.449 1-1 1h-4a1 1 0 000 2h4c1.654 0 3-1.346 3-3 0-.768-.29-1.469-.766-2-.55-.613-1.347-1-2.234-1z"/></symbol><symbol viewBox="0 0 37 32" id="test" xmlns="http://www.w3.org/2000/svg"><path d="M15.314 31.314l3.2-3.2-9.829-9.829h27.886v-4.571H8.685l9.829-9.829-3.2-3.2L0 15.999l15.314 15.314z"/></symbol><symbol viewBox="0 0 39 32" id="twiter" xmlns="http://www.w3.org/2000/svg"><path d="M39.385 3.815c-1.472.615-2.945 1.108-4.662 1.231 1.718-.985 2.945-2.585 3.558-4.431-1.595.985-3.313 1.6-5.153 1.969a7.954 7.954 0 00-5.889-2.585 8.103 8.103 0 00-8.098 8.123c0 .615.123 1.231.245 1.846-6.748-.369-12.637-3.569-16.564-8.492-.736 1.231-1.104 2.585-1.104 4.062 0 2.831 1.472 5.292 3.558 6.769-1.35 0-2.577-.369-3.681-.985v.123c0 3.938 2.822 7.138 6.503 7.877-.736.123-1.35.246-2.086.246-.491 0-.982 0-1.472-.123.982 3.2 4.049 5.538 7.484 5.662-2.699 2.215-6.257 3.446-10.061 3.446-.613 0-1.35 0-1.963-.123 3.558 2.338 7.852 3.569 12.392 3.569 14.846 0 22.944-12.308 22.944-23.015v-.985c1.595-1.231 2.945-2.585 4.049-4.185z"/></symbol></svg>