<svg width="80" height="80" viewBox="0 0 80 80" fill="none" xmlns="http://www.w3.org/2000/svg">
<g id="ChartDonut">
<path id="Vector" opacity="0.2" d="M70 39.9999C70 47.9564 66.8393 55.587 61.2132 61.2131C55.5871 66.8392 47.9565 69.9999 40 69.9999V52.4999C43.3152 52.4999 46.4946 51.1829 48.8388 48.8387C51.183 46.4945 52.5 43.3151 52.5 39.9999C52.5 36.6847 51.183 33.5052 48.8388 31.161C46.4946 28.8168 43.3152 27.4999 40 27.4999V9.99988C47.9565 9.99988 55.5871 13.1606 61.2132 18.7867C66.8393 24.4128 70 32.0434 70 39.9999Z" fill="#FF4996"/>
<path id="Vector_2" d="M39.9993 7.49988C39.3363 7.49988 38.7004 7.76327 38.2316 8.23211C37.7627 8.70095 37.4993 9.33684 37.4993 9.99988V27.4999C37.4993 28.1629 37.7627 28.7988 38.2316 29.2676C38.7004 29.7365 39.3363 29.9999 39.9993 29.9999C42.2006 30.0004 44.3402 30.7272 46.0863 32.0675C47.8324 33.4079 49.0874 35.287 49.6568 37.4133C50.2262 39.5396 50.078 41.7944 49.2354 43.828C48.3927 45.8616 46.9026 47.5603 44.9961 48.6607C43.0897 49.7611 40.8734 50.2017 38.691 49.9142C36.5086 49.6267 34.4821 48.6272 32.9256 47.0705C31.3692 45.5139 30.3699 43.4873 30.0826 41.3049C29.7954 39.1224 30.2362 36.9062 31.3368 34.9999C31.5011 34.7155 31.6076 34.4016 31.6505 34.076C31.6934 33.7504 31.6716 33.4196 31.5866 33.1024C31.5016 32.7852 31.3549 32.4879 31.1549 32.2274C30.955 31.9669 30.7057 31.7484 30.4212 31.5843L15.265 22.8343C14.9806 22.67 14.6666 22.5635 14.3411 22.5206C14.0155 22.4777 13.6847 22.4994 13.3675 22.5845C13.0503 22.6695 12.7529 22.8162 12.4925 23.0161C12.232 23.2161 12.0134 23.4654 11.8493 23.7499C8.27224 29.9456 6.83944 37.1485 7.77314 44.2415C8.70683 51.3345 11.9548 57.9212 17.0135 62.9801C22.0721 68.039 28.6586 71.2875 35.7515 72.2216C42.8444 73.1558 50.0474 71.7234 56.2434 68.1467C62.4393 64.5701 67.2819 59.0489 70.0203 52.4395C72.7586 45.8301 73.2395 38.5019 71.3886 31.5913C69.5376 24.6807 65.4581 18.5739 59.7828 14.2181C54.1075 9.86229 47.1535 7.5008 39.9993 7.49988ZM15.0275 28.4686L25.9368 34.7686C25.316 36.4428 24.9986 38.2143 24.9993 39.9999C24.9993 40.478 25.0243 40.9374 25.0681 41.4124L12.8993 44.6874C11.9504 39.1904 12.6925 33.5347 15.0275 28.4686ZM14.1931 49.503L26.3806 46.2405C27.3995 48.4616 28.9447 50.4008 30.8821 51.8901C32.8195 53.3794 35.0909 54.3739 37.4993 54.7874V67.3843C32.3238 66.9045 27.3894 64.9711 23.2656 61.8072C19.1417 58.6433 15.9966 54.3778 14.1931 49.503ZM42.4993 67.3843V54.7874C45.9931 54.1952 49.1645 52.3852 51.4513 49.6782C53.7381 46.9712 54.9926 43.542 54.9926 39.9983C54.9926 36.4547 53.7381 33.0255 51.4513 30.3185C49.1645 27.6114 45.9931 25.8014 42.4993 25.2093V12.6124C49.3312 13.2366 55.683 16.3917 60.3081 21.4586C64.9331 26.5254 67.4973 33.138 67.4973 39.9983C67.4973 46.8586 64.9331 53.4712 60.3081 58.538C55.683 63.6049 49.3312 66.7601 42.4993 67.3843Z" fill="#FF4996"/>
</g>
</svg>
