<svg width="48" height="48" viewBox="0 0 48 48" fill="none" xmlns="http://www.w3.org/2000/svg">
<path d="M24.0938 0C10.9031 0 0 10.7156 0 23.9062C0 37.0969 10.9031 48 24.0938 48C37.2844 48 48 37.0969 48 23.9062C48 10.7156 37.2844 0 24.0938 0Z" fill="#02CA76"/>
<path d="M48.0001 23.9062C48.0001 37.0969 37.2845 48 24.0938 48V0C37.2845 0 48.0001 10.7156 48.0001 23.9062Z" fill="#00A45F"/>
<path d="M19.0814 34.8769L9.11474 24.7077C8.51596 24.0967 8.51596 23.1061 9.11474 22.4951L11.2831 20.2826C11.8819 19.6716 12.8528 19.6716 13.4516 20.2826L20.1656 27.133L34.5464 12.4601C35.1451 11.8491 36.116 11.8491 36.7148 12.4601L38.8832 14.6726C39.482 15.2836 39.482 16.2741 38.8832 16.8852L21.2499 34.877C20.651 35.4879 19.6802 35.4879 19.0814 34.8769V34.8769Z" fill="#E1E4FB"/>
<g style="mix-blend-mode:color-burn">
<path d="M47.9058 23.9062C47.9058 37.0969 37.1902 48 23.9996 48V0C37.1902 0 47.9058 10.7156 47.9058 23.9062Z" fill="#0069A4" fill-opacity="0.1"/>
</g>
</svg>
