<svg width="48" height="48" viewBox="0 0 48 48" fill="none" xmlns="http://www.w3.org/2000/svg">
<rect width="48" height="48" fill="#F5F5F5"/>
<path d="M24.0938 0C10.9031 0 0 10.7156 0 23.9062C0 37.0969 10.9031 48 24.0938 48C37.2844 48 48 37.0969 48 23.9062C48 10.7156 37.2844 0 24.0938 0Z" fill="#CA0206"/>
<path d="M48.0001 23.9062C48.0001 37.0969 37.2845 48 24.0938 48V0C37.2845 0 48.0001 10.7156 48.0001 23.9062Z" fill="#A40000"/>
<g style="mix-blend-mode:color-burn">
<path d="M47.9058 23.9062C47.9058 37.0969 37.1902 48 23.9996 48V0C37.1902 0 47.9058 10.7156 47.9058 23.9062Z" fill="#0069A4" fill-opacity="0.1"/>
</g>
<path d="M36.3554 33.2433L36.3555 33.2433C36.5598 33.4477 36.7219 33.6903 36.8325 33.9573C36.9431 34.2242 37 34.5104 37 34.7994C37 35.0884 36.9431 35.3745 36.8325 35.6415L36.3554 33.2433ZM36.3554 33.2433L27.1107 24L36.3554 14.7567L36.3555 14.7567C36.7682 14.344 37 13.7842 37 13.2006C37 12.617 36.7682 12.0572 36.3555 11.6445C35.9428 11.2318 35.383 11 34.7994 11C34.2158 11 33.656 11.2318 33.2433 11.6445L33.2433 11.6446L24 20.8893L14.7567 11.6446L14.7567 11.6445C14.344 11.2318 13.7842 11 13.2006 11C12.617 11 12.0572 11.2318 11.6445 11.6445C11.2318 12.0572 11 12.617 11 13.2006C11 13.7842 11.2318 14.344 11.6445 14.7567L11.6446 14.7567L20.8893 24L11.6446 33.2433L11.6445 33.2433C11.2318 33.656 11 34.2158 11 34.7994C11 35.383 11.2318 35.9428 11.6445 36.3555C12.0572 36.7682 12.617 37 13.2006 37C13.7842 37 14.344 36.7682 14.7567 36.3555L14.7567 36.3554L24 27.1107M36.3554 33.2433L24 27.1107M24 27.1107L33.2433 36.3554L33.2433 36.3555C33.4477 36.5598 33.6903 36.7219 33.9573 36.8325C34.2242 36.9431 34.5104 37 34.7994 37C35.0884 37 35.3745 36.9431 35.6415 36.8325L24 27.1107ZM36.3555 36.3555C36.1511 36.5598 35.9085 36.7219 35.6415 36.8325L36.3555 36.3555ZM36.3555 36.3555C36.5598 36.1511 36.7219 35.9085 36.8325 35.6415L36.3555 36.3555Z" fill="#E1E4FB" stroke="#E1E4FB" stroke-width="2" stroke-linejoin="round"/>
</svg>
