<svg width="80" height="80" viewBox="0 0 80 80" fill="none" xmlns="http://www.w3.org/2000/svg">
<g id="HeadCircuit">
<path id="Vector" opacity="0.2" d="M67.4783 31.4748C67.2049 24.9424 64.3833 18.777 59.6184 14.3002C54.8534 9.82337 48.5243 7.39134 41.9875 7.5254C35.4508 7.65947 29.2267 10.3489 24.6493 15.0174C20.0719 19.6858 17.5055 25.9616 17.5002 32.4998L10.2033 46.5216C9.95169 47.1076 9.93353 47.7676 10.1525 48.3665C10.3715 48.9655 10.8112 49.458 11.3814 49.7435L20.0002 53.6904V64.9998C20.0002 65.6628 20.2636 66.2987 20.7324 66.7675C21.2012 67.2364 21.8371 67.4998 22.5002 67.4998H37.5002C37.5002 68.8258 38.0269 70.0976 38.9646 71.0353C39.9023 71.973 41.1741 72.4998 42.5002 72.4998H60.0002L57.5002 52.4998C60.7463 50.0696 63.3514 46.885 65.0901 43.2216C66.8287 39.5581 67.6484 35.5262 67.4783 31.4748ZM35.0408 23.1498C34.9054 22.1142 35.0976 21.0623 35.5905 20.1415C36.0834 19.2208 36.8522 18.4775 37.789 18.016C38.7259 17.5545 39.7837 17.398 40.8141 17.5683C41.8445 17.7386 42.7956 18.2273 43.5341 18.9658C44.2726 19.7043 44.7613 20.6555 44.9316 21.6858C45.1019 22.7162 44.9454 23.774 44.4839 24.7109C44.0224 25.6477 43.2791 26.4166 42.3584 26.9094C41.4376 27.4023 40.3857 27.5946 39.3502 27.4591C38.2573 27.3162 37.2424 26.8162 36.463 26.0369C35.6837 25.2576 35.1837 24.2426 35.0408 23.1498ZM45.6658 47.4591C44.6303 47.5946 43.5783 47.4023 42.6576 46.9094C41.7369 46.4166 40.9936 45.6477 40.5321 44.7109C40.0706 43.774 39.914 42.7162 40.0843 41.6858C40.2547 40.6555 40.7434 39.7043 41.4818 38.9658C42.2203 38.2273 43.1715 37.7386 44.2019 37.5683C45.2322 37.398 46.2901 37.5545 47.2269 38.016C48.1638 38.4775 48.9326 39.2208 49.4255 40.1415C49.9184 41.0623 50.1106 42.1142 49.9752 43.1498C49.8315 44.2449 49.3292 45.2616 48.5468 46.0412C47.7644 46.8208 46.7458 47.3194 45.6502 47.4591H45.6658Z" fill="#D85722"/>
<path id="Vector_2" d="M60.156 53.5842C63.3174 50.9286 65.8429 47.5977 67.5465 43.8368C69.2501 40.0759 70.0884 35.9807 69.9997 31.8529C69.6872 17.5686 58.2466 5.79043 43.9872 5.04043C40.3081 4.84018 36.6262 5.38132 33.1603 6.63172C29.6943 7.88212 26.515 9.81627 23.8111 12.3193C21.1072 14.8224 18.9339 17.8433 17.4203 21.2026C15.9066 24.5619 15.0835 28.1912 14.9997 31.8748L7.98409 45.3686C7.95597 45.4248 7.92784 45.4811 7.90284 45.5373C7.39987 46.7096 7.36402 48.0299 7.80264 49.2278C8.24125 50.4257 9.12115 51.4107 10.2622 51.9811L10.3403 52.0154L17.4997 55.2936V64.9998C17.4997 66.3259 18.0265 67.5977 18.9642 68.5353C19.9019 69.473 21.1736 69.9998 22.4997 69.9998H37.4997C38.1628 69.9998 38.7986 69.7364 39.2675 69.2676C39.7363 68.7987 39.9997 68.1628 39.9997 67.4998C39.9997 66.8368 39.7363 66.2009 39.2675 65.732C38.7986 65.2632 38.1628 64.9998 37.4997 64.9998H22.4997V53.6904C22.5001 53.2112 22.3627 52.742 22.104 52.3387C21.8452 51.9354 21.476 51.6149 21.0403 51.4154L12.4997 47.4998L19.7091 33.6436C19.897 33.2914 19.9967 32.8989 19.9997 32.4998C19.999 27.4009 21.7302 22.4529 24.9097 18.4666C28.0891 14.4804 32.5283 11.6923 37.4997 10.5592V15.4311C35.8317 16.0208 34.4258 17.1812 33.5306 18.7073C32.6354 20.2333 32.3085 22.0267 32.6077 23.7704C32.9069 25.5141 33.8129 27.096 35.1656 28.2363C36.5182 29.3767 38.2305 30.0021 39.9997 30.0021C41.7689 30.0021 43.4812 29.3767 44.8339 28.2363C46.1865 27.096 47.0925 25.5141 47.3917 23.7704C47.6909 22.0267 47.364 20.2333 46.4688 18.7073C45.5736 17.1812 44.1678 16.0208 42.4997 15.4311V9.99981C42.906 9.99981 43.3122 9.99981 43.7185 10.0311C48.1518 10.285 52.4119 11.8405 55.9659 14.5029C59.5199 17.1653 62.21 20.8165 63.6997 24.9998H57.4997C57.133 24.9997 56.7707 25.0802 56.4385 25.2358C56.1064 25.3913 55.8126 25.618 55.5778 25.8998L47.606 35.4686C45.9434 34.849 44.1152 34.8375 42.4449 35.4358C40.7746 36.0342 39.3697 37.204 38.4787 38.7384C37.5877 40.2727 37.268 42.0727 37.5762 43.82C37.8844 45.5673 38.8006 47.1493 40.1627 48.2863C41.5248 49.4232 43.2451 50.0419 45.0194 50.0327C46.7936 50.0236 48.5075 49.3873 49.8578 48.2364C51.2082 47.0855 52.108 45.4941 52.3982 43.7438C52.6884 41.9934 52.3502 40.1968 51.4435 38.6717L58.6716 29.9998H64.856C64.931 30.6498 64.9768 31.3061 64.9935 31.9686C65.0714 35.5493 64.2965 39.0972 62.7327 42.3194C61.1688 45.5416 58.861 48.3456 55.9997 50.4998C55.6471 50.7641 55.3707 51.1169 55.1984 51.5225C55.0261 51.928 54.964 52.3719 55.0185 52.8092L57.5185 72.8092C57.5945 73.4129 57.8882 73.9682 58.3444 74.3709C58.8006 74.7736 59.3881 74.9961 59.9966 74.9967C60.101 74.9967 60.2054 74.9904 60.3091 74.9779C60.635 74.9374 60.9496 74.833 61.2352 74.6708C61.5207 74.5086 61.7714 74.2917 61.9731 74.0325C62.1748 73.7734 62.3235 73.4771 62.4106 73.1604C62.4977 72.8438 62.5217 72.5132 62.481 72.1873L60.156 53.5842ZM39.9997 24.9998C39.5053 24.9998 39.0219 24.8532 38.6108 24.5785C38.1997 24.3038 37.8792 23.9133 37.69 23.4565C37.5008 22.9997 37.4513 22.497 37.5478 22.0121C37.6442 21.5271 37.8823 21.0817 38.2319 20.732C38.5816 20.3824 39.027 20.1443 39.512 20.0478C39.9969 19.9514 40.4996 20.0009 40.9564 20.1901C41.4132 20.3793 41.8037 20.6998 42.0784 21.1109C42.3531 21.522 42.4997 22.0054 42.4997 22.4998C42.4997 23.1628 42.2363 23.7987 41.7675 24.2676C41.2986 24.7364 40.6628 24.9998 39.9997 24.9998ZM44.9997 44.9998C44.5053 44.9998 44.0219 44.8532 43.6108 44.5785C43.1997 44.3038 42.8792 43.9133 42.69 43.4565C42.5008 42.9997 42.4513 42.497 42.5478 42.0121C42.6442 41.5271 42.8823 41.0817 43.2319 40.732C43.5816 40.3824 44.027 40.1443 44.512 40.0478C44.9969 39.9514 45.4996 40.0009 45.9564 40.1901C46.4132 40.3793 46.8037 40.6998 47.0784 41.1109C47.3531 41.522 47.4997 42.0054 47.4997 42.4998C47.4997 43.1628 47.2363 43.7987 46.7675 44.2676C46.2986 44.7364 45.6628 44.9998 44.9997 44.9998Z" fill="#D85722"/>
</g>
</svg>
