<svg width="80" height="80" viewBox="0 0 80 80" fill="none" xmlns="http://www.w3.org/2000/svg">
<g id="LineSegments">
<path id="Vector" opacity="0.2" d="M17.8123 57.1873C18.8585 58.2372 19.5703 59.5736 19.8575 61.0278C20.1448 62.4819 19.9948 63.9886 19.4264 65.3575C18.8579 66.7264 17.8966 67.8962 16.6638 68.7192C15.431 69.5422 13.982 69.9814 12.4998 69.9814C11.0175 69.9814 9.56849 69.5422 8.33569 68.7192C7.10289 67.8962 6.14158 66.7264 5.57316 65.3575C5.00474 63.9886 4.85469 62.4819 5.14197 61.0278C5.42925 59.5736 6.14097 58.2372 7.18726 57.1873C7.88404 56.4881 8.71198 55.9333 9.62362 55.5548C10.5353 55.1762 11.5127 54.9814 12.4998 54.9814C13.4869 54.9814 14.4643 55.1762 15.3759 55.5548C16.2875 55.9333 17.1155 56.4881 17.8123 57.1873ZM24.6873 24.6873C23.641 25.7372 22.9293 27.0736 22.642 28.5278C22.3547 29.9819 22.5047 31.4886 23.0732 32.8575C23.6416 34.2264 24.6029 35.3962 25.8357 36.2192C27.0685 37.0422 28.5175 37.4814 29.9998 37.4814C31.482 37.4814 32.931 37.0422 34.1638 36.2192C35.3966 35.3962 36.3579 34.2264 36.9264 32.8575C37.4948 31.4886 37.6448 29.9819 37.3575 28.5278C37.0703 27.0736 36.3585 25.7372 35.3123 24.6873C34.6155 23.9881 33.7875 23.4333 32.8759 23.0548C31.9643 22.6762 30.9869 22.4814 29.9998 22.4814C29.0127 22.4814 28.0353 22.6762 27.1236 23.0548C26.212 23.4333 25.384 23.9881 24.6873 24.6873ZM44.6873 44.6873C43.641 45.7372 42.9293 47.0736 42.642 48.5278C42.3547 49.9819 42.5047 51.4886 43.0732 52.8575C43.6416 54.2264 44.6029 55.3962 45.8357 56.2192C47.0685 57.0422 48.5175 57.4814 49.9998 57.4814C51.482 57.4814 52.931 57.0422 54.1638 56.2192C55.3966 55.3962 56.3579 54.2264 56.9264 52.8575C57.4948 51.4886 57.6448 49.9819 57.3575 48.5278C57.0703 47.0736 56.3585 45.7372 55.3123 44.6873C54.6155 43.9881 53.7875 43.4333 52.8759 43.0548C51.9643 42.6762 50.9869 42.4814 49.9998 42.4814C49.0127 42.4814 48.0353 42.6762 47.1236 43.0548C46.212 43.4333 45.384 43.9881 44.6873 44.6873ZM72.8123 12.1873C71.7623 11.141 70.4259 10.4293 68.9718 10.142C67.5176 9.85472 66.011 10.0048 64.642 10.5732C63.2731 11.1416 62.1033 12.1029 61.2803 13.3357C60.4574 14.5685 60.0182 16.0175 60.0182 17.4998C60.0182 18.982 60.4574 20.4311 61.2803 21.6639C62.1033 22.8967 63.2731 23.858 64.642 24.4264C66.011 24.9948 67.5176 25.1449 68.9718 24.8576C70.4259 24.5703 71.7623 23.8586 72.8123 22.8123C73.5115 22.1155 74.0662 21.2876 74.4448 20.3759C74.8233 19.4643 75.0182 18.4869 75.0182 17.4998C75.0182 16.5127 74.8233 15.5353 74.4448 14.6236C74.0662 13.712 73.5115 12.8841 72.8123 12.1873Z" fill="#FEB532"/>
<path id="Vector_2" d="M74.5747 10.4249C73.6461 9.49609 72.5436 8.75929 71.3302 8.2566C70.1168 7.75391 68.8162 7.49518 67.5028 7.49518C66.1894 7.49518 64.8889 7.75391 63.6755 8.2566C62.4621 8.75929 61.3596 9.49609 60.431 10.4249C59.5021 11.3535 58.7653 12.456 58.2626 13.6694C57.7599 14.8828 57.5012 16.1834 57.5012 17.4968C57.5012 18.8102 57.7599 20.1107 58.2626 21.3242C58.7653 22.5376 59.5021 23.6401 60.431 24.5687C60.5216 24.6593 60.6185 24.7468 60.7122 24.8343L52.3903 40.2905C49.8532 39.6718 47.1748 40.064 44.9216 41.3843L38.6153 35.078C39.856 32.9811 40.2884 30.5033 39.8314 28.1101C39.3743 25.7169 38.0592 23.5729 36.1331 22.0807C34.207 20.5885 31.8024 19.8509 29.3709 20.0064C26.9394 20.1618 24.6483 21.1996 22.9278 22.9249C21.999 23.8535 21.2622 24.956 20.7595 26.1694C20.2568 27.3828 19.9981 28.6834 19.9981 29.9968C19.9981 31.3102 20.2568 32.6108 20.7595 33.8242C21.2622 35.0376 21.999 36.1401 22.9278 37.0687C23.0185 37.1593 23.1122 37.2468 23.206 37.3343L14.8841 52.7937C13.2137 52.3825 11.4654 52.4093 9.80835 52.8713C8.15127 53.3333 6.64141 54.215 5.42471 55.4312C4.02641 56.8298 3.07423 58.6116 2.68857 60.5514C2.3029 62.4911 2.50107 64.5017 3.25801 66.3288C4.01495 68.1559 5.29668 69.7176 6.94112 70.8163C8.58556 71.915 10.5189 72.5014 12.4966 72.5014C14.4743 72.5014 16.4076 71.915 18.052 70.8163C19.6965 69.7176 20.9782 68.1559 21.7352 66.3288C22.4921 64.5017 22.6903 62.4911 22.3046 60.5514C21.9189 58.6116 20.9668 56.8298 19.5685 55.4312C19.4778 55.3405 19.381 55.253 19.2872 55.1655L27.6091 39.7093C28.3916 39.9009 29.1941 39.9985 29.9997 39.9999C31.7851 40.0021 33.5385 39.5262 35.0778 38.6218L41.3841 44.928C40.4347 46.5393 39.9562 48.3845 40.0028 50.2541C40.0495 52.1237 40.6195 53.9428 41.6481 55.5047C42.6768 57.0666 44.1227 58.3087 45.8219 59.09C47.521 59.8714 49.4052 60.1605 51.2605 59.9248C53.1157 59.689 54.8677 58.9377 56.3174 57.7561C57.7671 56.5746 58.8564 55.0103 59.4616 53.2407C60.0668 51.4712 60.1637 49.5674 59.7412 47.7455C59.3187 45.9237 58.3938 44.2569 57.0716 42.9343C56.981 42.8437 56.8872 42.7562 56.7935 42.6687L65.1153 27.2124C65.8959 27.4027 66.6963 27.4992 67.4997 27.4999C69.4771 27.4996 71.41 26.9131 73.0542 25.8144C74.6983 24.7158 75.9798 23.1544 76.7366 21.3276C77.4935 19.5008 77.6918 17.4905 77.3064 15.5511C76.9211 13.6116 75.9694 11.8299 74.5716 10.4312L74.5747 10.4249ZM16.031 66.0405C15.0928 66.9783 13.8204 67.505 12.4939 67.5047C11.1674 67.5044 9.89531 66.9772 8.95752 66.039C8.01973 65.1008 7.49306 63.8285 7.49335 62.5019C7.49364 61.1754 8.02088 59.9033 8.95909 58.9655C9.42364 58.5012 9.9751 58.1329 10.582 57.8817C11.1889 57.6305 11.8393 57.5012 12.4961 57.5014C13.153 57.5015 13.8033 57.631 14.4101 57.8825C15.0169 58.134 15.5682 58.5026 16.0325 58.9671C16.4969 59.4317 16.8652 59.9831 17.1164 60.59C17.3676 61.1969 17.4968 61.8473 17.4967 62.5041C17.4966 63.161 17.367 63.8113 17.1155 64.4181C16.8641 65.0249 16.4955 65.5762 16.031 66.0405ZM26.4622 33.5405C25.9978 33.0762 25.6294 32.525 25.3781 31.9183C25.1267 31.3116 24.9973 30.6613 24.9973 30.0046C24.9973 29.3479 25.1267 28.6976 25.3781 28.0909C25.6294 27.4842 25.9978 26.933 26.4622 26.4687C27.1615 25.7695 28.0524 25.2934 29.0223 25.1006C29.9922 24.9078 30.9975 25.0068 31.911 25.3853C32.8246 25.7638 33.6054 26.4047 34.1548 27.2269C34.7041 28.0491 34.9973 29.0157 34.9973 30.0046C34.9973 30.9935 34.7041 31.9601 34.1548 32.7823C33.6054 33.6046 32.8246 34.2454 31.911 34.6239C30.9975 35.0024 29.9922 35.1014 29.0223 34.9086C28.0524 34.7158 27.1615 34.2397 26.4622 33.5405ZM53.5372 53.5405C52.5994 54.4783 51.3275 55.0052 50.0013 55.0052C48.675 55.0052 47.4031 54.4783 46.4653 53.5405C45.5275 52.6028 45.0007 51.3308 45.0007 50.0046C45.0007 48.6784 45.5275 47.4065 46.4653 46.4687C47.4031 45.5309 48.675 45.004 50.0013 45.004C51.3275 45.004 52.5994 45.5309 53.5372 46.4687C54.475 47.4065 55.0018 48.6784 55.0018 50.0046C55.0018 51.3308 54.475 52.6028 53.5372 53.5405ZM71.0372 21.0405C70.0982 21.9779 68.8252 22.5039 67.4984 22.5027C66.1716 22.5015 64.8996 21.9733 63.9622 21.0343C63.0248 20.0953 62.4989 18.8223 62.5 17.4955C62.5012 16.1687 63.0294 14.8967 63.9685 13.9593C64.433 13.4949 64.9845 13.1266 65.5914 12.8754C66.1982 12.6242 66.8487 12.495 67.5055 12.4951C68.1623 12.4953 68.8127 12.6248 69.4195 12.8763C70.0262 13.1278 70.5775 13.4963 71.0419 13.9609C71.5062 14.4254 71.8745 14.9769 72.1258 15.5838C72.377 16.1906 72.5062 16.8411 72.5061 17.4979C72.5059 18.1547 72.3764 18.8051 72.1249 19.4119C71.8734 20.0186 71.5049 20.5699 71.0403 21.0343L71.0372 21.0405Z" fill="#FEB532"/>
</g>
</svg>
