<svg width="200" height="200" viewBox="0 0 200 200" fill="none" xmlns="http://www.w3.org/2000/svg">
<g id="Logo 1">
<g id="Clip path group">
<mask id="mask0_28_205" style="mask-type:luminance" maskUnits="userSpaceOnUse" x="36" y="24" width="70" height="122">
<g id="454d945463">
<path id="Vector" d="M36.7764 24.4023H105.616V146H36.7764V24.4023Z" fill="white"/>
</g>
</mask>
<g mask="url(#mask0_28_205)">
<g id="Group">
<path id="Vector_2" d="M36.7764 68.8656C36.7764 68.8656 65.3875 80.3323 80.3247 72.3397C101.46 61.0345 89.595 35.1617 100.717 24.542C100.717 24.542 98.6715 38.2626 103.954 63.3063C115.54 118.21 62.7209 146.01 62.7209 146.01C62.7209 146.01 79.5459 120.371 69.5256 98.5175C61.7914 81.6423 47.5038 84.1509 36.7764 68.8656Z" fill="#054676"/>
</g>
</g>
</g>
<path id="Vector_3" d="M84.8441 59.1674C84.8441 64.8774 80.2179 69.5072 74.5043 69.5072C68.7943 69.5072 64.1646 64.8774 64.1646 59.1674C64.1646 53.4574 68.7943 48.8276 74.5043 48.8276C80.2179 48.8276 84.8441 53.4574 84.8441 59.1674Z" fill="#054676"/>
<path id="Vector_4" d="M72.3942 55.9409L85.2893 42.5864L66.8565 43.7672L53.8501 56.8884L56.2152 56.77L58.5947 61.9991C58.4117 62.2108 58.3542 62.5195 58.4798 62.7922C58.6019 63.065 58.871 63.2265 59.1546 63.2265L59.1976 63.3234L60.0339 68.3767L61.2075 66.9985L63.0199 67.02L59.7575 63.0686L59.7144 62.9717C59.8975 62.7599 59.9549 62.4513 59.8329 62.1785C59.7073 61.9022 59.4381 61.7443 59.1546 61.7443L56.8756 56.7341L72.3942 55.9409Z" fill="#054676"/>
<g id="Clip path group_2">
<mask id="mask1_28_205" style="mask-type:luminance" maskUnits="userSpaceOnUse" x="76" y="30" width="89" height="111">
<g id="e5f0160369">
<path id="Vector_5" d="M76 30H164.453V140.877H76V30Z" fill="white"/>
</g>
</mask>
<g mask="url(#mask1_28_205)">
<g id="Group_2">
<path id="Vector_6" d="M164.131 71.8909C163.276 69.253 160.929 67.5482 158.155 67.5482H123.346L112.59 34.4437C111.732 31.8058 109.388 30.1011 106.614 30.1011C105.548 30.1011 104.543 30.3559 103.664 30.8189C103.61 34.1063 103.721 38.754 104.321 44.6579L106.614 37.602L117.097 69.8667C117.941 72.4651 120.342 74.2093 123.073 74.2093H156.999L129.551 94.1496C127.344 95.7538 126.425 98.5747 127.269 101.173L137.752 133.438L110.307 113.498C109.202 112.694 107.91 112.295 106.614 112.295C105.322 112.295 104.026 112.694 102.921 113.498L97.4012 117.506C95.3483 120.722 93.0263 123.852 90.4458 126.888C85.5792 132.605 80.5008 137.156 76.1582 140.565C76.9621 140.375 77.7409 140.024 78.4515 139.507L106.614 119.046L134.777 139.507C135.9 140.321 137.185 140.727 138.47 140.727C139.754 140.727 141.039 140.321 142.163 139.507C144.406 137.877 145.303 135.117 144.445 132.483L133.689 99.3751L161.848 78.9144C164.095 77.2851 164.988 74.5287 164.131 71.8909Z" fill="#F6921E"/>
</g>
</g>
</g>
<path id="Vector_7" d="M78.8174 70.7542C78.8174 70.7542 85.884 76.4857 83.221 88.4764L88.0841 90.6764L90.1692 84.6542C90.1692 84.6542 88.7193 76.0227 81.0174 69.5088L78.8174 70.7542Z" fill="white"/>
<g id="Clip path group_3">
<mask id="mask2_28_205" style="mask-type:luminance" maskUnits="userSpaceOnUse" x="94" y="8" width="15" height="15">
<g id="bd27d3e7ad">
<path id="Vector_8" d="M94.1436 8.18311H108.844V22.3164H94.1436V8.18311Z" fill="white"/>
</g>
</mask>
<g mask="url(#mask2_28_205)">
<g id="Group_3">
<path id="Vector_9" d="M101.579 8.18359L103.273 13.4019H108.757L104.321 16.6248L106.015 21.8396L101.579 18.6167L97.1394 21.8396L98.837 16.6248L94.3975 13.4019H99.885L101.579 8.18359Z" fill="#F6921E"/>
</g>
</g>
</g>
<g id="Group_4">
<g id="Group_5">
<g id="Group_6">
<path id="Vector_10" d="M15.9195 161.925H11.6846V159.427H23.2123V161.925H18.9773V172.648H15.9195V161.925Z" fill="#054676"/>
</g>
</g>
</g>
<g id="Group_7">
<g id="Group_8">
<g id="Group_9">
<path id="Vector_11" d="M24.6489 162.485H27.5919V172.649H24.6489V162.485ZM26.1132 161.064C25.5749 161.064 25.137 160.906 24.7925 160.59C24.4551 160.274 24.29 159.887 24.29 159.427C24.29 158.961 24.4551 158.566 24.7925 158.25C25.137 157.934 25.5749 157.776 26.1132 157.776C26.6587 157.776 27.0966 157.931 27.434 158.236C27.7785 158.534 27.9508 158.91 27.9508 159.37C27.9508 159.858 27.7785 160.267 27.434 160.59C27.0966 160.906 26.6587 161.064 26.1132 161.064Z" fill="#054676"/>
</g>
</g>
</g>
<g id="Group_10">
<g id="Group_11">
<g id="Group_12">
<path id="Vector_12" d="M40.2822 167.61C40.2822 167.649 40.2607 167.911 40.2248 168.399H32.5444C32.6772 169.031 33.0038 169.53 33.5206 169.892C34.0374 170.258 34.6762 170.438 35.4443 170.438C35.979 170.438 36.4492 170.362 36.8512 170.208C37.2603 170.047 37.6443 169.799 37.9996 169.462L39.5644 171.156C38.6062 172.257 37.21 172.807 35.3725 172.807C34.224 172.807 33.2084 172.584 32.3291 172.132C31.4462 171.683 30.7679 171.062 30.2905 170.266C29.8096 169.472 29.5728 168.572 29.5728 167.567C29.5728 166.573 29.806 165.679 30.2762 164.882C30.7535 164.078 31.4031 163.454 32.2286 163.002C33.0505 162.553 33.9728 162.327 34.9993 162.327C35.9934 162.327 36.8942 162.542 37.6981 162.973C38.5021 163.403 39.1337 164.021 39.5931 164.825C40.0525 165.621 40.2822 166.547 40.2822 167.61ZM35.0136 164.566C34.3425 164.566 33.7826 164.76 33.334 165.141C32.8818 165.514 32.6054 166.027 32.5013 166.677H37.5115C37.4039 166.038 37.1275 165.525 36.6789 165.141C36.2267 164.76 35.674 164.566 35.0136 164.566ZM36.564 161.178L34.9418 160.102L33.3196 161.178H31.1519L33.6642 159.025H36.2339L38.7461 161.178H36.564ZM39.306 157.087H42.3064L39.3491 159.369H37.21L39.306 157.087Z" fill="#054676"/>
</g>
</g>
</g>
<g id="Group_13">
<g id="Group_14">
<g id="Group_15">
<path id="Vector_13" d="M48.422 162.327C49.6853 162.327 50.7046 162.708 51.4798 163.461C52.255 164.219 52.6426 165.342 52.6426 166.835V172.649H49.6853V167.28C49.6853 166.476 49.5059 165.88 49.1542 165.485C48.8096 165.083 48.3 164.882 47.6325 164.882C46.886 164.882 46.2902 165.112 45.8523 165.572C45.4109 166.031 45.192 166.716 45.192 167.624V172.649H42.249V162.485H45.0628V163.677C45.454 163.246 45.9385 162.916 46.5127 162.686C47.0941 162.449 47.7329 162.327 48.422 162.327Z" fill="#054676"/>
</g>
</g>
</g>
<g id="Group_16">
<g id="Group_17">
<g id="Group_18">
<path id="Vector_14" d="M65.7787 162.485V170.955C65.7787 172.81 65.2906 174.192 64.3144 175.104C63.3454 176.012 61.9349 176.468 60.0794 176.468C59.0925 176.468 58.1593 176.346 57.28 176.109C56.3972 175.868 55.665 175.52 55.0836 175.061L56.2608 172.95C56.6915 173.302 57.2298 173.582 57.883 173.783C58.5326 173.991 59.1894 174.099 59.8497 174.099C60.8726 174.099 61.6227 173.869 62.1036 173.41C62.5917 172.95 62.8357 172.258 62.8357 171.328V170.898C62.0677 171.741 60.9982 172.161 59.62 172.161C58.6905 172.161 57.8399 171.956 57.0647 171.544C56.2895 171.134 55.6722 170.56 55.2128 169.821C54.7606 169.074 54.5381 168.22 54.5381 167.251C54.5381 166.275 54.7606 165.421 55.2128 164.682C55.6722 163.935 56.2895 163.357 57.0647 162.944C57.8399 162.535 58.6905 162.327 59.62 162.327C61.0915 162.327 62.2113 162.815 62.9793 163.791V162.485H65.7787ZM60.2086 169.735C60.991 169.735 61.6299 169.505 62.118 169.046C62.6132 168.586 62.8645 167.991 62.8645 167.251C62.8645 166.505 62.6132 165.902 62.118 165.442C61.6299 164.983 60.991 164.753 60.2086 164.753C59.4227 164.753 58.7766 164.983 58.2706 165.442C57.7717 165.902 57.5241 166.505 57.5241 167.251C57.5241 167.991 57.7717 168.586 58.2706 169.046C58.7766 169.505 59.4227 169.735 60.2086 169.735Z" fill="#054676"/>
</g>
</g>
</g>
<g id="Group_19">
<g id="Group_20">
<g id="Group_21">
<path id="Vector_15" d="M82.7782 169.82H76.6339L75.4711 172.648H72.3271L78.2274 159.427H81.2421L87.1567 172.648H83.941L82.7782 169.82ZM81.8163 167.495L79.7204 162.427L77.6244 167.495H81.8163Z" fill="#054676"/>
</g>
</g>
</g>
<g id="Group_22">
<g id="Group_23">
<g id="Group_24">
<path id="Vector_16" d="M94.5026 162.327C95.7659 162.327 96.7852 162.708 97.5604 163.461C98.3356 164.219 98.7232 165.342 98.7232 166.835V172.649H95.7659V167.28C95.7659 166.476 95.5865 165.88 95.2347 165.485C94.8902 165.083 94.3806 164.882 93.713 164.882C92.9665 164.882 92.3708 165.112 91.9329 165.572C91.4915 166.031 91.2725 166.716 91.2725 167.624V172.649H88.3296V162.485H91.1433V163.677C91.5345 163.246 92.019 162.916 92.5933 162.686C93.1747 162.449 93.8135 162.327 94.5026 162.327Z" fill="#054676"/>
</g>
</g>
</g>
<g id="Group_25">
<g id="Group_26">
<g id="Group_27">
<path id="Vector_17" d="M107.55 162.327C108.814 162.327 109.833 162.708 110.608 163.461C111.383 164.219 111.771 165.342 111.771 166.835V172.649H108.814V167.28C108.814 166.476 108.634 165.88 108.283 165.485C107.938 165.083 107.428 164.882 106.761 164.882C106.014 164.882 105.419 165.112 104.981 165.572C104.539 166.031 104.32 166.716 104.32 167.624V172.649H101.377V158.638H104.32V163.547C104.712 163.156 105.185 162.855 105.742 162.643C106.294 162.435 106.897 162.327 107.55 162.327Z" fill="#054676"/>
</g>
</g>
</g>
<g id="Group_28">
<g id="Group_29">
<g id="Group_30">
<path id="Vector_18" d="M124.682 172.807C123.598 172.807 122.622 172.584 121.754 172.132C120.892 171.684 120.218 171.063 119.73 170.266C119.249 169.473 119.012 168.572 119.012 167.567C119.012 166.562 119.249 165.665 119.73 164.868C120.218 164.075 120.892 163.454 121.754 163.002C122.622 162.553 123.598 162.327 124.682 162.327C125.752 162.327 126.685 162.553 127.482 163.002C128.286 163.454 128.867 164.093 129.233 164.926L126.95 166.146C126.423 165.22 125.662 164.753 124.668 164.753C123.893 164.753 123.25 165.008 122.744 165.514C122.245 166.013 121.998 166.698 121.998 167.567C121.998 168.439 122.245 169.128 122.744 169.634C123.25 170.133 123.893 170.381 124.668 170.381C125.673 170.381 126.434 169.918 126.95 168.988L129.233 170.237C128.867 171.041 128.286 171.673 127.482 172.132C126.685 172.584 125.752 172.807 124.682 172.807Z" fill="#054676"/>
</g>
</g>
</g>
<g id="Group_31">
<g id="Group_32">
<g id="Group_33">
<path id="Vector_19" d="M137.107 162.327C138.37 162.327 139.39 162.708 140.165 163.461C140.94 164.219 141.328 165.342 141.328 166.835V172.649H138.37V167.28C138.37 166.476 138.191 165.88 137.839 165.485C137.495 165.083 136.985 164.882 136.318 164.882C135.571 164.882 134.975 165.112 134.537 165.572C134.096 166.031 133.877 166.716 133.877 167.624V172.649H130.934V158.638H133.877V163.547C134.268 163.156 134.742 162.855 135.298 162.643C135.851 162.435 136.454 162.327 137.107 162.327Z" fill="#054676"/>
</g>
</g>
</g>
<g id="Group_34">
<g id="Group_35">
<g id="Group_36">
<path id="Vector_20" d="M148.82 172.807C147.747 172.807 146.786 172.584 145.935 172.132C145.081 171.684 144.417 171.063 143.939 170.266C143.459 169.473 143.222 168.572 143.222 167.567C143.222 166.562 143.459 165.665 143.939 164.868C144.417 164.075 145.081 163.454 145.935 163.002C146.786 162.553 147.747 162.327 148.82 162.327C149.89 162.327 150.848 162.553 151.692 163.002C152.531 163.454 153.192 164.075 153.673 164.868C154.15 165.665 154.391 166.562 154.391 167.567C154.391 168.572 154.15 169.473 153.673 170.266C153.192 171.063 152.531 171.684 151.692 172.132C150.848 172.584 149.89 172.807 148.82 172.807ZM148.82 170.381C149.574 170.381 150.191 170.13 150.672 169.62C151.16 169.103 151.404 168.421 151.404 167.567C151.404 166.716 151.16 166.038 150.672 165.528C150.191 165.012 149.574 164.753 148.82 164.753C148.063 164.753 147.435 165.012 146.94 165.528C146.452 166.038 146.208 166.716 146.208 167.567C146.208 168.421 146.452 169.103 146.94 169.62C147.435 170.13 148.063 170.381 148.82 170.381Z" fill="#054676"/>
</g>
</g>
</g>
<g id="Group_37">
<g id="Group_38">
<g id="Group_39">
<path id="Vector_21" d="M168.243 172.161C167.956 172.373 167.6 172.534 167.181 172.649C166.757 172.753 166.312 172.807 165.845 172.807C164.64 172.807 163.706 172.502 163.046 171.888C162.386 171.267 162.056 170.359 162.056 169.161V164.983H160.491V162.715H162.056V160.231H164.998V162.715H167.525V164.983H164.998V169.118C164.998 169.548 165.106 169.879 165.329 170.108C165.548 170.338 165.86 170.453 166.262 170.453C166.728 170.453 167.127 170.331 167.453 170.08L168.243 172.161Z" fill="#054676"/>
</g>
</g>
</g>
<g id="Group_40">
<g id="Group_41">
<g id="Group_42">
<path id="Vector_22" d="M172.726 163.82C173.078 163.332 173.551 162.966 174.147 162.715C174.75 162.456 175.439 162.327 176.214 162.327V165.055C175.888 165.026 175.669 165.012 175.554 165.012C174.711 165.012 174.05 165.252 173.573 165.729C173.092 166.2 172.855 166.907 172.855 167.854V172.649H169.912V162.485H172.726V163.82Z" fill="#054676"/>
</g>
</g>
</g>
<g id="Group_43">
<g id="Group_44">
<g id="Group_45">
<path id="Vector_23" d="M188 167.61C188 167.65 187.978 167.912 187.943 168.4H180.262C180.395 169.032 180.722 169.53 181.238 169.893C181.755 170.259 182.394 170.438 183.162 170.438C183.697 170.438 184.167 170.363 184.569 170.209C184.978 170.047 185.362 169.8 185.717 169.462L187.282 171.156C186.324 172.258 184.928 172.807 183.09 172.807C181.942 172.807 180.926 172.585 180.047 172.132C179.164 171.684 178.486 171.063 178.008 170.266C177.527 169.473 177.291 168.572 177.291 167.567C177.291 166.573 177.524 165.679 177.994 164.883C178.471 164.079 179.121 163.454 179.946 163.002C180.768 162.553 181.691 162.327 182.717 162.327C183.711 162.327 184.612 162.543 185.416 162.973C186.22 163.404 186.852 164.021 187.311 164.825C187.77 165.622 188 166.548 188 167.61ZM182.731 164.567C182.06 164.567 181.5 164.761 181.052 165.141C180.6 165.514 180.323 166.028 180.219 166.677H185.229C185.122 166.038 184.845 165.525 184.397 165.141C183.944 164.761 183.392 164.567 182.731 164.567ZM182.301 160.389C182.652 160.228 182.904 160.052 183.047 159.858C183.191 159.668 183.263 159.463 183.263 159.241C183.263 159.004 183.18 158.81 183.018 158.667C182.853 158.516 182.638 158.437 182.372 158.437C181.999 158.437 181.63 158.559 181.267 158.796L180.664 157.604C181.199 157.184 181.877 156.973 182.703 156.973C183.37 156.973 183.916 157.159 184.339 157.533C184.759 157.899 184.971 158.387 184.971 158.997C184.971 160.052 184.389 160.842 183.234 161.366L182.301 160.389Z" fill="#054676"/>
</g>
</g>
</g>
<g id="Group_46">
<g id="Group_47">
<g id="Group_48">
<path id="Vector_24" d="M59.9833 191.587V192.132H54.2554V183.82H59.8111V184.366H54.8583V187.639H59.2943V188.184H54.8583V191.587H59.9833Z" fill="#054676"/>
</g>
</g>
</g>
<g id="Group_49">
<g id="Group_50">
<g id="Group_51">
<path id="Vector_25" d="M65.0349 185.889C65.8102 185.889 66.4203 186.115 66.8725 186.563C67.3211 187.016 67.5472 187.665 67.5472 188.516V192.133H66.9586V188.559C66.9586 187.863 66.7792 187.331 66.4275 186.965C66.0721 186.603 65.5805 186.42 64.9488 186.42C64.2202 186.42 63.646 186.642 63.2261 187.08C62.8026 187.511 62.5944 188.096 62.5944 188.832V192.133H62.0059V185.932H62.5657V187.281C62.7847 186.843 63.1041 186.502 63.5276 186.262C63.9475 186.014 64.4499 185.889 65.0349 185.889Z" fill="#054676"/>
</g>
</g>
</g>
<g id="Group_52">
<g id="Group_53">
<g id="Group_54">
<path id="Vector_26" d="M75.5622 185.932V191.473C75.5622 192.496 75.3109 193.253 74.8157 193.741C74.3168 194.237 73.5667 194.488 72.5618 194.488C71.9947 194.488 71.46 194.394 70.9539 194.215C70.4443 194.043 70.0352 193.802 69.7193 193.497L70.0495 193.052C70.3546 193.329 70.7243 193.547 71.1549 193.713C71.5928 193.874 72.0593 193.957 72.5474 193.957C73.3693 193.957 73.9758 193.759 74.3706 193.368C74.7726 192.973 74.9736 192.367 74.9736 191.545V190.497C74.7223 190.949 74.3706 191.297 73.9112 191.545C73.459 191.785 72.9566 191.904 72.4039 191.904C71.8189 191.904 71.2913 191.782 70.8247 191.531C70.3546 191.272 69.9849 190.913 69.7193 190.454C69.4502 189.994 69.3174 189.474 69.3174 188.889C69.3174 188.315 69.4502 187.798 69.7193 187.339C69.9849 186.879 70.3546 186.528 70.8247 186.276C71.2913 186.018 71.8189 185.889 72.4039 185.889C72.9673 185.889 73.4806 186.018 73.94 186.276C74.3993 186.528 74.7511 186.879 75.0023 187.339V185.932H75.5622ZM72.447 191.373C72.9243 191.373 73.355 191.269 73.739 191.057C74.1302 190.849 74.4352 190.554 74.6577 190.181C74.8767 189.808 74.9879 189.377 74.9879 188.889C74.9879 188.412 74.8767 187.985 74.6577 187.611C74.4352 187.238 74.1302 186.947 73.739 186.736C73.355 186.528 72.9243 186.42 72.447 186.42C71.9589 186.42 71.521 186.528 71.1406 186.736C70.7566 186.947 70.4551 187.238 70.2362 187.611C70.0244 187.985 69.9203 188.412 69.9203 188.889C69.9203 189.377 70.0244 189.808 70.2362 190.181C70.4551 190.554 70.7566 190.849 71.1406 191.057C71.521 191.269 71.9589 191.373 72.447 191.373Z" fill="#054676"/>
</g>
</g>
</g>
<g id="Group_55">
<g id="Group_56">
<g id="Group_57">
<path id="Vector_27" d="M78.084 183.319H78.6726V192.134H78.084V183.319Z" fill="#054676"/>
</g>
</g>
</g>
<g id="Group_58">
<g id="Group_59">
<g id="Group_60">
<path id="Vector_28" d="M81.1805 185.932H81.7691V192.134H81.1805V185.932ZM81.4676 184.425C81.3312 184.425 81.2164 184.382 81.1231 184.296C81.0261 184.202 80.9795 184.087 80.9795 183.951C80.9795 183.818 81.0261 183.703 81.1231 183.606C81.2164 183.513 81.3312 183.463 81.4676 183.463C81.6004 183.463 81.7152 183.513 81.8121 183.606C81.9054 183.693 81.9557 183.804 81.9557 183.937C81.9557 184.073 81.9054 184.188 81.8121 184.281C81.7152 184.378 81.6004 184.425 81.4676 184.425Z" fill="#054676"/>
</g>
</g>
</g>
<g id="Group_61">
<g id="Group_62">
<g id="Group_63">
<path id="Vector_29" d="M85.8415 192.177C85.3426 192.177 84.8653 192.105 84.4059 191.961C83.9537 191.81 83.6055 191.617 83.3579 191.387L83.6307 190.913C83.8783 191.125 84.2049 191.301 84.6069 191.444C85.0088 191.588 85.4251 191.66 85.8558 191.66C86.4875 191.66 86.9505 191.559 87.2483 191.358C87.5426 191.15 87.6934 190.863 87.6934 190.497C87.6934 190.238 87.6108 190.034 87.4493 189.88C87.2842 189.729 87.0832 189.618 86.8464 189.549C86.6059 189.474 86.2757 189.399 85.8558 189.32C85.3677 189.234 84.9694 189.14 84.6643 189.033C84.3664 188.929 84.1116 188.76 83.9034 188.53C83.6917 188.3 83.5876 187.985 83.5876 187.583C83.5876 187.095 83.7886 186.693 84.1905 186.377C84.5997 186.054 85.1811 185.889 85.9276 185.889C86.3296 185.889 86.7208 185.946 87.1048 186.061C87.496 186.169 87.8118 186.312 88.0523 186.492L87.7795 186.965C87.5283 186.786 87.2412 186.646 86.9182 186.549C86.5916 186.456 86.2614 186.405 85.9276 186.405C85.3426 186.405 84.9012 186.517 84.6069 186.736C84.3197 186.947 84.1762 187.224 84.1762 187.568C84.1762 187.848 84.2551 188.067 84.4202 188.229C84.5925 188.383 84.7971 188.498 85.0375 188.573C85.2744 188.641 85.6154 188.717 86.0568 188.803C86.5341 188.9 86.9217 188.997 87.2196 189.09C87.5139 189.187 87.7651 189.348 87.9661 189.578C88.1743 189.801 88.282 190.102 88.282 190.483C88.282 190.999 88.0666 191.412 87.6359 191.717C87.2124 192.026 86.6167 192.177 85.8415 192.177Z" fill="#054676"/>
</g>
</g>
</g>
<g id="Group_64">
<g id="Group_65">
<g id="Group_66">
<path id="Vector_30" d="M92.9783 185.889C93.7535 185.889 94.3636 186.115 94.8158 186.564C95.2645 187.016 95.4906 187.666 95.4906 188.516V192.134H94.902V188.559C94.902 187.863 94.7225 187.332 94.3708 186.966C94.0155 186.603 93.5238 186.42 92.8922 186.42C92.1636 186.42 91.5894 186.643 91.1695 187.081C90.746 187.511 90.5378 188.096 90.5378 188.832V192.134H89.9492V183.319H90.5378V187.224C90.746 186.804 91.0618 186.478 91.4853 186.248C91.9052 186.011 92.4041 185.889 92.9783 185.889Z" fill="#054676"/>
</g>
</g>
</g>
<g id="Group_67">
<g id="Group_68">
<g id="Group_69">
<path id="Vector_31" d="M101.773 184.366V187.912H106.209V188.457H101.773V192.132H101.17V183.82H106.726V184.366H101.773Z" fill="#054676"/>
</g>
</g>
</g>
<g id="Group_70">
<g id="Group_71">
<g id="Group_72">
<path id="Vector_32" d="M110.882 192.177C110.297 192.177 109.769 192.044 109.303 191.775C108.833 191.509 108.463 191.136 108.197 190.655C107.928 190.177 107.795 189.636 107.795 189.033C107.795 188.43 107.928 187.891 108.197 187.41C108.463 186.933 108.833 186.56 109.303 186.291C109.769 186.025 110.297 185.889 110.882 185.889C111.474 185.889 112.005 186.025 112.475 186.291C112.942 186.56 113.312 186.933 113.581 187.41C113.846 187.891 113.983 188.43 113.983 189.033C113.983 189.636 113.846 190.177 113.581 190.655C113.312 191.136 112.942 191.509 112.475 191.775C112.005 192.044 111.474 192.177 110.882 192.177ZM110.882 191.645C111.359 191.645 111.786 191.538 112.16 191.315C112.54 191.096 112.838 190.791 113.05 190.396C113.269 189.994 113.38 189.542 113.38 189.033C113.38 188.527 113.269 188.078 113.05 187.683C112.838 187.292 112.54 186.987 112.16 186.764C111.786 186.535 111.359 186.42 110.882 186.42C110.412 186.42 109.985 186.535 109.604 186.764C109.231 186.987 108.933 187.292 108.714 187.683C108.502 188.078 108.398 188.527 108.398 189.033C108.398 189.542 108.502 189.994 108.714 190.396C108.933 190.791 109.231 191.096 109.604 191.315C109.985 191.538 110.412 191.645 110.882 191.645Z" fill="#054676"/>
</g>
</g>
</g>
<g id="Group_73">
<g id="Group_74">
<g id="Group_75">
<path id="Vector_33" d="M116.387 187.296C116.577 186.836 116.875 186.488 117.277 186.248C117.686 186.011 118.182 185.889 118.756 185.889V186.477L118.612 186.463C117.923 186.463 117.381 186.678 116.99 187.109C116.606 187.54 116.416 188.139 116.416 188.903V192.133H115.827V185.932H116.387V187.296Z" fill="#054676"/>
</g>
</g>
</g>
<g id="Group_76">
<g id="Group_77">
<g id="Group_78">
<path id="Vector_34" d="M126.207 188.041L124.34 189.95V192.132H123.737V183.82H124.34V189.161L129.523 183.82H130.269L126.608 187.596L130.513 192.132H129.781L126.207 188.041Z" fill="#054676"/>
</g>
</g>
</g>
<g id="Group_79">
<g id="Group_80">
<g id="Group_81">
<path id="Vector_35" d="M131.892 185.932H132.481V192.134H131.892V185.932ZM132.18 184.425C132.043 184.425 131.928 184.382 131.835 184.296C131.738 184.202 131.691 184.087 131.691 183.951C131.691 183.818 131.738 183.703 131.835 183.606C131.928 183.513 132.043 183.463 132.18 183.463C132.312 183.463 132.427 183.513 132.524 183.606C132.617 183.693 132.668 183.804 132.668 183.937C132.668 184.073 132.617 184.188 132.524 184.281C132.427 184.378 132.312 184.425 132.18 184.425Z" fill="#054676"/>
</g>
</g>
</g>
<g id="Group_82">
<g id="Group_83">
<g id="Group_84">
<path id="Vector_36" d="M140.487 183.319V192.134H139.913V190.67C139.662 191.158 139.317 191.531 138.879 191.789C138.438 192.048 137.935 192.177 137.372 192.177C136.798 192.177 136.274 192.044 135.807 191.775C135.337 191.509 134.967 191.14 134.702 190.67C134.443 190.192 134.314 189.647 134.314 189.033C134.314 188.423 134.443 187.877 134.702 187.396C134.967 186.919 135.337 186.549 135.807 186.291C136.274 186.025 136.798 185.889 137.372 185.889C137.924 185.889 138.423 186.025 138.865 186.291C139.303 186.549 139.647 186.908 139.898 187.368V183.319H140.487ZM137.4 191.646C137.878 191.646 138.305 191.538 138.678 191.316C139.059 191.097 139.356 190.792 139.568 190.397C139.787 189.995 139.898 189.543 139.898 189.033C139.898 188.527 139.787 188.078 139.568 187.684C139.356 187.292 139.059 186.987 138.678 186.765C138.305 186.535 137.878 186.42 137.4 186.42C136.93 186.42 136.503 186.535 136.123 186.765C135.75 186.987 135.452 187.292 135.233 187.684C135.021 188.078 134.917 188.527 134.917 189.033C134.917 189.543 135.021 189.995 135.233 190.397C135.452 190.792 135.75 191.097 136.123 191.316C136.503 191.538 136.93 191.646 137.4 191.646Z" fill="#054676"/>
</g>
</g>
</g>
<g id="Group_85">
<g id="Group_86">
<g id="Group_87">
<path id="Vector_37" d="M144.563 192.177C144.064 192.177 143.587 192.105 143.128 191.961C142.675 191.81 142.327 191.617 142.08 191.387L142.352 190.913C142.6 191.125 142.927 191.301 143.329 191.444C143.731 191.588 144.147 191.66 144.578 191.66C145.209 191.66 145.672 191.559 145.97 191.358C146.264 191.15 146.415 190.863 146.415 190.497C146.415 190.238 146.333 190.034 146.171 189.88C146.006 189.729 145.805 189.618 145.568 189.549C145.328 189.474 144.997 189.399 144.578 189.32C144.089 189.234 143.691 189.14 143.386 189.033C143.088 188.929 142.833 188.76 142.625 188.53C142.413 188.3 142.309 187.985 142.309 187.583C142.309 187.095 142.51 186.693 142.912 186.377C143.321 186.054 143.903 185.889 144.649 185.889C145.051 185.889 145.442 185.946 145.826 186.061C146.218 186.169 146.533 186.312 146.774 186.492L146.501 186.965C146.25 186.786 145.963 186.646 145.64 186.549C145.313 186.456 144.983 186.405 144.649 186.405C144.064 186.405 143.623 186.517 143.329 186.736C143.041 186.947 142.898 187.224 142.898 187.568C142.898 187.848 142.977 188.067 143.142 188.229C143.314 188.383 143.519 188.498 143.759 188.573C143.996 188.641 144.337 188.717 144.778 188.803C145.256 188.9 145.643 188.997 145.941 189.09C146.236 189.187 146.487 189.348 146.688 189.578C146.896 189.801 147.004 190.102 147.004 190.483C147.004 190.999 146.788 191.412 146.358 191.717C145.934 192.026 145.338 192.177 144.563 192.177Z" fill="#054676"/>
</g>
</g>
</g>
</g>
</svg>
