<svg width="40" height="40" viewBox="0 0 40 40" fill="none" xmlns="http://www.w3.org/2000/svg">
<g id="Star">
<path id="Vector" opacity="0.2" d="M35.7907 16.9984L28.1813 23.5609L30.5063 33.3719C30.5678 33.624 30.5531 33.8887 30.4642 34.1325C30.3753 34.3763 30.2161 34.5882 30.0067 34.7416C29.7974 34.8949 29.5472 34.9828 29.288 34.994C29.0287 35.0052 28.7719 34.9393 28.5501 34.8047L20.0001 29.5453L11.4501 34.8031C11.2282 34.9378 10.9715 35.0037 10.7122 34.9924C10.4529 34.9812 10.2028 34.8934 9.99345 34.74C9.78409 34.5867 9.62488 34.3747 9.53595 34.1309C9.44703 33.8871 9.43237 33.6224 9.49383 33.3703L11.8188 23.5594L4.20946 16.9969C4.01545 16.8265 3.87557 16.6031 3.8071 16.3541C3.73863 16.1052 3.74456 15.8416 3.82416 15.596C3.90375 15.3504 4.05354 15.1335 4.25502 14.972C4.45649 14.8106 4.70084 14.7116 4.9579 14.6875L14.9438 13.875L18.7907 4.56248C18.8888 4.32223 19.0562 4.11663 19.2716 3.9719C19.487 3.82718 19.7406 3.74989 20.0001 3.74989C20.2596 3.74989 20.5132 3.82718 20.7286 3.9719C20.944 4.11663 21.1114 4.32223 21.2095 4.56248L25.0563 13.875L35.0423 14.6875C35.2997 14.7114 35.5444 14.8102 35.7462 14.9718C35.948 15.1333 36.0981 15.3505 36.1777 15.5964C36.2574 15.8423 36.2631 16.1062 36.1944 16.3554C36.1256 16.6046 35.9852 16.8282 35.7907 16.9984Z" fill="#ED8C45"/>
<path id="Vector_2" d="M37.372 15.1969C37.2157 14.7164 36.9207 14.293 36.5242 13.9799C36.1277 13.6668 35.6474 13.4781 35.1439 13.4375L25.9251 12.6938L22.3657 4.08594C22.1732 3.6169 21.8456 3.2157 21.4245 2.93334C21.0034 2.65098 20.5079 2.50022 20.0009 2.50022C19.4939 2.50022 18.9983 2.65098 18.5772 2.93334C18.1562 3.2157 17.8285 3.6169 17.636 4.08594L14.0798 12.6922L4.85636 13.4375C4.35194 13.4802 3.87134 13.6707 3.47475 13.9853C3.07817 14.2999 2.78324 14.7246 2.62692 15.206C2.4706 15.6875 2.45984 16.2044 2.59599 16.692C2.73214 17.1795 3.00914 17.6161 3.39229 17.9469L10.4235 24.0141L8.28136 33.0859C8.16155 33.5788 8.19088 34.0961 8.36563 34.5723C8.54039 35.0484 8.85267 35.4619 9.26285 35.7603C9.67304 36.0586 10.1626 36.2284 10.6694 36.248C11.1763 36.2675 11.6775 36.1361 12.1095 35.8703L20.0001 31.0141L27.8954 35.8703C28.3276 36.133 28.8278 36.2619 29.333 36.2408C29.8383 36.2197 30.326 36.0497 30.7348 35.752C31.1436 35.4543 31.4551 35.0423 31.6303 34.5679C31.8054 34.0935 31.8362 33.5778 31.7189 33.0859L29.5689 24.0125L36.6001 17.9453C36.9864 17.615 37.2659 17.1776 37.4033 16.6883C37.5407 16.199 37.5298 15.68 37.372 15.1969ZM34.9751 16.0516L27.3657 22.6141C27.1922 22.7636 27.0631 22.958 26.9926 23.176C26.922 23.394 26.9127 23.6271 26.9657 23.85L29.2907 33.6625C29.2967 33.676 29.2973 33.6913 29.2924 33.7053C29.2875 33.7193 29.2774 33.7308 29.2642 33.7375C29.236 33.7594 29.2282 33.7547 29.2048 33.7375L20.6548 28.4797C20.4579 28.3586 20.2313 28.2945 20.0001 28.2945C19.769 28.2945 19.5423 28.3586 19.3454 28.4797L10.7954 33.7406C10.772 33.7547 10.7657 33.7594 10.736 33.7406C10.7229 33.7339 10.7127 33.7224 10.7078 33.7084C10.7029 33.6945 10.7035 33.6792 10.7095 33.6656L13.0345 23.8531C13.0875 23.6302 13.0782 23.3971 13.0076 23.1791C12.9371 22.9612 12.808 22.7668 12.6345 22.6172L5.02511 16.0547C5.00636 16.0391 4.98917 16.025 5.00479 15.9766C5.02042 15.9281 5.03292 15.9344 5.05636 15.9313L15.0439 15.125C15.2729 15.1054 15.4922 15.0229 15.6774 14.8867C15.8627 14.7505 16.0068 14.5659 16.0939 14.3531L19.9407 5.03906C19.9532 5.0125 19.9579 5 19.9954 5C20.0329 5 20.0376 5.0125 20.0501 5.03906L23.9064 14.3531C23.9943 14.566 24.1393 14.7504 24.3254 14.8861C24.5115 15.0217 24.7315 15.1033 24.961 15.1219L34.9485 15.9281C34.972 15.9281 34.986 15.9281 35.0001 15.9734C35.0142 16.0188 35.0001 16.0359 34.9751 16.0516Z" fill="#ED8C45"/>
</g>
</svg>
