<svg width="120" height="120" viewBox="0 0 120 120" fill="none" xmlns="http://www.w3.org/2000/svg">
<g id="UserCircle">
<path id="Vector" d="M80.625 56.25C80.625 60.3292 79.4154 64.3169 77.1491 67.7086C74.8828 71.1004 71.6616 73.744 67.8929 75.305C64.1241 76.8661 59.9771 77.2745 55.9763 76.4787C51.9754 75.6829 48.3004 73.7185 45.4159 70.8341C42.5315 67.9496 40.5671 64.2746 39.7713 60.2737C38.9755 56.2729 39.384 52.1259 40.945 48.3572C42.5061 44.5884 45.1496 41.3672 48.5414 39.1009C51.9331 36.8346 55.9208 35.625 60 35.625C65.4682 35.6312 70.7107 37.8062 74.5772 41.6728C78.4438 45.5394 80.6188 50.7818 80.625 56.25ZM108.75 60C108.75 69.6418 105.891 79.0671 100.534 87.084C95.1774 95.1009 87.5637 101.349 78.6558 105.039C69.7479 108.729 59.9459 109.694 50.4894 107.813C41.0328 105.932 32.3464 101.289 25.5286 94.4715C18.7108 87.6536 14.0678 78.9672 12.1867 69.5107C10.3057 60.0541 11.2711 50.2521 14.9609 41.3442C18.6507 32.4363 24.8991 24.8226 32.916 19.4659C40.9329 14.1091 50.3582 11.25 60 11.25C72.9251 11.2636 85.317 16.4042 94.4564 25.5436C103.596 34.6831 108.736 47.0749 108.75 60ZM101.25 60C101.244 54.4478 100.118 48.9539 97.9404 43.8467C95.7624 38.7395 92.5768 34.124 88.5741 30.2763C84.5714 26.4285 79.8339 23.4274 74.6448 21.4526C69.4557 19.4778 63.9216 18.5698 58.3735 18.7828C36.2953 19.6359 18.6891 38.025 18.75 60.1172C18.7712 70.1743 22.4804 79.8744 29.175 87.3797C31.9014 83.4254 35.3646 80.0338 39.375 77.3906C39.7169 77.1648 40.1234 77.0572 40.5323 77.0843C40.9412 77.1114 41.3299 77.2717 41.6391 77.5406C46.7352 81.9485 53.248 84.3743 59.986 84.3743C66.7239 84.3743 73.2367 81.9485 78.3328 77.5406C78.642 77.2717 79.0307 77.1114 79.4396 77.0843C79.8485 77.0572 80.255 77.1648 80.5969 77.3906C84.6124 80.0323 88.0805 83.424 90.811 87.3797C97.5386 79.847 101.255 70.0996 101.25 60Z" fill="#9092A1"/>
</g>
</svg>
